SplineFontDB: 3.2
FontName: QTFrizQuad-Bold
FullName: QTFrizQuad-Bold extended
FamilyName: QTFrizQuad
Weight: Bold
Copyright: Copyright (c) 1992 QualiType 1-800-950-2921 to OrderROE
Version: 001.000
ItalicAngle: 0
UnderlinePosition: -150
UnderlineWidth: 50
Ascent: 800
Descent: 200
InvalidEm: 0
sfntRevision: 0x00010000
LayerCount: 2
Layer: 0 1 "Back" 1
Layer: 1 1 "Fore" 0
XUID: [1021 599 188735959 3414]
StyleMap: 0x0020
FSType: 0
OS2Version: 3
OS2_WeightWidthSlopeOnly: 0
OS2_UseTypoMetrics: 0
CreationTime: 716825880
ModificationTime: 1718145716
PfmFamily: 17
TTFWeight: 700
TTFWidth: 5
LineGap: 90
VLineGap: 0
Panose: 2 0 8 3 0 0 0 0 0 0
OS2TypoAscent: 800
OS2TypoAOffset: 0
OS2TypoDescent: -200
OS2TypoDOffset: 0
OS2TypoLinegap: 90
OS2WinAscent: 911
OS2WinAOffset: 0
OS2WinDescent: 214
OS2WinDOffset: 0
HheadAscent: 911
HheadAOffset: 0
HheadDescent: -214
HheadDOffset: 0
OS2SubXSize: 650
OS2SubYSize: 700
OS2SubXOff: 0
OS2SubYOff: 140
OS2SupXSize: 650
OS2SupYSize: 700
OS2SupXOff: 0
OS2SupYOff: 480
OS2StrikeYSize: 49
OS2StrikeYPos: 258
OS2CapHeight: 668
OS2XHeight: 468
OS2Vendor: 'PfEd'
OS2CodePages: 20000001.00d40000
OS2UnicodeRanges: 800000af.40000048.00000000.00000000
Lookup: 258 0 0 "'kern' Horizontal Kerning lookup 0" { "'kern' Horizontal Kerning lookup 0 subtable"  } ['kern' ('DFLT' <'dflt' > ) ]
Lookup: 258 0 0 "'kern' Horizontal Kerning in Latin lookup 1" { "'kern' Horizontal Kerning in Latin lookup 1 subtable"  } ['kern' ('latn' <'dflt' > ) ]
MarkAttachClasses: 1
DEI: 91125
ShortTable: maxp 16
  1
  0
  233
  82
  7
  0
  0
  2
  0
  1
  1
  0
  64
  0
  0
  0
EndShort
LangName: 1033 "" "" "" "FontForge 2.0 : QTFrizQuad-Bold : 18-2-2009" "" "Version 001.000"
GaspTable: 1 65535 2 0
Encoding: UnicodeBmp
UnicodeInterp: none
NameList: AGL For New Fonts
DisplaySize: -48
AntiAlias: 1
FitToEm: 0
WinInfo: 0 38 14
BeginChars: 65539 326

StartChar: exclam
Encoding: 33 33 4
Width: 334
GlyphClass: 2
Flags: W
LayerCount: 2
Fore
SplineSet
271 668 m 1,0,-1
 245 212 l 1,1,-1
 93 212 l 1,2,-1
 67 668 l 1,3,-1
 271 668 l 1,0,-1
269 84 m 128,-1,5
 269 45 269 45 240.5 15.5 c 128,-1,6
 212 -14 212 -14 173 -14 c 128,-1,7
 134 -14 134 -14 105.5 15.5 c 128,-1,8
 77 45 77 45 77 84 c 128,-1,9
 77 123 77 123 105.5 151.5 c 128,-1,10
 134 180 134 180 173 180 c 128,-1,11
 212 180 212 180 240.5 151.5 c 128,-1,4
 269 123 269 123 269 84 c 128,-1,5
EndSplineSet
Validated: 1
EndChar

StartChar: quotedbl
Encoding: 34 34 5
Width: 492
GlyphClass: 2
Flags: W
LayerCount: 2
Fore
SplineSet
455 666 m 1,0,-1
 425 400 l 1,1,-1
 309 400 l 1,2,-1
 279 666 l 1,3,-1
 455 666 l 1,0,-1
213 666 m 1,4,-1
 183 400 l 1,5,-1
 67 400 l 1,6,-1
 37 666 l 1,7,-1
 213 666 l 1,4,-1
EndSplineSet
Validated: 1
EndChar

StartChar: numbersign
Encoding: 35 35 6
Width: 606
GlyphClass: 2
Flags: W
LayerCount: 2
Fore
SplineSet
566 470 m 1,0,-1
 550 380 l 1,1,-1
 440 380 l 1,2,-1
 428 306 l 1,3,-1
 538 306 l 1,4,-1
 522 218 l 1,5,-1
 412 218 l 1,6,-1
 380 34 l 1,7,-1
 290 34 l 1,8,-1
 322 218 l 1,9,-1
 236 218 l 1,10,-1
 204 34 l 1,11,-1
 114 34 l 1,12,-1
 146 218 l 1,13,-1
 36 218 l 1,14,-1
 52 306 l 1,15,-1
 162 306 l 1,16,-1
 174 380 l 1,17,-1
 64 380 l 1,18,-1
 80 470 l 1,19,-1
 190 470 l 1,20,-1
 218 634 l 1,21,-1
 308 634 l 1,22,-1
 280 470 l 1,23,-1
 366 470 l 1,24,-1
 394 634 l 1,25,-1
 484 634 l 1,26,-1
 456 470 l 1,27,-1
 566 470 l 1,0,-1
350 380 m 1,28,-1
 264 380 l 1,29,-1
 252 306 l 1,30,-1
 338 306 l 1,31,-1
 350 380 l 1,28,-1
EndSplineSet
Validated: 1
EndChar

StartChar: dollar
Encoding: 36 36 7
Width: 564
GlyphClass: 2
Flags: W
LayerCount: 2
Fore
SplineSet
502 214 m 0,0,1
 502 130 502 130 430 74 c 0,2,3
 389 46 389 46 324 32 c 1,4,-1
 324 -70 l 1,5,-1
 246 -70 l 1,6,-1
 246 28 l 1,7,8
 160 31 160 31 82 60 c 1,9,-1
 52 188 l 1,10,11
 136 120 136 120 242 120 c 0,12,13
 280 120 280 120 308 134.5 c 128,-1,14
 336 149 336 149 336 184 c 0,15,16
 336 194 336 194 333 203.5 c 128,-1,17
 330 213 330 213 323 220.5 c 128,-1,18
 316 228 316 228 310.5 233.5 c 128,-1,19
 305 239 305 239 293.5 245.5 c 128,-1,20
 282 252 282 252 276 255 c 128,-1,21
 270 258 270 258 256.5 264 c 128,-1,22
 243 270 243 270 240 272 c 0,23,24
 234 275 234 275 208.5 287.5 c 128,-1,25
 183 300 183 300 172.5 305.5 c 128,-1,26
 162 311 162 311 144.5 322.5 c 128,-1,27
 127 334 127 334 114 346 c 0,28,29
 62 395 62 395 62 462 c 0,30,31
 62 542 62 542 112 585.5 c 128,-1,32
 162 629 162 629 246 640 c 1,33,-1
 246 720 l 1,34,-1
 320 720 l 1,35,-1
 320 640 l 1,36,37
 390 633 390 633 434 616 c 1,38,-1
 434 512 l 1,39,40
 368 554 368 554 304 554 c 0,41,42
 276 554 276 554 253 538.5 c 128,-1,43
 230 523 230 523 230 496 c 0,44,45
 230 480 230 480 239 467.5 c 128,-1,46
 248 455 248 455 257.5 449.5 c 128,-1,47
 267 444 267 444 284 436 c 2,48,-1
 378 392 l 2,49,50
 502 335 502 335 502 214 c 0,0,1
EndSplineSet
Validated: 1
EndChar

StartChar: percent
Encoding: 37 37 8
Width: 774
GlyphClass: 2
Flags: W
LayerCount: 2
Fore
SplineSet
736 150 m 0,0,1
 736 75 736 75 687.5 30.5 c 128,-1,2
 639 -14 639 -14 570 -14 c 0,3,4
 499 -14 499 -14 454.5 32.5 c 128,-1,5
 410 79 410 79 410 152 c 0,6,7
 410 219 410 219 456 264.5 c 128,-1,8
 502 310 502 310 570 310 c 0,9,10
 645 310 645 310 690.5 267 c 128,-1,11
 736 224 736 224 736 150 c 0,0,1
618 668 m 1,12,-1
 238 0 l 1,13,-1
 142 0 l 1,14,-1
 522 668 l 1,15,-1
 618 668 l 1,12,-1
352 522 m 0,16,17
 352 447 352 447 303.5 402.5 c 128,-1,18
 255 358 255 358 186 358 c 0,19,20
 116 358 116 358 72 404.5 c 128,-1,21
 28 451 28 451 28 522 c 0,22,23
 28 589 28 589 74 634.5 c 128,-1,24
 120 680 120 680 188 680 c 0,25,26
 263 680 263 680 307.5 638 c 128,-1,27
 352 596 352 596 352 522 c 0,16,17
620 146 m 0,28,29
 620 232 620 232 572 232 c 0,30,31
 548 232 548 232 537 211 c 128,-1,32
 526 190 526 190 526 160 c 0,33,34
 526 70 526 70 578 70 c 0,35,36
 620 70 620 70 620 146 c 0,28,29
238 518 m 0,37,38
 238 604 238 604 190 604 c 0,39,40
 144 604 144 604 144 530 c 0,41,42
 144 440 144 440 194 440 c 0,43,44
 238 440 238 440 238 518 c 0,37,38
EndSplineSet
Validated: 1
EndChar

StartChar: ampersand
Encoding: 38 38 9
Width: 878
GlyphClass: 2
Flags: W
LayerCount: 2
Fore
SplineSet
871 8 m 1,0,1
 858 6 858 6 832 3 c 128,-1,2
 806 0 806 0 793 -2 c 0,3,4
 757 -6 757 -6 681 -6 c 0,5,6
 570 -6 570 -6 483 72 c 1,7,8
 441 24 441 24 392.5 5 c 128,-1,9
 344 -14 344 -14 275 -14 c 0,10,11
 182 -14 182 -14 123 26 c 0,12,13
 35 81 35 81 35 176 c 0,14,15
 35 238 35 238 75.5 287 c 128,-1,16
 116 336 116 336 181 382 c 1,17,18
 101 470 101 470 101 538 c 0,19,20
 101 605 101 605 158.5 642.5 c 128,-1,21
 216 680 216 680 287 680 c 0,22,23
 364 680 364 680 419.5 645.5 c 128,-1,24
 475 611 475 611 475 534 c 0,25,26
 475 471 475 471 391 400 c 1,27,-1
 423 368 l 1,28,-1
 501 290 l 2,29,30
 611 180 611 180 705 114 c 0,31,32
 771 63 771 63 871 8 c 1,0,1
351 534 m 0,33,34
 351 552 351 552 338 566 c 128,-1,35
 325 580 325 580 309 580 c 0,36,37
 292 580 292 580 279.5 571 c 128,-1,38
 267 562 267 562 267 546 c 0,39,40
 267 517 267 517 313 476 c 1,41,42
 351 506 351 506 351 534 c 0,33,34
415 138 m 1,43,44
 403 154 403 154 387 166 c 2,45,-1
 341 214 l 1,46,47
 291 260 291 260 261 298 c 1,48,49
 219 259 219 259 219 210 c 128,-1,50
 219 161 219 161 246 125.5 c 128,-1,51
 273 90 273 90 319 90 c 0,52,53
 380 90 380 90 415 138 c 1,43,44
EndSplineSet
Validated: 1
EndChar

StartChar: quotesingle
Encoding: 39 39 10
Width: 252
GlyphClass: 2
Flags: W
LayerCount: 2
Fore
SplineSet
210 666 m 5,0,-1
 180 400 l 5,1,-1
 64 400 l 5,2,-1
 34 666 l 5,3,-1
 210 666 l 5,0,-1
EndSplineSet
Validated: 1
EndChar

StartChar: parenleft
Encoding: 40 40 11
Width: 334
GlyphClass: 2
Flags: W
LayerCount: 2
Fore
SplineSet
294 -158 m 1,0,-1
 200 -158 l 1,1,2
 60 27 60 27 60 262 c 0,3,4
 60 369 60 369 97 474.5 c 128,-1,5
 134 580 134 580 200 666 c 1,6,-1
 294 666 l 1,7,8
 192 477 192 477 192 254 c 0,9,10
 192 46 192 46 294 -158 c 1,0,-1
EndSplineSet
Validated: 1
EndChar

StartChar: parenright
Encoding: 41 41 12
Width: 334
GlyphClass: 2
Flags: W
LayerCount: 2
Fore
SplineSet
272 262 m 0,0,1
 272 27 272 27 132 -158 c 1,2,-1
 38 -158 l 1,3,4
 140 46 140 46 140 254 c 0,5,6
 140 477 140 477 38 666 c 1,7,-1
 132 666 l 1,8,9
 198 580 198 580 235 474.5 c 128,-1,10
 272 369 272 369 272 262 c 0,0,1
EndSplineSet
Validated: 1
EndChar

StartChar: asterisk
Encoding: 42 42 13
Width: 460
GlyphClass: 2
Flags: W
LayerCount: 2
Fore
SplineSet
396 508 m 1,0,1
 392 508 392 508 384 509 c 128,-1,2
 376 510 376 510 372 510 c 0,3,4
 336 510 336 510 290 496 c 1,5,-1
 278 494 l 1,6,-1
 286 486 l 1,7,-1
 306 460 l 2,8,9
 328 435 328 435 370 418 c 1,10,-1
 274 348 l 1,11,12
 266 400 266 400 234 446 c 2,13,-1
 226 456 l 1,14,-1
 218 446 l 1,15,16
 192 407 192 407 178 348 c 1,17,-1
 84 418 l 1,18,19
 122 434 122 434 130 440 c 0,20,21
 157 463 157 463 170 484 c 2,22,-1
 178 494 l 1,23,-1
 164 498 l 2,24,25
 134 508 134 508 104 508 c 0,26,27
 86 508 86 508 54 500 c 1,28,-1
 92 614 l 1,29,30
 134 572 134 572 184 556 c 2,31,-1
 196 552 l 1,32,-1
 196 566 l 2,33,34
 196 617 196 617 164 668 c 1,35,-1
 286 668 l 1,36,37
 256 622 256 622 256 566 c 2,38,-1
 256 554 l 1,39,-1
 268 556 l 1,40,41
 301 567 301 567 320 579.5 c 128,-1,42
 339 592 339 592 358 618 c 1,43,-1
 396 508 l 1,0,1
EndSplineSet
Validated: 1
EndChar

StartChar: plus
Encoding: 43 43 14
Width: 562
GlyphClass: 2
Flags: W
LayerCount: 2
Fore
SplineSet
529 402 m 1,0,-1
 458 303 l 2,1,2
 447 287 447 287 416 287 c 0,3,4
 413 287 413 287 406.5 288 c 128,-1,5
 400 289 400 289 398 289 c 2,6,-1
 334 289 l 1,7,-1
 333 146 l 2,8,9
 336 109 336 109 347 80 c 1,10,-1
 254 153 l 2,11,12
 236 167 236 167 236 211 c 2,13,-1
 236 290 l 1,14,-1
 91 291 l 2,15,16
 54 288 54 288 25 277 c 1,17,-1
 98 370 l 2,18,19
 112 388 112 388 156 388 c 2,20,-1
 236 388 l 1,21,-1
 236 520 l 2,22,23
 236 549 236 549 222 584 c 1,24,-1
 321 513 l 2,25,26
 337 502 337 502 337 471 c 0,27,28
 337 468 337 468 336 461.5 c 128,-1,29
 335 455 335 455 335 453 c 0,30,31
 335 388 335 388 334 388 c 1,32,-1
 465 388 l 2,33,34
 494 388 494 388 529 402 c 1,0,-1
EndSplineSet
Validated: 1
EndChar

StartChar: comma
Encoding: 44 44 15
Width: 294
GlyphClass: 2
Flags: W
LayerCount: 2
Fore
SplineSet
243 74 m 0,0,1
 243 38 243 38 219.5 -8 c 128,-1,2
 196 -54 196 -54 167 -88 c 0,3,4
 144 -114 144 -114 131.5 -120 c 128,-1,5
 119 -126 119 -126 85 -126 c 0,6,7
 59 -126 59 -126 45 -124 c 1,8,9
 110 -66 110 -66 145 2 c 1,10,11
 141 -2 141 -2 129 -2 c 0,12,13
 97 -2 97 -2 73 25 c 128,-1,14
 49 52 49 52 49 86 c 0,15,16
 49 124 49 124 78 152 c 128,-1,17
 107 180 107 180 145 180 c 0,18,19
 189 180 189 180 216 149 c 128,-1,20
 243 118 243 118 243 74 c 0,0,1
EndSplineSet
Validated: 1
EndChar

StartChar: hyphen
Encoding: 45 45 16
Width: 351
GlyphClass: 2
Flags: W
LayerCount: 2
Fore
SplineSet
355 337 m 1,0,-1
 271 221 l 2,1,2
 256 199 256 199 219 199 c 0,3,4
 216 199 216 199 209.5 200.5 c 128,-1,5
 203 202 203 202 201 202 c 2,6,-1
 74 204 l 2,7,8
 39 201 39 201 11 190 c 1,9,-1
 -3 210 l 1,10,-1
 55 282 l 2,11,12
 73 304 73 304 123 304 c 2,13,-1
 253 304 l 2,14,15
 280 304 280 304 355 337 c 1,0,-1
EndSplineSet
Validated: 1
EndChar

StartChar: period
Encoding: 46 46 17
Width: 294
GlyphClass: 2
Flags: W
LayerCount: 2
Fore
SplineSet
243 84 m 128,-1,1
 243 45 243 45 214 15.5 c 128,-1,2
 185 -14 185 -14 145 -14 c 0,3,4
 106 -14 106 -14 77.5 15.5 c 128,-1,5
 49 45 49 45 49 84 c 128,-1,6
 49 123 49 123 77.5 151.5 c 128,-1,7
 106 180 106 180 145 180 c 0,8,9
 185 180 185 180 214 151.5 c 128,-1,0
 243 123 243 123 243 84 c 128,-1,1
EndSplineSet
Validated: 1
EndChar

StartChar: slash
Encoding: 47 47 18
Width: 394
GlyphClass: 2
Flags: W
LayerCount: 2
Fore
SplineSet
398 666 m 1,0,-1
 72 -158 l 1,1,-1
 -50 -158 l 1,2,-1
 280 666 l 1,3,-1
 398 666 l 1,0,-1
EndSplineSet
Validated: 1
EndChar

StartChar: zero
Encoding: 48 48 19
Width: 606
GlyphClass: 2
Flags: W
LayerCount: 2
Fore
SplineSet
569 332 m 0,0,1
 569 242 569 242 543 172 c 128,-1,2
 517 102 517 102 475 63 c 128,-1,3
 433 24 433 24 388 5 c 128,-1,4
 343 -14 343 -14 297 -14 c 0,5,6
 187 -14 187 -14 112 80 c 128,-1,7
 37 174 37 174 37 326 c 0,8,9
 37 483 37 483 108 581.5 c 128,-1,10
 179 680 179 680 305 680 c 0,11,12
 342 680 342 680 378 669 c 128,-1,13
 414 658 414 658 449 632 c 128,-1,14
 484 606 484 606 510 567 c 128,-1,15
 536 528 536 528 552.5 467.5 c 128,-1,16
 569 407 569 407 569 332 c 0,0,1
393 346 m 0,17,18
 393 562 393 562 305 562 c 0,19,20
 278 562 278 562 259 541 c 128,-1,21
 240 520 240 520 230.5 486 c 128,-1,22
 221 452 221 452 217 419 c 128,-1,23
 213 386 213 386 213 352 c 0,24,25
 213 108 213 108 297 108 c 0,26,27
 327 108 327 108 348 136 c 128,-1,28
 369 164 369 164 377.5 208 c 128,-1,29
 386 252 386 252 389.5 285 c 128,-1,30
 393 318 393 318 393 346 c 0,17,18
EndSplineSet
Validated: 1
EndChar

StartChar: one
Encoding: 49 49 20
Width: 606
GlyphClass: 2
Flags: W
LayerCount: 2
Fore
SplineSet
463 0 m 1,0,-1
 173 0 l 1,1,2
 209 25 209 25 221 57 c 128,-1,3
 233 89 233 89 233 140 c 2,4,-1
 233 510 l 1,5,6
 188 528 188 528 127 542 c 1,7,-1
 143 546 l 1,8,9
 314 599 314 599 411 712 c 1,10,-1
 411 134 l 2,11,12
 411 101 411 101 413 81.5 c 128,-1,13
 415 62 415 62 427.5 38 c 128,-1,14
 440 14 440 14 463 0 c 1,0,-1
EndSplineSet
Validated: 1
EndChar

StartChar: two
Encoding: 50 50 21
Width: 606
GlyphClass: 2
Flags: W
LayerCount: 2
Fore
SplineSet
563 146 m 1,0,-1
 517 0 l 1,1,-1
 37 0 l 1,2,3
 159 191 159 191 229 316 c 0,4,5
 230 318 230 318 239 333.5 c 128,-1,6
 248 349 248 349 252.5 356.5 c 128,-1,7
 257 364 257 364 266 381 c 128,-1,8
 275 398 275 398 280 409 c 128,-1,9
 285 420 285 420 292.5 436 c 128,-1,10
 300 452 300 452 303.5 464 c 128,-1,11
 307 476 307 476 310 489 c 128,-1,12
 313 502 313 502 313 512 c 0,13,14
 313 541 313 541 292 558.5 c 128,-1,15
 271 576 271 576 237 576 c 0,16,17
 174 576 174 576 79 510 c 1,18,-1
 123 646 l 1,19,20
 206 680 206 680 295 680 c 0,21,22
 388 680 388 680 450.5 633.5 c 128,-1,23
 513 587 513 587 513 506 c 0,24,25
 513 453 513 453 453 346 c 0,26,27
 405 257 405 257 323 136 c 2,28,-1
 303 106 l 1,29,30
 347 98 347 98 369 98 c 0,31,32
 427 98 427 98 467.5 108.5 c 128,-1,33
 508 119 508 119 563 146 c 1,0,-1
EndSplineSet
Validated: 1
EndChar

StartChar: three
Encoding: 51 51 22
Width: 606
GlyphClass: 2
Flags: W
LayerCount: 2
Fore
SplineSet
545 204 m 0,0,1
 545 135 545 135 498.5 83.5 c 128,-1,2
 452 32 452 32 386.5 9 c 128,-1,3
 321 -14 321 -14 249 -14 c 0,4,5
 179 -14 179 -14 89 6 c 1,6,-1
 61 128 l 1,7,8
 139 86 139 86 219 86 c 0,9,10
 271 86 271 86 311 119.5 c 128,-1,11
 351 153 351 153 351 204 c 0,12,13
 351 265 351 265 312 293.5 c 128,-1,14
 273 322 273 322 209 322 c 2,15,-1
 151 322 l 1,16,-1
 151 412 l 1,17,-1
 175 412 l 2,18,19
 241 412 241 412 269 428 c 0,20,21
 315 454 315 454 315 500 c 0,22,23
 315 544 315 544 287 564 c 128,-1,24
 259 584 259 584 215 584 c 0,25,26
 159 584 159 584 79 544 c 1,27,-1
 111 656 l 1,28,29
 191 680 191 680 293 680 c 0,30,31
 342 680 342 680 389 663.5 c 128,-1,32
 436 647 436 647 470.5 609 c 128,-1,33
 505 571 505 571 505 520 c 0,34,35
 505 489 505 489 491 462.5 c 128,-1,36
 477 436 477 436 456 420.5 c 128,-1,37
 435 405 435 405 419.5 397 c 128,-1,38
 404 389 404 389 393 386 c 1,39,40
 545 343 545 343 545 204 c 0,0,1
EndSplineSet
Validated: 1
EndChar

StartChar: four
Encoding: 52 52 23
Width: 606
GlyphClass: 2
Flags: W
LayerCount: 2
Fore
SplineSet
608 268 m 1,0,-1
 566 144 l 1,1,-1
 488 144 l 1,2,-1
 488 120 l 2,3,4
 488 77 488 77 496 54 c 128,-1,5
 504 31 504 31 530 0 c 1,6,-1
 264 0 l 1,7,8
 292 22 292 22 301 47.5 c 128,-1,9
 310 73 310 73 310 114 c 2,10,-1
 310 144 l 1,11,-1
 -2 144 l 1,12,-1
 278 668 l 1,13,-1
 488 668 l 1,14,-1
 488 234 l 1,15,16
 528 234 528 234 552.5 240.5 c 128,-1,17
 577 247 577 247 608 268 c 1,0,-1
310 234 m 1,18,-1
 310 542 l 1,19,-1
 146 234 l 1,20,-1
 310 234 l 1,18,-1
EndSplineSet
Validated: 1
EndChar

StartChar: five
Encoding: 53 53 24
Width: 606
GlyphClass: 2
Flags: W
LayerCount: 2
Fore
SplineSet
553 216 m 0,0,1
 553 170 553 170 530 126 c 128,-1,2
 507 82 507 82 471 52 c 0,3,4
 390 -14 390 -14 279 -14 c 0,5,6
 197 -14 197 -14 91 10 c 1,7,-1
 57 126 l 1,8,9
 89 108 89 108 117 98 c 0,10,11
 171 80 171 80 213 80 c 0,12,13
 273 80 273 80 315 114.5 c 128,-1,14
 357 149 357 149 357 208 c 0,15,16
 357 277 357 277 318.5 313.5 c 128,-1,17
 280 350 280 350 211 350 c 0,18,19
 145 350 145 350 79 332 c 1,20,-1
 95 668 l 1,21,-1
 499 668 l 1,22,-1
 499 534 l 1,23,24
 444 570 444 570 341 570 c 0,25,26
 311 570 311 570 251 566 c 1,27,-1
 245 438 l 1,28,29
 289 446 289 446 311 446 c 0,30,31
 417 446 417 446 485 383.5 c 128,-1,32
 553 321 553 321 553 216 c 0,0,1
EndSplineSet
Validated: 1
EndChar

StartChar: six
Encoding: 54 54 25
Width: 606
GlyphClass: 2
Flags: W
LayerCount: 2
Fore
SplineSet
573 230 m 0,0,1
 573 128 573 128 501.5 57 c 128,-1,2
 430 -14 430 -14 321 -14 c 0,3,4
 187 -14 187 -14 114 65.5 c 128,-1,5
 41 145 41 145 41 280 c 0,6,7
 41 418 41 418 139.5 526 c 128,-1,8
 238 634 238 634 377 672 c 0,9,10
 441 688 441 688 499 688 c 2,11,-1
 521 688 l 1,12,-1
 483 604 l 1,13,14
 393 582 393 582 329 526 c 0,15,16
 221 435 221 435 221 270 c 0,17,18
 221 241 221 241 224 214.5 c 128,-1,19
 227 188 227 188 236 156.5 c 128,-1,20
 245 125 245 125 266 106.5 c 128,-1,21
 287 88 287 88 317 88 c 0,22,23
 359 88 359 88 378 127.5 c 128,-1,24
 397 167 397 167 397 214 c 0,25,26
 397 271 397 271 375.5 314.5 c 128,-1,27
 354 358 354 358 303 358 c 0,28,29
 285 358 285 358 257 346 c 1,30,-1
 331 448 l 1,31,32
 336 448 336 448 345.5 449 c 128,-1,33
 355 450 355 450 359 450 c 0,34,35
 452 450 452 450 512.5 390.5 c 128,-1,36
 573 331 573 331 573 230 c 0,0,1
EndSplineSet
Validated: 1
EndChar

StartChar: seven
Encoding: 55 55 26
Width: 606
GlyphClass: 2
Flags: W
LayerCount: 2
Fore
SplineSet
572 668 m 1,0,-1
 368 128 l 2,1,2
 348 78 348 78 348 62 c 0,3,4
 348 28 348 28 380 0 c 1,5,-1
 118 0 l 1,6,-1
 348 558 l 1,7,8
 294 570 294 570 236 570 c 0,9,10
 175 570 175 570 130.5 560.5 c 128,-1,11
 86 551 86 551 38 524 c 1,12,-1
 90 668 l 1,13,-1
 572 668 l 1,0,-1
EndSplineSet
Validated: 1
EndChar

StartChar: eight
Encoding: 56 56 27
Width: 606
GlyphClass: 2
Flags: W
LayerCount: 2
Fore
SplineSet
576 198 m 0,0,1
 576 105 576 105 514 52 c 0,2,3
 437 -14 437 -14 308 -14 c 0,4,5
 199 -14 199 -14 124 26 c 0,6,7
 82 49 82 49 54 90 c 128,-1,8
 26 131 26 131 26 176 c 0,9,10
 26 239 26 239 57 277.5 c 128,-1,11
 88 316 88 316 148 340 c 1,12,13
 48 403 48 403 48 494 c 0,14,15
 48 545 48 545 69.5 583.5 c 128,-1,16
 91 622 91 622 127.5 643.5 c 128,-1,17
 164 665 164 665 207 675.5 c 128,-1,18
 250 686 250 686 298 686 c 0,19,20
 412 686 412 686 476 644 c 0,21,22
 510 621 510 621 530 585.5 c 128,-1,23
 550 550 550 550 550 510 c 0,24,25
 550 416 550 416 450 376 c 1,26,27
 504 351 504 351 530 320 c 0,28,29
 576 274 576 274 576 198 c 0,0,1
406 492 m 0,30,31
 406 537 406 537 375.5 566.5 c 128,-1,32
 345 596 345 596 300 596 c 0,33,34
 270 596 270 596 249 577.5 c 128,-1,35
 228 559 228 559 228 530 c 0,36,37
 228 514 228 514 236.5 499.5 c 128,-1,38
 245 485 245 485 261.5 474 c 128,-1,39
 278 463 278 463 290 456.5 c 128,-1,40
 302 450 302 450 320 442 c 2,41,-1
 374 418 l 1,42,43
 406 442 406 442 406 492 c 0,30,31
390 166 m 0,44,45
 390 190 390 190 373 210 c 128,-1,46
 356 230 356 230 339.5 239 c 128,-1,47
 323 248 323 248 294 260 c 2,48,-1
 222 296 l 1,49,50
 168 260 168 260 168 196 c 0,51,52
 168 149 168 149 205 115.5 c 128,-1,53
 242 82 242 82 290 82 c 0,54,55
 329 82 329 82 359.5 105 c 128,-1,56
 390 128 390 128 390 166 c 0,44,45
EndSplineSet
Validated: 1
EndChar

StartChar: nine
Encoding: 57 57 28
Width: 606
GlyphClass: 2
Flags: W
LayerCount: 2
Fore
SplineSet
571 388 m 0,0,1
 571 249 571 249 473 141.5 c 128,-1,2
 375 34 375 34 235 -4 c 0,3,4
 175 -19 175 -19 113 -22 c 0,5,6
 109 -22 109 -22 102 -21 c 128,-1,7
 95 -20 95 -20 91 -20 c 1,8,-1
 129 64 l 1,9,10
 216 85 216 85 285 142 c 0,11,12
 393 233 393 233 393 400 c 0,13,14
 393 427 393 427 389 454 c 128,-1,15
 385 481 385 481 376 511.5 c 128,-1,16
 367 542 367 542 346.5 561 c 128,-1,17
 326 580 326 580 297 580 c 0,18,19
 267 580 267 580 248 558 c 128,-1,20
 229 536 229 536 223 510 c 128,-1,21
 217 484 217 484 217 456 c 0,22,23
 217 399 217 399 238.5 355.5 c 128,-1,24
 260 312 260 312 311 312 c 0,25,26
 332 312 332 312 355 322 c 1,27,-1
 281 222 l 1,28,29
 271 220 271 220 253 220 c 0,30,31
 160 220 160 220 100.5 278.5 c 128,-1,32
 41 337 41 337 41 438 c 0,33,34
 41 540 41 540 112 610 c 128,-1,35
 183 680 183 680 293 680 c 0,36,37
 426 680 426 680 498.5 601 c 128,-1,38
 571 522 571 522 571 388 c 0,0,1
EndSplineSet
Validated: 1
EndChar

StartChar: colon
Encoding: 58 58 29
Width: 294
GlyphClass: 2
Flags: W
LayerCount: 2
Fore
SplineSet
246 350 m 128,-1,1
 246 311 246 311 217 282.5 c 128,-1,2
 188 254 188 254 148 254 c 0,3,4
 109 254 109 254 80.5 282.5 c 128,-1,5
 52 311 52 311 52 350 c 128,-1,6
 52 389 52 389 80.5 417.5 c 128,-1,7
 109 446 109 446 148 446 c 0,8,9
 188 446 188 446 217 417.5 c 128,-1,0
 246 389 246 389 246 350 c 128,-1,1
246 84 m 128,-1,11
 246 45 246 45 217 15.5 c 128,-1,12
 188 -14 188 -14 148 -14 c 0,13,14
 109 -14 109 -14 80.5 15.5 c 128,-1,15
 52 45 52 45 52 84 c 128,-1,16
 52 123 52 123 80.5 151.5 c 128,-1,17
 109 180 109 180 148 180 c 0,18,19
 188 180 188 180 217 151.5 c 128,-1,10
 246 123 246 123 246 84 c 128,-1,11
EndSplineSet
Validated: 1
EndChar

StartChar: semicolon
Encoding: 59 59 30
Width: 294
GlyphClass: 2
Flags: W
LayerCount: 2
Fore
SplineSet
241 350 m 128,-1,1
 241 311 241 311 213 282.5 c 128,-1,2
 185 254 185 254 145 254 c 0,3,4
 106 254 106 254 77.5 282.5 c 128,-1,5
 49 311 49 311 49 350 c 128,-1,6
 49 389 49 389 77.5 417.5 c 128,-1,7
 106 446 106 446 145 446 c 0,8,9
 185 446 185 446 213 417.5 c 128,-1,0
 241 389 241 389 241 350 c 128,-1,1
249 74 m 0,10,11
 249 38 249 38 224.5 -8.5 c 128,-1,12
 200 -55 200 -55 171 -88 c 0,13,14
 148 -114 148 -114 136 -120 c 128,-1,15
 124 -126 124 -126 91 -126 c 0,16,17
 63 -126 63 -126 49 -124 c 1,18,19
 115 -68 115 -68 151 2 c 1,20,21
 145 -2 145 -2 135 -2 c 0,22,23
 103 -2 103 -2 79 25 c 128,-1,24
 55 52 55 52 55 86 c 0,25,26
 55 125 55 125 83.5 152.5 c 128,-1,27
 112 180 112 180 151 180 c 0,28,29
 195 180 195 180 222 149 c 128,-1,30
 249 118 249 118 249 74 c 0,10,11
EndSplineSet
Validated: 1
EndChar

StartChar: less
Encoding: 60 60 31
Width: 442
GlyphClass: 2
Flags: W
LayerCount: 2
Fore
SplineSet
404 99 m 1,0,-1
 33 279 l 1,1,-1
 33 357 l 1,2,-1
 404 535 l 1,3,-1
 404 436 l 1,4,-1
 151 317 l 1,5,-1
 404 199 l 1,6,-1
 404 99 l 1,0,-1
EndSplineSet
Validated: 1
EndChar

StartChar: equal
Encoding: 61 61 32
Width: 464
GlyphClass: 2
Flags: W
LayerCount: 2
Fore
SplineSet
436 466 m 1,0,-1
 365 367 l 2,1,2
 354 351 354 351 323 351 c 0,3,4
 320 351 320 351 313.5 352 c 128,-1,5
 307 353 307 353 305 353 c 2,6,-1
 95 355 l 2,7,8
 58 352 58 352 29 341 c 1,9,-1
 102 434 l 2,10,11
 116 452 116 452 160 452 c 2,12,-1
 372 452 l 2,13,14
 401 452 401 452 436 466 c 1,0,-1
434 326 m 1,15,-1
 363 227 l 2,16,17
 352 211 352 211 321 211 c 0,18,19
 318 211 318 211 311.5 212 c 128,-1,20
 305 213 305 213 303 213 c 2,21,-1
 93 215 l 2,22,23
 56 212 56 212 27 201 c 1,24,-1
 100 294 l 2,25,26
 114 312 114 312 158 312 c 2,27,-1
 370 312 l 2,28,29
 399 312 399 312 434 326 c 1,15,-1
EndSplineSet
Validated: 1
EndChar

StartChar: greater
Encoding: 62 62 33
Width: 442
GlyphClass: 2
Flags: W
LayerCount: 2
Fore
SplineSet
412 279 m 1,0,-1
 41 99 l 1,1,-1
 41 199 l 1,2,-1
 294 317 l 1,3,-1
 41 436 l 1,4,-1
 41 535 l 1,5,-1
 412 357 l 1,6,-1
 412 279 l 1,0,-1
EndSplineSet
Validated: 1
EndChar

StartChar: question
Encoding: 63 63 34
Width: 512
GlyphClass: 2
Flags: W
LayerCount: 2
Fore
SplineSet
462 516 m 0,0,1
 462 470 462 470 444.5 432.5 c 128,-1,2
 427 395 427 395 404.5 372.5 c 128,-1,3
 382 350 382 350 340 318 c 0,4,5
 282 278 282 278 282 242 c 0,6,7
 282 232 282 232 286 212 c 1,8,-1
 152 212 l 1,9,10
 148 240 148 240 148 252 c 0,11,12
 148 316 148 316 208 376 c 0,13,14
 274 438 274 438 274 492 c 0,15,16
 274 535 274 535 242 559.5 c 128,-1,17
 210 584 210 584 166 584 c 0,18,19
 118 584 118 584 60 548 c 1,20,-1
 102 678 l 1,21,22
 154 700 154 700 224 700 c 0,23,24
 329 700 329 700 395.5 649.5 c 128,-1,25
 462 599 462 599 462 516 c 0,0,1
322 84 m 128,-1,27
 322 45 322 45 293.5 15.5 c 128,-1,28
 265 -14 265 -14 226 -14 c 128,-1,29
 187 -14 187 -14 158.5 15.5 c 128,-1,30
 130 45 130 45 130 84 c 128,-1,31
 130 123 130 123 158.5 151.5 c 128,-1,32
 187 180 187 180 226 180 c 128,-1,33
 265 180 265 180 293.5 151.5 c 128,-1,26
 322 123 322 123 322 84 c 128,-1,27
EndSplineSet
Validated: 1
EndChar

StartChar: at
Encoding: 64 64 35
Width: 774
GlyphClass: 2
Flags: W
LayerCount: 2
Fore
SplineSet
719 186 m 1,0,1
 708 157 708 157 687 127 c 128,-1,2
 666 97 666 97 629 63 c 128,-1,3
 592 29 592 29 531.5 7.5 c 128,-1,4
 471 -14 471 -14 397 -14 c 0,5,6
 327 -14 327 -14 265 6 c 128,-1,7
 203 26 203 26 152 66.5 c 128,-1,8
 101 107 101 107 71 175.5 c 128,-1,9
 41 244 41 244 41 334 c 0,10,11
 41 420 41 420 72.5 488.5 c 128,-1,12
 104 557 104 557 155 597.5 c 128,-1,13
 206 638 206 638 263.5 659 c 128,-1,14
 321 680 321 680 379 680 c 0,15,16
 531 680 531 680 624 600.5 c 128,-1,17
 717 521 717 521 717 406 c 0,18,19
 717 297 717 297 647 222.5 c 128,-1,20
 577 148 577 148 483 148 c 0,21,22
 420 148 420 148 415 198 c 1,23,24
 355 150 355 150 311 150 c 0,25,26
 261 150 261 150 236 183 c 128,-1,27
 211 216 211 216 211 268 c 0,28,29
 211 355 211 355 268.5 436.5 c 128,-1,30
 326 518 326 518 409 518 c 0,31,32
 447 518 447 518 481 490 c 1,33,-1
 485 502 l 1,34,-1
 585 502 l 1,35,-1
 495 268 l 2,36,37
 485 238 485 238 485 232 c 0,38,39
 485 214 485 214 511 214 c 0,40,41
 528 217 528 217 550 229.5 c 128,-1,42
 572 242 572 242 595 264 c 128,-1,43
 618 286 618 286 633.5 324 c 128,-1,44
 649 362 649 362 649 408 c 0,45,46
 649 500 649 500 566.5 557 c 128,-1,47
 484 614 484 614 387 614 c 0,48,49
 271 614 271 614 191 531 c 128,-1,50
 111 448 111 448 111 332 c 0,51,52
 111 202 111 202 188.5 128 c 128,-1,53
 266 54 266 54 395 54 c 0,54,55
 565 54 565 54 659 186 c 1,56,-1
 719 186 l 1,0,1
447 430 m 2,57,-1
 447 434 l 2,58,59
 447 441 447 441 442.5 446.5 c 128,-1,60
 438 452 438 452 431 452 c 0,61,62
 393 452 393 452 355 371.5 c 128,-1,63
 317 291 317 291 313 240 c 0,64,65
 313 214 313 214 331 214 c 0,66,67
 347 214 347 214 363.5 231.5 c 128,-1,68
 380 249 380 249 389 267 c 128,-1,69
 398 285 398 285 405 302 c 0,70,71
 408 309 408 309 417.5 331 c 128,-1,72
 427 353 427 353 431 364.5 c 128,-1,73
 435 376 435 376 440.5 395 c 128,-1,74
 446 414 446 414 447 430 c 2,57,-1
EndSplineSet
Validated: 1
EndChar

StartChar: A
Encoding: 65 65 36
Width: 722
GlyphClass: 2
Flags: W
LayerCount: 2
Fore
SplineSet
724 0 m 1,0,-1
 418 0 l 1,1,2
 458 29 458 29 460 62 c 0,3,4
 460 82 460 82 456 92 c 2,5,-1
 418 202 l 1,6,-1
 218 202 l 1,7,-1
 190 122 l 2,8,9
 177 92 177 92 174 62 c 0,10,11
 174 40 174 40 202 8 c 0,12,13
 206 6 206 6 212 0 c 1,14,-1
 4 0 l 1,15,16
 53 56 53 56 70 106 c 2,17,-1
 218 536 l 2,18,19
 219 542 219 542 227.5 565.5 c 128,-1,20
 236 589 236 589 236 602 c 2,21,-1
 236 608 l 2,22,23
 234 636 234 636 198 668 c 1,24,-1
 446 668 l 1,25,-1
 642 134 l 2,26,27
 670 56 670 56 714 12 c 1,28,-1
 724 0 l 1,0,-1
386 298 m 1,29,-1
 314 498 l 1,30,-1
 246 298 l 1,31,-1
 386 298 l 1,29,-1
EndSplineSet
Validated: 1
EndChar

StartChar: B
Encoding: 66 66 37
Width: 628
GlyphClass: 2
Flags: W
LayerCount: 2
Fore
SplineSet
582 200 m 0,0,1
 582 112 582 112 514 54 c 0,2,3
 469 16 469 16 424 8 c 0,4,5
 389 0 389 0 346 0 c 2,6,-1
 34 0 l 1,7,8
 62 20 62 20 70 47.5 c 128,-1,9
 78 75 78 75 78 120 c 2,10,-1
 78 546 l 2,11,12
 78 575 78 575 76 592.5 c 128,-1,13
 74 610 74 610 64 632 c 128,-1,14
 54 654 54 654 34 668 c 1,15,-1
 352 668 l 2,16,17
 427 668 427 668 480 630 c 0,18,19
 544 583 544 583 544 514 c 0,20,21
 544 461 544 461 516.5 430.5 c 128,-1,22
 489 400 489 400 436 378 c 1,23,24
 505 366 505 366 543.5 318.5 c 128,-1,25
 582 271 582 271 582 200 c 0,0,1
356 494 m 0,26,27
 356 524 356 524 339.5 548 c 128,-1,28
 323 572 323 572 294 572 c 0,29,30
 277 572 277 572 262 566 c 1,31,-1
 262 410 l 1,32,33
 278 406 278 406 286 406 c 0,34,35
 317 407 317 407 336.5 433.5 c 128,-1,36
 356 460 356 460 356 494 c 0,26,27
398 208 m 0,37,38
 398 269 398 269 369.5 294.5 c 128,-1,39
 341 320 341 320 280 320 c 2,40,-1
 262 320 l 1,41,-1
 262 108 l 1,42,43
 282 94 282 94 308 94 c 0,44,45
 353 94 353 94 375.5 127 c 128,-1,46
 398 160 398 160 398 208 c 0,37,38
EndSplineSet
Validated: 1
EndChar

StartChar: C
Encoding: 67 67 38
Width: 690
GlyphClass: 2
Flags: W
LayerCount: 2
Fore
SplineSet
678 160 m 1,0,-1
 626 12 l 1,1,2
 536 -14 536 -14 438 -14 c 0,3,4
 329 -14 329 -14 270 8 c 0,5,6
 165 46 165 46 99.5 133.5 c 128,-1,7
 34 221 34 221 34 330 c 0,8,9
 34 412 34 412 67.5 485.5 c 128,-1,10
 101 559 101 559 164 606 c 0,11,12
 264 680 264 680 414 680 c 0,13,14
 513 680 513 680 580 668 c 1,15,-1
 588 526 l 1,16,17
 501 580 501 580 408 580 c 0,18,19
 339 580 339 580 290 528 c 0,20,21
 238 468 238 468 238 352 c 0,22,23
 238 204 238 204 322 136 c 0,24,25
 382 92 382 92 454 92 c 0,26,27
 549 92 549 92 678 160 c 1,0,-1
EndSplineSet
Validated: 1
EndChar

StartChar: D
Encoding: 68 68 39
Width: 722
GlyphClass: 2
Flags: W
LayerCount: 2
Fore
SplineSet
686 330 m 0,0,1
 686 237 686 237 639 154.5 c 128,-1,2
 592 72 592 72 510 34 c 0,3,4
 440 0 440 0 298 0 c 2,5,-1
 34 0 l 1,6,7
 62 20 62 20 70 47.5 c 128,-1,8
 78 75 78 75 78 118 c 2,9,-1
 78 542 l 2,10,11
 78 572 78 572 76 590 c 128,-1,12
 74 608 74 608 64 630.5 c 128,-1,13
 54 653 54 653 34 668 c 1,14,-1
 262 668 l 2,15,16
 324 668 324 668 358 666.5 c 128,-1,17
 392 665 392 665 443 653.5 c 128,-1,18
 494 642 494 642 532 620 c 0,19,20
 605 576 605 576 645.5 497.5 c 128,-1,21
 686 419 686 419 686 330 c 0,0,1
490 338 m 0,22,23
 490 422 490 422 456 484 c 0,24,25
 437 520 437 520 405 543 c 128,-1,26
 373 566 373 566 334 566 c 0,27,28
 294 566 294 566 262 558 c 1,29,-1
 262 112 l 1,30,31
 286 104 286 104 320 104 c 0,32,33
 406 104 406 104 448 164 c 0,34,35
 490 228 490 228 490 338 c 0,22,23
EndSplineSet
Validated: 1
EndChar

StartChar: E
Encoding: 69 69 40
Width: 522
GlyphClass: 2
Flags: W
LayerCount: 2
Fore
SplineSet
518 154 m 1,0,-1
 482 0 l 1,1,-1
 34 0 l 1,2,3
 62 20 62 20 70 47.5 c 128,-1,4
 78 75 78 75 78 120 c 2,5,-1
 78 546 l 2,6,7
 78 575 78 575 76 592.5 c 128,-1,8
 74 610 74 610 64 632 c 128,-1,9
 54 654 54 654 34 668 c 1,10,-1
 398 668 l 2,11,12
 422 668 422 668 434 672 c 1,13,-1
 434 526 l 1,14,15
 401 568 401 568 326 568 c 2,16,-1
 262 568 l 1,17,-1
 262 404 l 1,18,-1
 368 404 l 2,19,20
 386 404 386 404 398 410 c 1,21,-1
 398 268 l 1,22,23
 378 306 378 306 322 306 c 2,24,-1
 262 306 l 1,25,-1
 262 112 l 1,26,27
 302 98 302 98 368 98 c 0,28,29
 469 98 469 98 518 154 c 1,0,-1
EndSplineSet
Validated: 1
EndChar

StartChar: F
Encoding: 70 70 41
Width: 450
GlyphClass: 2
Flags: W
LayerCount: 2
Fore
SplineSet
434 526 m 1,0,1
 401 568 401 568 326 568 c 2,2,-1
 262 568 l 1,3,-1
 262 404 l 1,4,-1
 348 404 l 2,5,6
 366 404 366 404 378 410 c 1,7,-1
 378 268 l 1,8,9
 358 306 358 306 302 306 c 2,10,-1
 262 306 l 1,11,-1
 262 136 l 2,12,13
 262 76 262 76 274 50 c 0,14,15
 285 23 285 23 308 0 c 1,16,-1
 34 0 l 1,17,18
 62 20 62 20 70 47.5 c 128,-1,19
 78 75 78 75 78 120 c 2,20,-1
 78 546 l 2,21,22
 78 575 78 575 76 592.5 c 128,-1,23
 74 610 74 610 64 632 c 128,-1,24
 54 654 54 654 34 668 c 1,25,-1
 398 668 l 2,26,27
 422 668 422 668 434 672 c 1,28,-1
 434 526 l 1,0,1
EndSplineSet
Validated: 1
EndChar

StartChar: G
Encoding: 71 71 42
Width: 690
GlyphClass: 2
Flags: W
LayerCount: 2
Fore
SplineSet
630 18 m 1,0,1
 524 -14 524 -14 422 -14 c 0,2,3
 235 -14 235 -14 130 88 c 0,4,5
 34 181 34 181 34 318 c 0,6,7
 34 486 34 486 138 582 c 0,8,9
 245 680 245 680 400 680 c 0,10,11
 500 680 500 680 568 660 c 1,12,-1
 568 522 l 1,13,14
 499 574 499 574 402 574 c 0,15,16
 318 574 318 574 271 514 c 128,-1,17
 224 454 224 454 224 366 c 0,18,19
 224 325 224 325 230.5 285.5 c 128,-1,20
 237 246 237 246 251.5 206.5 c 128,-1,21
 266 167 266 167 295 138 c 128,-1,22
 324 109 324 109 364 98 c 0,23,24
 396 90 396 90 414 90 c 0,25,26
 420 90 420 90 456 96 c 1,27,-1
 456 258 l 2,28,29
 456 311 456 311 418 346 c 1,30,-1
 630 346 l 1,31,-1
 630 18 l 1,0,1
EndSplineSet
Validated: 1
EndChar

StartChar: H
Encoding: 72 72 43
Width: 710
GlyphClass: 2
Flags: W
LayerCount: 2
Fore
SplineSet
672 0 m 1,0,-1
 402 0 l 1,1,2
 429 20 429 20 436.5 47.5 c 128,-1,3
 444 75 444 75 444 120 c 2,4,-1
 444 304 l 1,5,-1
 262 304 l 1,6,-1
 262 134 l 2,7,8
 262 132 262 132 261 127 c 128,-1,9
 260 122 260 122 260 120 c 0,10,11
 260 77 260 77 268.5 48.5 c 128,-1,12
 277 20 277 20 304 0 c 1,13,-1
 34 0 l 1,14,15
 62 20 62 20 70 47.5 c 128,-1,16
 78 75 78 75 78 120 c 2,17,-1
 78 546 l 2,18,19
 78 575 78 575 76 592.5 c 128,-1,20
 74 610 74 610 64 632 c 128,-1,21
 54 654 54 654 34 668 c 1,22,-1
 304 668 l 1,23,24
 260 633 260 633 260 546 c 0,25,26
 260 544 260 544 261 540 c 128,-1,27
 262 536 262 536 262 534 c 2,28,-1
 262 408 l 1,29,-1
 444 408 l 1,30,-1
 444 546 l 2,31,32
 444 575 444 575 442 592.5 c 128,-1,33
 440 610 440 610 430.5 632 c 128,-1,34
 421 654 421 654 402 668 c 1,35,-1
 672 668 l 1,36,37
 628 633 628 633 628 556 c 0,38,39
 628 553 628 553 629 545 c 128,-1,40
 630 537 630 537 630 534 c 2,41,-1
 630 134 l 2,42,43
 630 131 630 131 629 122 c 128,-1,44
 628 113 628 113 628 110 c 0,45,46
 628 32 628 32 672 0 c 1,0,-1
EndSplineSet
Validated: 1
EndChar

StartChar: I
Encoding: 73 73 44
Width: 346
GlyphClass: 2
Flags: W
LayerCount: 2
Fore
SplineSet
304 0 m 1,0,-1
 34 0 l 1,1,2
 62 20 62 20 70 47.5 c 128,-1,3
 78 75 78 75 78 120 c 2,4,-1
 78 546 l 2,5,6
 78 575 78 575 76 592.5 c 128,-1,7
 74 610 74 610 64 632 c 128,-1,8
 54 654 54 654 34 668 c 1,9,-1
 304 668 l 1,10,11
 260 633 260 633 260 546 c 0,12,13
 260 544 260 544 261 540 c 128,-1,14
 262 536 262 536 262 534 c 2,15,-1
 262 134 l 2,16,17
 262 132 262 132 261 127 c 128,-1,18
 260 122 260 122 260 120 c 0,19,20
 260 77 260 77 268.5 48.5 c 128,-1,21
 277 20 277 20 304 0 c 1,0,-1
EndSplineSet
Validated: 1
EndChar

StartChar: J
Encoding: 74 74 45
Width: 346
GlyphClass: 2
Flags: W
LayerCount: 2
Fore
SplineSet
310 668 m 1,0,1
 266 636 266 636 266 556 c 0,2,3
 266 553 266 553 267 545 c 128,-1,4
 268 537 268 537 268 534 c 2,5,-1
 268 16 l 2,6,7
 268 -44 268 -44 247 -81.5 c 128,-1,8
 226 -119 226 -119 174 -150 c 0,9,10
 82 -207 82 -207 2 -212 c 1,11,12
 34 -171 34 -171 56 -118 c 0,13,14
 82 -56 82 -56 82 68 c 2,15,-1
 82 546 l 2,16,17
 82 575 82 575 80 592.5 c 128,-1,18
 78 610 78 610 68.5 632 c 128,-1,19
 59 654 59 654 40 668 c 1,20,-1
 310 668 l 1,0,1
EndSplineSet
Validated: 1
EndChar

StartChar: K
Encoding: 75 75 46
Width: 690
GlyphClass: 2
Flags: W
LayerCount: 2
Fore
SplineSet
684 0 m 1,0,1
 668 -2 668 -2 636 -2 c 2,2,-1
 590 -4 l 1,3,-1
 544 -4 l 2,4,5
 477 -4 477 -4 444 19 c 128,-1,6
 411 42 411 42 374 106 c 2,7,-1
 262 296 l 1,8,-1
 262 134 l 2,9,10
 262 132 262 132 261 127 c 128,-1,11
 260 122 260 122 260 120 c 0,12,13
 260 77 260 77 268.5 48.5 c 128,-1,14
 277 20 277 20 304 0 c 1,15,-1
 34 0 l 1,16,17
 62 20 62 20 70 47.5 c 128,-1,18
 78 75 78 75 78 120 c 2,19,-1
 78 546 l 2,20,21
 78 575 78 575 76 592.5 c 128,-1,22
 74 610 74 610 64 632 c 128,-1,23
 54 654 54 654 34 668 c 1,24,-1
 304 668 l 1,25,26
 260 633 260 633 260 546 c 0,27,28
 260 544 260 544 261 540 c 128,-1,29
 262 536 262 536 262 534 c 2,30,-1
 262 368 l 1,31,-1
 404 548 l 2,32,33
 436 589 436 589 436 610 c 0,34,35
 436 639 436 639 394 668 c 1,36,-1
 644 668 l 1,37,-1
 420 396 l 1,38,-1
 632 62 l 2,39,40
 651 30 651 30 684 0 c 1,0,1
EndSplineSet
Validated: 1
EndChar

StartChar: L
Encoding: 76 76 47
Width: 522
GlyphClass: 2
Flags: W
LayerCount: 2
Fore
SplineSet
514 142 m 1,0,-1
 476 0 l 1,1,-1
 34 0 l 1,2,3
 62 20 62 20 70 47.5 c 128,-1,4
 78 75 78 75 78 120 c 2,5,-1
 78 546 l 2,6,7
 78 575 78 575 76 592.5 c 128,-1,8
 74 610 74 610 64 632 c 128,-1,9
 54 654 54 654 34 668 c 1,10,-1
 304 668 l 1,11,12
 260 633 260 633 260 546 c 0,13,14
 260 544 260 544 261 540 c 128,-1,15
 262 536 262 536 262 534 c 2,16,-1
 262 114 l 1,17,18
 305 98 305 98 364 98 c 0,19,20
 452 98 452 98 514 142 c 1,0,-1
EndSplineSet
Validated: 1
EndChar

StartChar: M
Encoding: 77 77 48
Width: 910
GlyphClass: 2
Flags: W
LayerCount: 2
Fore
SplineSet
890 0 m 1,0,-1
 624 0 l 1,1,2
 654 37 654 37 656 68 c 0,3,4
 656 84 656 84 652 120 c 2,5,-1
 616 430 l 1,6,-1
 484 -12 l 1,7,8
 447 -3 447 -3 388 36 c 0,9,10
 380 41 380 41 373 47.5 c 128,-1,11
 366 54 366 54 361 59 c 128,-1,12
 356 64 356 64 350 73 c 128,-1,13
 344 82 344 82 341.5 86 c 128,-1,14
 339 90 339 90 333.5 101.5 c 128,-1,15
 328 113 328 113 327 116 c 128,-1,16
 326 119 326 119 320.5 133.5 c 128,-1,17
 315 148 315 148 314 150 c 2,18,-1
 206 430 l 1,19,-1
 176 134 l 2,20,21
 176 126 176 126 173 107 c 128,-1,22
 170 88 170 88 170 80 c 0,23,24
 170 79 170 79 171 75 c 128,-1,25
 172 71 172 71 172 70 c 0,26,27
 178 25 178 25 216 0 c 1,28,-1
 18 0 l 1,29,30
 45 29 45 29 54 56 c 128,-1,31
 63 83 63 83 68 134 c 2,32,-1
 114 522 l 2,33,34
 118 546 118 546 118 584 c 0,35,36
 118 630 118 630 80 668 c 1,37,-1
 314 668 l 1,38,-1
 464 276 l 1,39,-1
 580 668 l 1,40,-1
 824 668 l 1,41,42
 801 645 801 645 793.5 629.5 c 128,-1,43
 786 614 786 614 786 584 c 2,44,-1
 792 522 l 1,45,-1
 836 144 l 2,46,47
 847 45 847 45 890 0 c 1,0,-1
EndSplineSet
Validated: 1
EndChar

StartChar: N
Encoding: 78 78 49
Width: 732
GlyphClass: 2
Flags: W
LayerCount: 2
Fore
SplineSet
690 668 m 1,0,1
 644 620 644 620 644 532 c 2,2,-1
 644 -22 l 1,3,4
 622 -22 622 -22 582 -6 c 0,5,6
 507 24 507 24 468 56 c 0,7,8
 453 67 453 67 440 80.5 c 128,-1,9
 427 94 427 94 408.5 118.5 c 128,-1,10
 390 143 390 143 386 148 c 2,11,-1
 180 416 l 1,12,-1
 180 136 l 2,13,14
 180 80 180 80 194 50 c 0,15,16
 206 20 206 20 226 0 c 1,17,-1
 32 0 l 1,18,19
 58 28 58 28 67 59 c 128,-1,20
 76 90 76 90 76 136 c 2,21,-1
 76 530 l 2,22,23
 76 572 76 572 66 594 c 0,24,25
 46 637 46 637 18 668 c 1,26,-1
 230 668 l 1,27,-1
 540 258 l 1,28,-1
 540 532 l 2,29,30
 540 592 540 592 528 618 c 0,31,32
 516 645 516 645 496 668 c 1,33,-1
 690 668 l 1,0,1
EndSplineSet
Validated: 1
EndChar

StartChar: O
Encoding: 79 79 50
Width: 826
GlyphClass: 2
Flags: W
LayerCount: 2
Fore
SplineSet
784 336 m 0,0,1
 784 250 784 250 752 182 c 128,-1,2
 720 114 720 114 665.5 72 c 128,-1,3
 611 30 611 30 542 8 c 128,-1,4
 473 -14 473 -14 396 -14 c 0,5,6
 240 -14 240 -14 137 83 c 128,-1,7
 34 180 34 180 34 334 c 0,8,9
 34 487 34 487 143.5 583.5 c 128,-1,10
 253 680 253 680 408 680 c 0,11,12
 503 680 503 680 576.5 652 c 128,-1,13
 650 624 650 624 694.5 576 c 128,-1,14
 739 528 739 528 761.5 467 c 128,-1,15
 784 406 784 406 784 336 c 0,0,1
592 296 m 0,16,17
 592 339 592 339 582.5 384 c 128,-1,18
 573 429 573 429 553 474.5 c 128,-1,19
 533 520 533 520 494.5 549 c 128,-1,20
 456 578 456 578 404 578 c 0,21,22
 336 578 336 578 283 525 c 128,-1,23
 230 472 230 472 230 364 c 0,24,25
 230 235 230 235 284.5 163.5 c 128,-1,26
 339 92 339 92 420 92 c 0,27,28
 465 92 465 92 500 112 c 128,-1,29
 535 132 535 132 554 163.5 c 128,-1,30
 573 195 573 195 582.5 229 c 128,-1,31
 592 263 592 263 592 296 c 0,16,17
EndSplineSet
Validated: 1
EndChar

StartChar: P
Encoding: 80 80 51
Width: 586
GlyphClass: 2
Flags: W
LayerCount: 2
Fore
SplineSet
554 484 m 0,0,1
 554 414 554 414 515.5 367 c 128,-1,2
 477 320 477 320 421.5 302 c 128,-1,3
 366 284 366 284 296 284 c 0,4,5
 288 284 288 284 268 288 c 1,6,7
 318 311 318 311 336 340 c 0,8,9
 366 381 366 381 366 440 c 0,10,11
 366 513 366 513 328 546 c 0,12,13
 312 559 312 559 262 568 c 1,14,-1
 262 136 l 2,15,16
 262 76 262 76 274 50 c 0,17,18
 285 23 285 23 308 0 c 1,19,-1
 34 0 l 1,20,21
 62 20 62 20 70 47.5 c 128,-1,22
 78 75 78 75 78 120 c 2,23,-1
 78 546 l 2,24,25
 78 575 78 575 76 592.5 c 128,-1,26
 74 610 74 610 64 632 c 128,-1,27
 54 654 54 654 34 668 c 1,28,-1
 288 668 l 2,29,30
 334 668 334 668 359.5 666.5 c 128,-1,31
 385 665 385 665 422.5 655.5 c 128,-1,32
 460 646 460 646 486 626 c 0,33,34
 554 573 554 573 554 484 c 0,0,1
EndSplineSet
Validated: 1
EndChar

StartChar: Q
Encoding: 81 81 52
Width: 784
GlyphClass: 2
Flags: W
LayerCount: 2
Fore
SplineSet
876 -102 m 1,0,1
 844 -131 844 -131 796.5 -150.5 c 128,-1,2
 749 -170 749 -170 706 -170 c 2,3,-1
 696 -170 l 2,4,5
 637 -168 637 -168 560 -116 c 0,6,7
 494 -73 494 -73 432 -14 c 1,8,9
 396 -20 396 -20 364 -20 c 0,10,11
 306 -20 306 -20 249 3 c 128,-1,12
 192 26 192 26 143 68.5 c 128,-1,13
 94 111 94 111 64 180 c 128,-1,14
 34 249 34 249 34 332 c 0,15,16
 34 486 34 486 132 585 c 128,-1,17
 230 684 230 684 384 684 c 0,18,19
 549 684 549 684 644.5 589 c 128,-1,20
 740 494 740 494 740 340 c 0,21,22
 740 171 740 171 612 60 c 1,23,24
 683 -18 683 -18 760 -66 c 0,25,26
 814 -96 814 -96 876 -102 c 1,0,1
544 296 m 0,27,28
 544 330 544 330 537 373 c 128,-1,29
 530 416 530 416 513 467 c 128,-1,30
 496 518 496 518 460 552 c 128,-1,31
 424 586 424 586 374 586 c 0,32,33
 304 586 304 586 266 530.5 c 128,-1,34
 228 475 228 475 228 402 c 0,35,36
 228 345 228 345 236 294 c 128,-1,37
 244 243 244 243 262.5 193 c 128,-1,38
 281 143 281 143 317 113.5 c 128,-1,39
 353 84 353 84 404 84 c 0,40,41
 456 84 456 84 489 118 c 128,-1,42
 522 152 522 152 533 196.5 c 128,-1,43
 544 241 544 241 544 296 c 0,27,28
EndSplineSet
Validated: 1
EndChar

StartChar: R
Encoding: 82 82 53
Width: 658
GlyphClass: 2
Flags: W
LayerCount: 2
Fore
SplineSet
656 6 m 1,0,1
 544 -2 544 -2 518 -2 c 0,2,3
 471 -2 471 -2 450 4 c 0,4,5
 439 8 439 8 429.5 13.5 c 128,-1,6
 420 19 420 19 410.5 28.5 c 128,-1,7
 401 38 401 38 395 43.5 c 128,-1,8
 389 49 389 49 379.5 63.5 c 128,-1,9
 370 78 370 78 367.5 81.5 c 128,-1,10
 365 85 365 85 354.5 103 c 128,-1,11
 344 121 344 121 344 122 c 0,12,13
 293 214 293 214 262 286 c 1,14,-1
 262 134 l 2,15,16
 262 132 262 132 261 127 c 128,-1,17
 260 122 260 122 260 120 c 0,18,19
 260 77 260 77 268.5 48.5 c 128,-1,20
 277 20 277 20 304 0 c 1,21,-1
 34 0 l 1,22,23
 62 20 62 20 70 47.5 c 128,-1,24
 78 75 78 75 78 120 c 2,25,-1
 78 546 l 2,26,27
 78 575 78 575 76 592.5 c 128,-1,28
 74 610 74 610 64 632 c 128,-1,29
 54 654 54 654 34 668 c 1,30,-1
 316 668 l 2,31,32
 416 668 416 668 462 646 c 0,33,34
 505 624 505 624 531.5 584.5 c 128,-1,35
 558 545 558 545 558 498 c 0,36,37
 558 385 558 385 438 330 c 1,38,39
 464 276 464 276 528 176 c 0,40,41
 594 67 594 67 622 38 c 0,42,43
 632 26 632 26 656 6 c 1,0,1
372 472 m 0,44,45
 372 492 372 492 365 511.5 c 128,-1,46
 358 531 358 531 333.5 549.5 c 128,-1,47
 309 568 309 568 270 568 c 2,48,-1
 262 568 l 1,49,-1
 262 340 l 1,50,51
 312 351 312 351 342 385.5 c 128,-1,52
 372 420 372 420 372 472 c 0,44,45
EndSplineSet
Validated: 1
EndChar

StartChar: S
Encoding: 83 83 54
Width: 554
GlyphClass: 2
Flags: W
LayerCount: 2
Fore
SplineSet
528 198 m 0,0,1
 528 151 528 151 506.5 109 c 128,-1,2
 485 67 485 67 448 40 c 0,3,4
 373 -14 373 -14 250 -14 c 0,5,6
 155 -14 155 -14 54 24 c 1,7,-1
 20 168 l 1,8,9
 119 92 119 92 234 92 c 0,10,11
 277 92 277 92 309.5 108 c 128,-1,12
 342 124 342 124 342 162 c 0,13,14
 342 174 342 174 339 184.5 c 128,-1,15
 336 195 336 195 327.5 204.5 c 128,-1,16
 319 214 319 214 313.5 220 c 128,-1,17
 308 226 308 226 293.5 234 c 128,-1,18
 279 242 279 242 274.5 244.5 c 128,-1,19
 270 247 270 247 252.5 255 c 128,-1,20
 235 263 235 263 234 264 c 0,21,22
 228 267 228 267 213 274 c 128,-1,23
 198 281 198 281 190.5 284.5 c 128,-1,24
 183 288 183 288 170 295 c 128,-1,25
 157 302 157 302 148.5 307 c 128,-1,26
 140 312 140 312 129 319 c 128,-1,27
 118 326 118 326 108.5 333 c 128,-1,28
 99 340 99 340 90 348 c 0,29,30
 32 400 32 400 32 480 c 0,31,32
 32 573 32 573 101 626.5 c 128,-1,33
 170 680 170 680 266 680 c 0,34,35
 378 680 378 680 454 652 c 1,36,-1
 454 534 l 1,37,38
 376 580 376 580 306 580 c 0,39,40
 274 580 274 580 248 563.5 c 128,-1,41
 222 547 222 547 222 516 c 0,42,43
 222 506 222 506 225 497 c 128,-1,44
 228 488 228 488 235 480 c 128,-1,45
 242 472 242 472 248 467 c 128,-1,46
 254 462 254 462 266 456 c 128,-1,47
 278 450 278 450 283.5 447 c 128,-1,48
 289 444 289 444 303 438.5 c 128,-1,49
 317 433 317 433 320 432 c 0,50,51
 326 429 326 429 341 422 c 128,-1,52
 356 415 356 415 363.5 411.5 c 128,-1,53
 371 408 371 408 384 401 c 128,-1,54
 397 394 397 394 405.5 389 c 128,-1,55
 414 384 414 384 425 377 c 128,-1,56
 436 370 436 370 445.5 363 c 128,-1,57
 455 356 455 356 464 348 c 0,58,59
 528 284 528 284 528 198 c 0,0,1
EndSplineSet
Validated: 1
EndChar

StartChar: T
Encoding: 84 84 55
Width: 534
GlyphClass: 2
Flags: W
LayerCount: 2
Fore
SplineSet
524 672 m 1,0,-1
 490 514 l 1,1,2
 466 560 466 560 410 560 c 0,3,4
 376 560 376 560 352 552 c 1,5,-1
 352 136 l 2,6,7
 352 81 352 81 364 50 c 0,8,9
 380 18 380 18 398 0 c 1,10,-1
 124 0 l 1,11,12
 152 20 152 20 160 47.5 c 128,-1,13
 168 75 168 75 168 120 c 2,14,-1
 168 552 l 1,15,16
 148 556 148 556 134 556 c 2,17,-1
 112 556 l 2,18,19
 54 556 54 556 8 522 c 1,20,-1
 -6 514 l 1,21,-1
 34 670 l 1,22,23
 42 670 42 670 58.5 669 c 128,-1,24
 75 668 75 668 84 668 c 2,25,-1
 446 668 l 2,26,27
 498 668 498 668 524 672 c 1,0,-1
EndSplineSet
Validated: 1
EndChar

StartChar: U
Encoding: 85 85 56
Width: 710
GlyphClass: 2
Flags: W
LayerCount: 2
Fore
SplineSet
674 0 m 1,0,-1
 454 0 l 1,1,-1
 454 82 l 1,2,3
 372 -14 372 -14 272 -14 c 0,4,5
 184 -14 184 -14 128 42 c 0,6,7
 74 91 74 91 74 190 c 2,8,-1
 74 546 l 2,9,10
 74 591 74 591 66.5 619.5 c 128,-1,11
 59 648 59 648 32 668 c 1,12,-1
 302 668 l 1,13,14
 258 636 258 636 258 556 c 0,15,16
 258 553 258 553 259 545 c 128,-1,17
 260 537 260 537 260 534 c 2,18,-1
 260 234 l 2,19,20
 260 160 260 160 284 130 c 0,21,22
 308 102 308 102 344 102 c 0,23,24
 446 102 446 102 446 268 c 2,25,-1
 446 546 l 2,26,27
 446 591 446 591 438.5 619.5 c 128,-1,28
 431 648 431 648 404 668 c 1,29,-1
 674 668 l 1,30,31
 630 636 630 636 630 556 c 0,32,33
 630 553 630 553 631 545 c 128,-1,34
 632 537 632 537 632 534 c 2,35,-1
 632 134 l 2,36,37
 632 131 632 131 631 122 c 128,-1,38
 630 113 630 113 630 110 c 0,39,40
 630 35 630 35 674 0 c 1,0,-1
EndSplineSet
Validated: 1
EndChar

StartChar: V
Encoding: 86 86 57
Width: 701
GlyphClass: 2
Flags: W
LayerCount: 2
Fore
SplineSet
678 668 m 1,0,-1
 444 -20 l 1,1,2
 348 9 348 9 310 34 c 0,3,4
 253 68 253 68 226 140 c 2,5,-1
 64 588 l 2,6,7
 52 624 52 624 18 668 c 1,8,-1
 246 668 l 1,9,-1
 246 660 l 2,10,11
 246 645 246 645 250 628 c 128,-1,12
 254 611 254 611 263 587 c 128,-1,13
 272 563 272 563 274 556 c 2,14,-1
 406 172 l 1,15,-1
 530 550 l 2,16,17
 540 577 540 577 540 600 c 0,18,19
 540 632 540 632 496 668 c 1,20,-1
 678 668 l 1,0,-1
EndSplineSet
Validated: 1
EndChar

StartChar: W
Encoding: 87 87 58
Width: 1002
GlyphClass: 2
Flags: W
LayerCount: 2
Fore
SplineSet
976 668 m 1,0,-1
 768 -12 l 1,1,2
 725 -3 725 -3 664 30 c 0,3,4
 604 64 604 64 582 136 c 2,5,-1
 504 392 l 1,6,-1
 400 -12 l 1,7,8
 346 -4 346 -4 288 30 c 0,9,10
 250 54 250 54 231.5 83.5 c 128,-1,11
 213 113 213 113 198 162 c 2,12,-1
 90 536 l 1,13,-1
 80 572 l 2,14,15
 63 623 63 623 18 668 c 1,16,-1
 238 668 l 1,17,-1
 364 206 l 1,18,-1
 438 496 l 2,19,20
 450 550 450 550 450 558 c 2,21,-1
 450 566 l 2,22,23
 448 587 448 587 436 622 c 0,24,25
 425 647 425 647 404 668 c 1,26,-1
 618 668 l 1,27,28
 614 660 614 660 614 652 c 0,29,30
 614 651 614 651 613 647 c 128,-1,31
 612 643 612 643 612 642 c 0,32,33
 612 627 612 627 628 568 c 2,34,-1
 646 506 l 1,35,-1
 738 206 l 1,36,-1
 826 518 l 2,37,38
 840 574 840 574 840 590 c 0,39,40
 840 626 840 626 806 668 c 1,41,-1
 976 668 l 1,0,-1
EndSplineSet
Validated: 1
EndChar

StartChar: X
Encoding: 88 88 59
Width: 690
GlyphClass: 2
Flags: W
LayerCount: 2
Fore
SplineSet
682 0 m 1,0,-1
 444 0 l 1,1,-1
 298 260 l 1,2,-1
 208 116 l 2,3,4
 192 88 192 88 192 68 c 0,5,6
 192 32 192 32 224 0 c 1,7,-1
 0 0 l 1,8,-1
 240 348 l 1,9,-1
 106 578 l 2,10,11
 78 624 78 624 66 638 c 0,12,13
 56 648 56 648 32 668 c 1,14,-1
 270 668 l 1,15,-1
 386 452 l 1,16,-1
 444 540 l 2,17,18
 469 578 469 578 472 606 c 0,19,20
 472 644 472 644 434 668 c 1,21,-1
 656 668 l 1,22,-1
 444 362 l 1,23,-1
 578 138 l 2,24,25
 643 33 643 33 682 0 c 1,0,-1
EndSplineSet
Validated: 1
EndChar

StartChar: Y
Encoding: 89 89 60
Width: 638
GlyphClass: 2
Flags: W
LayerCount: 2
Fore
SplineSet
602 668 m 1,0,-1
 420 302 l 1,1,-1
 420 136 l 2,2,3
 420 80 420 80 434 50 c 0,4,5
 446 20 446 20 466 0 c 1,6,-1
 194 0 l 1,7,8
 221 20 221 20 228.5 47.5 c 128,-1,9
 236 75 236 75 236 120 c 2,10,-1
 236 302 l 1,11,-1
 74 602 l 2,12,13
 58 637 58 637 20 668 c 1,14,-1
 254 668 l 1,15,-1
 372 424 l 1,16,-1
 434 552 l 2,17,18
 452 584 452 584 452 614 c 0,19,20
 452 643 452 643 420 668 c 1,21,-1
 602 668 l 1,0,-1
EndSplineSet
Validated: 1
EndChar

StartChar: Z
Encoding: 90 90 61
Width: 616
GlyphClass: 2
Flags: W
LayerCount: 2
Fore
SplineSet
608 160 m 1,0,-1
 552 0 l 1,1,-1
 8 0 l 1,2,-1
 310 568 l 1,3,4
 280 572 280 572 218 572 c 0,5,6
 150 572 150 572 54 524 c 1,7,-1
 106 668 l 1,8,-1
 572 668 l 1,9,-1
 272 106 l 1,10,11
 323 98 323 98 388 98 c 0,12,13
 477 98 477 98 524 118 c 0,14,15
 569 136 569 136 608 160 c 1,0,-1
EndSplineSet
Validated: 1
EndChar

StartChar: bracketleft
Encoding: 91 91 62
Width: 356
GlyphClass: 2
Flags: W
LayerCount: 2
Fore
SplineSet
304 -158 m 1,0,-1
 60 -158 l 1,1,2
 82 -136 82 -136 88 -111 c 128,-1,3
 94 -86 94 -86 94 -46 c 2,4,-1
 94 560 l 2,5,6
 94 638 94 638 60 668 c 1,7,-1
 304 668 l 1,8,-1
 304 602 l 1,9,-1
 224 602 l 1,10,-1
 224 -90 l 1,11,-1
 304 -90 l 1,12,-1
 304 -158 l 1,0,-1
EndSplineSet
Validated: 1
EndChar

StartChar: backslash
Encoding: 92 92 63
Width: 408
GlyphClass: 2
Flags: W
LayerCount: 2
Fore
SplineSet
422 -158 m 1,0,-1
 300 -158 l 1,1,-1
 -26 666 l 1,2,-1
 94 666 l 1,3,-1
 422 -158 l 1,0,-1
EndSplineSet
Validated: 1
EndChar

StartChar: bracketright
Encoding: 93 93 64
Width: 356
GlyphClass: 2
Flags: W
LayerCount: 2
Fore
SplineSet
292 -158 m 1,0,-1
 48 -158 l 1,1,-1
 48 -90 l 1,2,-1
 128 -90 l 1,3,-1
 128 602 l 1,4,-1
 48 602 l 1,5,-1
 48 668 l 1,6,-1
 292 668 l 1,7,8
 258 638 258 638 258 560 c 2,9,-1
 258 -46 l 2,10,11
 258 -86 258 -86 264 -111 c 128,-1,12
 270 -136 270 -136 292 -158 c 1,0,-1
EndSplineSet
Validated: 1
EndChar

StartChar: asciicircum
Encoding: 94 94 65
Width: 448
GlyphClass: 2
Flags: W
LayerCount: 2
Fore
SplineSet
427 368 m 1,0,-1
 320 368 l 1,1,-1
 220 547 l 1,2,-1
 120 368 l 1,3,-1
 15 368 l 1,4,-1
 164 644 l 1,5,-1
 278 644 l 1,6,-1
 427 368 l 1,0,-1
EndSplineSet
Validated: 1
EndChar

StartChar: underscore
Encoding: 95 95 66
Width: 469
GlyphClass: 2
Flags: W
LayerCount: 2
Fore
SplineSet
486 -160 m 1,0,-1
 -14 -160 l 1,1,-1
 -14 -48 l 1,2,-1
 486 -48 l 1,3,-1
 486 -160 l 1,0,-1
EndSplineSet
Validated: 1
EndChar

StartChar: grave
Encoding: 96 96 67
Width: 502
GlyphClass: 2
Flags: W
LayerCount: 2
Fore
SplineSet
386 556 m 1,0,-1
 326 520 l 1,1,-1
 90 610 l 1,2,-1
 140 696 l 1,3,-1
 386 556 l 1,0,-1
EndSplineSet
Validated: 1
EndChar

StartChar: a
Encoding: 97 97 68
Width: 564
GlyphClass: 2
Flags: W
LayerCount: 2
Fore
SplineSet
570 78 m 1,0,-1
 528 -10 l 1,1,2
 500 -14 500 -14 484 -14 c 0,3,4
 411 -14 411 -14 362 26 c 0,5,6
 308 67 308 67 308 152 c 2,7,-1
 308 218 l 1,8,9
 307 217 307 217 293.5 211.5 c 128,-1,10
 280 206 280 206 275.5 204 c 128,-1,11
 271 202 271 202 259.5 196 c 128,-1,12
 248 190 248 190 243 185.5 c 128,-1,13
 238 181 238 181 231 174 c 128,-1,14
 224 167 224 167 221 159.5 c 128,-1,15
 218 152 218 152 218 144 c 0,16,17
 218 119 218 119 235 97.5 c 128,-1,18
 252 76 252 76 276 76 c 0,19,20
 280 76 280 76 287 77 c 128,-1,21
 294 78 294 78 298 78 c 1,22,-1
 254 -10 l 1,23,24
 214 -14 214 -14 194 -14 c 0,25,26
 172 -14 172 -14 147.5 -8 c 128,-1,27
 123 -2 123 -2 94.5 12 c 128,-1,28
 66 26 66 26 47 57.5 c 128,-1,29
 28 89 28 89 28 132 c 0,30,31
 28 185 28 185 60 220 c 0,32,33
 73 234 73 234 88 244 c 128,-1,34
 103 254 103 254 125.5 261.5 c 128,-1,35
 148 269 148 269 158.5 272.5 c 128,-1,36
 169 276 169 276 199 282.5 c 128,-1,37
 229 289 229 289 234 290 c 0,38,39
 306 308 306 308 306 342 c 0,40,41
 306 360 306 360 287 372 c 128,-1,42
 268 384 268 384 248 384 c 0,43,44
 176 384 176 384 114 350 c 1,45,-1
 160 466 l 1,46,47
 214 480 214 480 302 480 c 0,48,49
 486 480 486 480 486 298 c 2,50,-1
 486 192 l 2,51,52
 486 190 486 190 485 185 c 128,-1,53
 484 180 484 180 484 178 c 0,54,55
 484 115 484 115 516 94 c 0,56,57
 537 78 537 78 570 78 c 1,0,-1
EndSplineSet
Validated: 1
EndChar

StartChar: b
Encoding: 98 98 69
Width: 606
GlyphClass: 2
Flags: W
LayerCount: 2
Fore
SplineSet
576 240 m 0,0,1
 576 187 576 187 551 137.5 c 128,-1,2
 526 88 526 88 484 52 c 0,3,4
 403 -14 403 -14 258 -14 c 0,5,6
 210 -14 210 -14 114 -2 c 0,7,8
 61 6 61 6 34 16 c 1,9,10
 60 45 60 45 60 84 c 2,11,-1
 60 574 l 2,12,13
 60 608 60 608 53 627 c 128,-1,14
 46 646 46 646 24 666 c 1,15,-1
 174 666 l 2,16,17
 202 666 202 666 238 684 c 1,18,-1
 238 88 l 1,19,20
 250 84 250 84 276 84 c 0,21,22
 336 87 336 87 363 130.5 c 128,-1,23
 390 174 390 174 390 238 c 0,24,25
 390 304 390 304 358 345 c 128,-1,26
 326 386 326 386 262 390 c 1,27,-1
 310 474 l 1,28,29
 325 480 325 480 352 480 c 0,30,31
 451 480 451 480 513.5 413 c 128,-1,32
 576 346 576 346 576 240 c 0,0,1
EndSplineSet
Validated: 1
EndChar

StartChar: c
Encoding: 99 99 70
Width: 512
GlyphClass: 2
Flags: W
LayerCount: 2
Fore
SplineSet
496 136 m 1,0,-1
 464 26 l 1,1,2
 387 -14 387 -14 294 -14 c 0,3,4
 189 -14 189 -14 116 44 c 0,5,6
 74 76 74 76 52 126 c 128,-1,7
 30 176 30 176 30 232 c 0,8,9
 30 344 30 344 109 412 c 128,-1,10
 188 480 188 480 306 480 c 0,11,12
 369 480 369 480 420 472 c 2,13,-1
 434 470 l 1,14,-1
 434 354 l 1,15,16
 381 384 381 384 328 384 c 0,17,18
 226 384 226 384 226 246 c 0,19,20
 226 220 226 220 232 194 c 128,-1,21
 238 168 238 168 251.5 142 c 128,-1,22
 265 116 265 116 291 100 c 128,-1,23
 317 84 317 84 352 84 c 0,24,25
 428 84 428 84 496 136 c 1,0,-1
EndSplineSet
Validated: 1
EndChar

StartChar: d
Encoding: 100 100 71
Width: 606
GlyphClass: 2
Flags: W
LayerCount: 2
Fore
SplineSet
590 0 m 1,0,-1
 366 0 l 1,1,-1
 366 298 l 2,2,3
 366 336 366 336 354 352 c 0,4,5
 335 376 335 376 300 376 c 0,6,7
 275 376 275 376 258 361.5 c 128,-1,8
 241 347 241 347 233.5 323 c 128,-1,9
 226 299 226 299 223 277.5 c 128,-1,10
 220 256 220 256 220 232 c 0,11,12
 220 171 220 171 249 127.5 c 128,-1,13
 278 84 278 84 334 84 c 0,14,15
 335 84 335 84 338 85 c 128,-1,16
 341 86 341 86 342 86 c 1,17,-1
 294 -2 l 1,18,19
 280 -8 280 -8 250 -8 c 0,20,21
 155 -8 155 -8 92.5 64 c 128,-1,22
 30 136 30 136 30 232 c 0,23,24
 30 340 30 340 96 412 c 0,25,26
 161 480 161 480 250 480 c 0,27,28
 307 480 307 480 366 446 c 1,29,-1
 366 574 l 2,30,31
 366 605 366 605 359 624.5 c 128,-1,32
 352 644 352 644 332 666 c 1,33,-1
 480 666 l 2,34,35
 508 666 508 666 544 684 c 1,36,-1
 544 136 l 2,37,38
 544 76 544 76 556 50 c 0,39,40
 564 29 564 29 590 0 c 1,0,-1
EndSplineSet
Validated: 1
EndChar

StartChar: e
Encoding: 101 101 72
Width: 564
GlyphClass: 2
Flags: W
LayerCount: 2
Fore
SplineSet
524 134 m 1,0,-1
 486 18 l 1,1,2
 410 -14 410 -14 322 -14 c 0,3,4
 187 -14 187 -14 116 42 c 0,5,6
 76 73 76 73 53 122.5 c 128,-1,7
 30 172 30 172 30 224 c 0,8,9
 30 299 30 299 58 352 c 0,10,11
 90 416 90 416 150.5 448 c 128,-1,12
 211 480 211 480 286 480 c 0,13,14
 358 480 358 480 417.5 446 c 128,-1,15
 477 412 477 412 500 348 c 0,16,17
 512 309 512 309 520 232 c 1,18,-1
 206 232 l 1,19,20
 206 169 206 169 246.5 126.5 c 128,-1,21
 287 84 287 84 350 84 c 0,22,23
 420 84 420 84 524 134 c 1,0,-1
348 318 m 1,24,25
 344 392 344 392 286 392 c 0,26,27
 226 392 226 392 212 318 c 1,28,-1
 348 318 l 1,24,25
EndSplineSet
Validated: 1
EndChar

StartChar: f
Encoding: 102 102 73
Width: 366
GlyphClass: 2
Flags: W
LayerCount: 2
Fore
SplineSet
404 666 m 1,0,-1
 336 562 l 1,1,2
 314 584 314 584 292 584 c 0,3,4
 261 584 261 584 251.5 564 c 128,-1,5
 242 544 242 544 242 510 c 2,6,-1
 242 468 l 1,7,-1
 356 468 l 1,8,-1
 356 350 l 1,9,10
 331 370 331 370 296 370 c 2,11,-1
 242 370 l 1,12,-1
 242 94 l 2,13,14
 242 34 242 34 276 0 c 1,15,-1
 28 0 l 1,16,17
 49 21 49 21 55.5 40.5 c 128,-1,18
 62 60 62 60 62 94 c 2,19,-1
 62 370 l 1,20,-1
 -6 370 l 1,21,-1
 62 468 l 1,22,-1
 62 500 l 2,23,24
 62 590 62 590 124 632 c 0,25,26
 193 680 193 680 286 680 c 0,27,28
 360 680 360 680 404 666 c 1,0,-1
EndSplineSet
Validated: 1
EndChar

StartChar: g
Encoding: 103 103 74
Width: 554
GlyphClass: 2
Flags: W
LayerCount: 2
Fore
SplineSet
550 -38 m 0,0,1
 550 -88 550 -88 525 -123.5 c 128,-1,2
 500 -159 500 -159 458 -177 c 128,-1,3
 416 -195 416 -195 373.5 -202.5 c 128,-1,4
 331 -210 331 -210 284 -210 c 0,5,6
 16 -210 16 -210 16 -96 c 0,7,8
 16 -59 16 -59 44.5 -35 c 128,-1,9
 73 -11 73 -11 112 -8 c 0,10,11
 113 -8 113 -8 117 -7 c 128,-1,12
 121 -6 121 -6 122 -6 c 0,13,14
 158 -6 158 -6 198 -24 c 1,15,16
 158 -35 158 -35 158 -68 c 0,17,18
 158 -126 158 -126 260 -126 c 0,19,20
 298 -126 298 -126 329 -107.5 c 128,-1,21
 360 -89 360 -89 360 -54 c 0,22,23
 360 -17 360 -17 332 8 c 0,24,25
 312 26 312 26 260 26 c 1,26,27
 212 20 212 20 180 20 c 0,28,29
 147 20 147 20 122 52 c 0,30,31
 96 86 96 86 94 108 c 0,32,33
 94 124 94 124 110 128 c 2,34,-1
 162 148 l 1,35,36
 40 197 40 197 40 308 c 0,37,38
 40 387 40 387 106 433.5 c 128,-1,39
 172 480 172 480 254 480 c 0,40,41
 291 480 291 480 334 470 c 1,42,-1
 548 476 l 1,43,-1
 502 382 l 1,44,-1
 456 382 l 1,45,46
 494 341 494 341 494 290 c 0,47,48
 494 221 494 221 422 174 c 0,49,50
 373 140 373 140 280 132 c 1,51,52
 230 132 230 132 230 112 c 0,53,54
 230 98 230 98 244 98 c 2,55,-1
 262 98 l 1,56,57
 294 104 294 104 356 104 c 0,58,59
 399 104 399 104 440 93 c 128,-1,60
 481 82 481 82 515.5 48 c 128,-1,61
 550 14 550 14 550 -38 c 0,0,1
324 300 m 0,62,63
 324 335 324 335 308.5 363.5 c 128,-1,64
 293 392 293 392 262 392 c 0,65,66
 234 392 234 392 219 369 c 128,-1,67
 204 346 204 346 204 312 c 0,68,69
 204 282 204 282 218 252 c 128,-1,70
 232 222 232 222 264 222 c 0,71,72
 295 222 295 222 309.5 245 c 128,-1,73
 324 268 324 268 324 300 c 0,62,63
EndSplineSet
Validated: 1
EndChar

StartChar: h
Encoding: 104 104 75
Width: 596
GlyphClass: 2
Flags: W
LayerCount: 2
Fore
SplineSet
570 0 m 1,0,-1
 322 0 l 1,1,2
 344 22 344 22 351 41.5 c 128,-1,3
 358 61 358 61 358 94 c 2,4,-1
 358 284 l 2,5,6
 358 326 358 326 345 350 c 128,-1,7
 332 374 332 374 294 374 c 0,8,9
 276 374 276 374 261 363 c 128,-1,10
 246 352 246 352 242 334 c 0,11,12
 236 316 236 316 236 276 c 2,13,-1
 236 94 l 2,14,15
 236 62 236 62 243.5 41 c 128,-1,16
 251 20 251 20 272 0 c 1,17,-1
 24 0 l 1,18,19
 46 22 46 22 53 41.5 c 128,-1,20
 60 61 60 61 60 94 c 2,21,-1
 60 574 l 2,22,23
 60 605 60 605 53 624.5 c 128,-1,24
 46 644 46 644 24 666 c 1,25,-1
 172 666 l 2,26,27
 196 666 196 666 236 682 c 1,28,-1
 236 436 l 1,29,30
 286 480 286 480 356 480 c 0,31,32
 459 480 459 480 512 414 c 0,33,34
 536 383 536 383 536 308 c 2,35,-1
 536 94 l 2,36,37
 536 34 536 34 570 0 c 1,0,-1
EndSplineSet
Validated: 1
EndChar

StartChar: i
Encoding: 105 105 76
Width: 304
GlyphClass: 2
Flags: W
LayerCount: 2
Fore
SplineSet
240 584 m 128,-1,1
 240 545 240 545 211.5 516.5 c 128,-1,2
 183 488 183 488 144 488 c 128,-1,3
 105 488 105 488 76.5 516.5 c 128,-1,4
 48 545 48 545 48 584 c 128,-1,5
 48 623 48 623 76.5 651.5 c 128,-1,6
 105 680 105 680 144 680 c 128,-1,7
 183 680 183 680 211.5 651.5 c 128,-1,0
 240 623 240 623 240 584 c 128,-1,1
274 0 m 1,8,-1
 28 0 l 1,9,10
 49 21 49 21 55.5 40.5 c 128,-1,11
 62 60 62 60 62 94 c 2,12,-1
 62 374 l 2,13,14
 62 432 62 432 28 468 c 1,15,-1
 176 468 l 2,16,17
 205 468 205 468 240 482 c 1,18,-1
 240 94 l 2,19,20
 240 34 240 34 274 0 c 1,8,-1
EndSplineSet
Validated: 1
EndChar

StartChar: j
Encoding: 106 106 77
Width: 304
GlyphClass: 2
Flags: W
LayerCount: 2
Fore
SplineSet
240 584 m 0,0,1
 240 544 240 544 211.5 515 c 128,-1,2
 183 486 183 486 144 486 c 128,-1,3
 105 486 105 486 76.5 515 c 128,-1,4
 48 544 48 544 48 584 c 0,5,6
 48 623 48 623 76.5 651.5 c 128,-1,7
 105 680 105 680 144 680 c 128,-1,8
 183 680 183 680 211.5 651.5 c 128,-1,9
 240 623 240 623 240 584 c 0,0,1
240 14 m 2,10,11
 240 -23 240 -23 238.5 -41.5 c 128,-1,12
 237 -60 237 -60 231 -86 c 128,-1,13
 225 -112 225 -112 210 -130.5 c 128,-1,14
 195 -149 195 -149 170 -164 c 0,15,16
 82 -214 82 -214 -14 -214 c 1,17,18
 37 -162 37 -162 50.5 -127.5 c 128,-1,19
 64 -93 64 -93 64 -20 c 2,20,-1
 64 346 l 2,21,22
 64 375 64 375 62 392.5 c 128,-1,23
 60 410 60 410 50 432 c 128,-1,24
 40 454 40 454 20 468 c 1,25,-1
 176 468 l 2,26,27
 212 468 212 468 240 482 c 1,28,-1
 240 14 l 2,10,11
EndSplineSet
Validated: 1
EndChar

StartChar: k
Encoding: 107 107 78
Width: 586
GlyphClass: 2
Flags: W
LayerCount: 2
Fore
SplineSet
592 0 m 1,0,1
 576 -2 576 -2 544 -2 c 0,2,3
 528 -4 528 -4 494 -4 c 0,4,5
 487 -4 487 -4 454.5 -5 c 128,-1,6
 422 -6 422 -6 416 -6 c 0,7,8
 370 -6 370 -6 336 50 c 2,9,-1
 236 216 l 1,10,-1
 236 94 l 2,11,12
 236 62 236 62 243.5 41 c 128,-1,13
 251 20 251 20 272 0 c 1,14,-1
 24 0 l 1,15,16
 46 22 46 22 53 41.5 c 128,-1,17
 60 61 60 61 60 94 c 2,18,-1
 60 574 l 2,19,20
 60 606 60 606 52.5 626 c 128,-1,21
 45 646 45 646 24 666 c 1,22,-1
 172 666 l 2,23,24
 204 666 204 666 236 682 c 1,25,-1
 236 266 l 1,26,-1
 328 368 l 2,27,28
 350 394 350 394 350 414 c 0,29,30
 350 441 350 441 312 468 c 1,31,-1
 544 468 l 1,32,-1
 390 288 l 1,33,-1
 534 62 l 2,34,35
 559 25 559 25 592 0 c 1,0,1
EndSplineSet
Validated: 1
EndChar

StartChar: l
Encoding: 108 108 79
Width: 304
GlyphClass: 2
Flags: W
LayerCount: 2
Fore
SplineSet
272 0 m 1,0,-1
 24 0 l 1,1,2
 46 22 46 22 53 41.5 c 128,-1,3
 60 61 60 61 60 94 c 2,4,-1
 60 574 l 2,5,6
 60 606 60 606 53.5 624 c 128,-1,7
 47 642 47 642 26 666 c 1,8,-1
 172 666 l 2,9,10
 196 666 196 666 236 682 c 1,11,-1
 236 94 l 2,12,13
 236 62 236 62 243.5 41 c 128,-1,14
 251 20 251 20 272 0 c 1,0,-1
EndSplineSet
Validated: 1
EndChar

StartChar: m
Encoding: 109 109 80
Width: 868
GlyphClass: 2
Flags: W
LayerCount: 2
Fore
SplineSet
832 0 m 1,0,-1
 586 0 l 1,1,2
 607 21 607 21 613.5 40.5 c 128,-1,3
 620 60 620 60 620 94 c 2,4,-1
 620 292 l 2,5,6
 620 317 620 317 618 332 c 128,-1,7
 616 347 616 347 603 361.5 c 128,-1,8
 590 376 590 376 566 376 c 0,9,10
 549 376 549 376 538 368.5 c 128,-1,11
 527 361 527 361 522.5 346.5 c 128,-1,12
 518 332 518 332 517 320.5 c 128,-1,13
 516 309 516 309 516 292 c 2,14,-1
 516 94 l 2,15,16
 516 34 516 34 550 0 c 1,17,-1
 304 0 l 1,18,19
 325 21 325 21 331.5 40.5 c 128,-1,20
 338 60 338 60 338 94 c 2,21,-1
 338 292 l 2,22,23
 338 374 338 374 286 374 c 0,24,25
 230 374 230 374 230 292 c 0,26,27
 230 290 230 290 231 285 c 128,-1,28
 232 280 232 280 232 278 c 2,29,-1
 232 94 l 2,30,31
 232 62 232 62 239.5 41 c 128,-1,32
 247 20 247 20 268 0 c 1,33,-1
 20 0 l 1,34,35
 42 22 42 22 49 41.5 c 128,-1,36
 56 61 56 61 56 94 c 2,37,-1
 56 374 l 2,38,39
 56 406 56 406 49 426 c 128,-1,40
 42 446 42 446 20 468 c 1,41,-1
 162 468 l 2,42,43
 197 468 197 468 228 482 c 1,44,-1
 228 422 l 1,45,46
 279 480 279 480 344 480 c 0,47,48
 422 480 422 480 474 422 c 1,49,50
 529 480 529 480 616 480 c 0,51,52
 694 480 694 480 746 441.5 c 128,-1,53
 798 403 798 403 798 328 c 2,54,-1
 798 94 l 2,55,56
 798 34 798 34 832 0 c 1,0,-1
EndSplineSet
Validated: 1
EndChar

StartChar: n
Encoding: 110 110 81
Width: 606
GlyphClass: 2
Flags: W
LayerCount: 2
Fore
SplineSet
572 0 m 1,0,-1
 326 0 l 1,1,2
 347 21 347 21 353.5 40.5 c 128,-1,3
 360 60 360 60 360 94 c 2,4,-1
 360 296 l 2,5,6
 360 331 360 331 344 354.5 c 128,-1,7
 328 378 328 378 294 378 c 0,8,9
 236 378 236 378 236 296 c 2,10,-1
 236 94 l 2,11,12
 236 62 236 62 243.5 41 c 128,-1,13
 251 20 251 20 272 0 c 1,14,-1
 24 0 l 1,15,16
 46 22 46 22 53 41.5 c 128,-1,17
 60 61 60 61 60 94 c 2,18,-1
 60 374 l 2,19,20
 60 406 60 406 53 426 c 128,-1,21
 46 446 46 446 24 468 c 1,22,-1
 164 468 l 2,23,24
 193 468 193 468 228 482 c 1,25,-1
 228 426 l 1,26,27
 282 480 282 480 360 480 c 0,28,29
 441 480 441 480 488 436 c 0,30,31
 520 407 520 407 529 375 c 128,-1,32
 538 343 538 343 538 292 c 2,33,-1
 538 94 l 2,34,35
 538 34 538 34 572 0 c 1,0,-1
EndSplineSet
Validated: 1
EndChar

StartChar: o
Encoding: 111 111 82
Width: 586
GlyphClass: 2
Flags: W
LayerCount: 2
Fore
SplineSet
556 234 m 0,0,1
 556 119 556 119 478.5 52.5 c 128,-1,2
 401 -14 401 -14 284 -14 c 0,3,4
 172 -14 172 -14 101 54.5 c 128,-1,5
 30 123 30 123 30 236 c 0,6,7
 30 347 30 347 105.5 413.5 c 128,-1,8
 181 480 181 480 294 480 c 0,9,10
 414 480 414 480 485 410 c 128,-1,11
 556 340 556 340 556 234 c 0,0,1
384 230 m 0,12,13
 384 267 384 267 377.5 298.5 c 128,-1,14
 371 330 371 330 348 357 c 128,-1,15
 325 384 325 384 288 384 c 0,16,17
 200 384 200 384 200 252 c 0,18,19
 200 84 200 84 292 84 c 0,20,21
 323 84 323 84 342.5 96.5 c 128,-1,22
 362 109 362 109 370.5 132.5 c 128,-1,23
 379 156 379 156 381.5 177.5 c 128,-1,24
 384 199 384 199 384 230 c 0,12,13
EndSplineSet
Validated: 1
EndChar

StartChar: p
Encoding: 112 112 83
Width: 616
GlyphClass: 2
Flags: W
LayerCount: 2
Fore
SplineSet
582 228 m 0,0,1
 582 176 582 176 559.5 124 c 128,-1,2
 537 72 537 72 498 38 c 0,3,4
 444 -11 444 -11 356 -14 c 2,5,-1
 338 -14 l 2,6,7
 324 -14 324 -14 296 -10 c 1,8,-1
 260 84 l 1,9,-1
 292 84 l 2,10,11
 392 84 392 84 392 230 c 0,12,13
 392 293 392 293 371 334.5 c 128,-1,14
 350 376 350 376 304 376 c 0,15,16
 272 376 272 376 252 350 c 0,17,18
 236 326 236 326 236 268 c 2,19,-1
 236 -118 l 2,20,21
 236 -150 236 -150 243.5 -171 c 128,-1,22
 251 -192 251 -192 272 -212 c 1,23,-1
 24 -212 l 1,24,25
 46 -190 46 -190 53 -170.5 c 128,-1,26
 60 -151 60 -151 60 -118 c 2,27,-1
 60 374 l 2,28,29
 60 406 60 406 52.5 426 c 128,-1,30
 45 446 45 446 24 466 c 1,31,-1
 172 466 l 2,32,33
 204 466 204 466 236 482 c 1,34,-1
 236 418 l 1,35,36
 285 480 285 480 378 480 c 0,37,38
 473 480 473 480 527.5 409 c 128,-1,39
 582 338 582 338 582 228 c 0,0,1
EndSplineSet
Validated: 1
EndChar

StartChar: q
Encoding: 113 113 84
Width: 616
GlyphClass: 2
Flags: W
LayerCount: 2
Fore
SplineSet
588 -212 m 1,0,-1
 340 -212 l 1,1,2
 361 -191 361 -191 367.5 -171.5 c 128,-1,3
 374 -152 374 -152 374 -118 c 2,4,-1
 374 362 l 1,5,6
 350 370 350 370 320 370 c 0,7,8
 271 370 271 370 243.5 330 c 128,-1,9
 216 290 216 290 216 226 c 0,10,11
 216 140 216 140 268 98 c 0,12,13
 292 78 292 78 342 78 c 1,14,-1
 296 -8 l 1,15,16
 272 -14 272 -14 250 -14 c 0,17,18
 152 -14 152 -14 91 53 c 128,-1,19
 30 120 30 120 30 220 c 0,20,21
 30 287 30 287 62 344 c 128,-1,22
 94 401 94 401 150 434 c 0,23,24
 209 468 209 468 320 468 c 2,25,-1
 588 468 l 1,26,27
 566 446 566 446 559 426.5 c 128,-1,28
 552 407 552 407 552 374 c 2,29,-1
 552 -118 l 2,30,31
 552 -150 552 -150 559.5 -171 c 128,-1,32
 567 -192 567 -192 588 -212 c 1,0,-1
EndSplineSet
Validated: 1
EndChar

StartChar: r
Encoding: 114 114 85
Width: 398
GlyphClass: 2
Flags: W
LayerCount: 2
Fore
SplineSet
384 354 m 1,0,1
 348 362 348 362 328 362 c 0,2,3
 278 362 278 362 250 324 c 0,4,5
 236 304 236 304 236 278 c 2,6,-1
 236 94 l 2,7,8
 236 62 236 62 243.5 41 c 128,-1,9
 251 20 251 20 272 0 c 1,10,-1
 24 0 l 1,11,12
 46 22 46 22 53 41.5 c 128,-1,13
 60 61 60 61 60 94 c 2,14,-1
 60 374 l 2,15,16
 60 406 60 406 53 426 c 128,-1,17
 46 446 46 446 24 468 c 1,18,-1
 166 468 l 2,19,20
 195 468 195 468 230 482 c 1,21,-1
 230 410 l 1,22,23
 270 480 270 480 348 480 c 0,24,25
 370 480 370 480 384 478 c 1,26,-1
 384 354 l 1,0,1
EndSplineSet
Validated: 1
EndChar

StartChar: s
Encoding: 115 115 86
Width: 512
GlyphClass: 2
Flags: W
LayerCount: 2
Fore
SplineSet
478 152 m 0,0,1
 478 106 478 106 454 71.5 c 128,-1,2
 430 37 430 37 391 19.5 c 128,-1,3
 352 2 352 2 311.5 -6 c 128,-1,4
 271 -14 271 -14 230 -14 c 0,5,6
 144 -14 144 -14 50 12 c 1,7,-1
 26 128 l 1,8,9
 127 72 127 72 200 72 c 0,10,11
 278 72 278 72 278 112 c 0,12,13
 278 123 278 123 273 132 c 128,-1,14
 268 141 268 141 257.5 147 c 128,-1,15
 247 153 247 153 240 156 c 128,-1,16
 233 159 233 159 218.5 163 c 128,-1,17
 204 167 204 167 202 168 c 0,18,19
 167 179 167 179 141.5 190 c 128,-1,20
 116 201 116 201 90 219 c 128,-1,21
 64 237 64 237 50 264 c 128,-1,22
 36 291 36 291 36 326 c 0,23,24
 36 403 36 403 100.5 441.5 c 128,-1,25
 165 480 165 480 248 480 c 0,26,27
 312 480 312 480 342 476 c 0,28,29
 393 469 393 469 422 462 c 1,30,-1
 422 356 l 1,31,32
 360 396 360 396 288 396 c 0,33,34
 228 396 228 396 228 362 c 0,35,36
 228 355 228 355 230.5 349.5 c 128,-1,37
 233 344 233 344 238.5 340 c 128,-1,38
 244 336 244 336 248.5 332.5 c 128,-1,39
 253 329 253 329 261.5 326.5 c 128,-1,40
 270 324 270 324 274.5 322.5 c 128,-1,41
 279 321 279 321 287.5 319 c 128,-1,42
 296 317 296 317 298 316 c 0,43,44
 394 287 394 287 428 260 c 0,45,46
 478 216 478 216 478 152 c 0,0,1
EndSplineSet
Validated: 1
EndChar

StartChar: t
Encoding: 116 116 87
Width: 366
GlyphClass: 2
Flags: W
LayerCount: 2
Fore
SplineSet
360 80 m 1,0,-1
 316 -6 l 1,1,2
 260 -14 260 -14 234 -14 c 0,3,4
 145 -14 145 -14 104 30 c 0,5,6
 70 66 70 66 70 146 c 2,7,-1
 70 374 l 1,8,-1
 10 374 l 1,9,-1
 10 444 l 1,10,11
 83 457 83 457 124 500 c 0,12,13
 169 548 169 548 178 612 c 1,14,-1
 248 612 l 1,15,-1
 248 468 l 1,16,-1
 360 468 l 1,17,-1
 360 344 l 1,18,19
 340 362 340 362 328 368 c 128,-1,20
 316 374 316 374 292 374 c 2,21,-1
 248 374 l 1,22,-1
 248 172 l 2,23,24
 248 120 248 120 275.5 101.5 c 128,-1,25
 303 83 303 83 360 80 c 1,0,-1
EndSplineSet
Validated: 1
EndChar

StartChar: u
Encoding: 117 117 88
Width: 596
GlyphClass: 2
Flags: W
LayerCount: 2
Fore
SplineSet
568 0 m 1,0,-1
 360 0 l 1,1,-1
 360 54 l 1,2,3
 298 -14 298 -14 218 -14 c 0,4,5
 152 -14 152 -14 110 20 c 0,6,7
 60 58 60 58 60 146 c 2,8,-1
 60 374 l 2,9,10
 60 434 60 434 26 468 c 1,11,-1
 174 468 l 2,12,13
 206 468 206 468 238 484 c 1,14,-1
 238 210 l 2,15,16
 238 207 238 207 237 198.5 c 128,-1,17
 236 190 236 190 236 186 c 0,18,19
 236 92 236 92 298 92 c 0,20,21
 329 92 329 92 342 114 c 0,22,23
 356 134 356 134 356 180 c 2,24,-1
 356 374 l 2,25,26
 356 434 356 434 322 468 c 1,27,-1
 470 468 l 2,28,29
 502 468 502 468 534 484 c 1,30,-1
 534 94 l 2,31,32
 534 36 534 36 568 0 c 1,0,-1
EndSplineSet
Validated: 1
EndChar

StartChar: v
Encoding: 118 118 89
Width: 512
GlyphClass: 2
Flags: W
LayerCount: 2
Fore
SplineSet
500 468 m 1,0,-1
 314 -24 l 1,1,2
 294 -24 294 -24 254 -2 c 0,3,4
 205 25 205 25 183.5 50.5 c 128,-1,5
 162 76 162 76 144 126 c 2,6,-1
 50 374 l 2,7,8
 28 434 28 434 -4 468 c 1,9,-1
 136 468 l 2,10,11
 176 468 176 468 194 484 c 1,12,-1
 302 188 l 1,13,-1
 366 360 l 2,14,15
 378 392 378 392 378 410 c 0,16,17
 378 443 378 443 356 468 c 1,18,-1
 500 468 l 1,0,-1
EndSplineSet
Validated: 1
EndChar

StartChar: w
Encoding: 119 119 90
Width: 804
GlyphClass: 2
Flags: W
LayerCount: 2
Fore
SplineSet
790 468 m 1,0,-1
 604 -18 l 1,1,2
 545 -6 545 -6 498 32 c 0,3,4
 483 43 483 43 466 72 c 0,5,6
 452 102 452 102 432 166 c 2,7,-1
 404 244 l 1,8,-1
 310 -18 l 1,9,-1
 290 -12 l 2,10,11
 236 6 236 6 204 28 c 0,12,13
 168 57 168 57 154 102 c 2,14,-1
 62 350 l 2,15,16
 37 422 37 422 -2 468 c 1,17,-1
 130 468 l 2,18,19
 171 468 171 468 200 484 c 1,20,-1
 296 202 l 1,21,-1
 358 372 l 1,22,23
 345 435 345 435 304 468 c 1,24,-1
 504 468 l 1,25,-1
 594 202 l 1,26,-1
 648 348 l 2,27,28
 662 383 662 383 662 404 c 0,29,30
 662 435 662 435 632 468 c 1,31,-1
 790 468 l 1,0,-1
EndSplineSet
Validated: 1
EndChar

StartChar: x
Encoding: 120 120 91
Width: 534
GlyphClass: 2
Flags: W
LayerCount: 2
Fore
SplineSet
522 0 m 1,0,-1
 300 0 l 1,1,2
 288 33 288 33 262 78 c 2,3,-1
 220 154 l 1,4,-1
 172 84 l 2,5,6
 158 63 158 63 158 46 c 0,7,8
 158 28 158 28 182 0 c 1,9,-1
 4 0 l 1,10,-1
 172 234 l 1,11,-1
 52 424 l 2,12,13
 42 440 42 440 10 468 c 1,14,-1
 232 468 l 1,15,16
 232 466 232 466 233 462 c 128,-1,17
 234 458 234 458 234 456 c 0,18,19
 236 451 236 451 240 442 c 128,-1,20
 244 433 244 433 246 428 c 2,21,-1
 294 342 l 1,22,-1
 316 372 l 2,23,24
 317 374 317 374 323.5 383.5 c 128,-1,25
 330 393 330 393 332.5 397 c 128,-1,26
 335 401 335 401 337.5 409 c 128,-1,27
 340 417 340 417 340 424 c 0,28,29
 340 445 340 445 320 468 c 1,30,-1
 488 468 l 1,31,-1
 346 266 l 1,32,-1
 446 102 l 2,33,34
 493 26 493 26 522 0 c 1,0,-1
EndSplineSet
Validated: 1
EndChar

StartChar: y
Encoding: 121 121 92
Width: 534
GlyphClass: 2
Flags: W
LayerCount: 2
Fore
SplineSet
524 468 m 1,0,-1
 330 -50 l 2,1,2
 308 -105 308 -105 284 -136 c 128,-1,3
 260 -167 260 -167 214 -188 c 0,4,5
 157 -214 157 -214 74 -214 c 0,6,7
 60 -214 60 -214 28 -210 c 1,8,-1
 108 -108 l 1,9,10
 124 -112 124 -112 134 -112 c 0,11,12
 184 -112 184 -112 211 -79.5 c 128,-1,13
 238 -47 238 -47 256 10 c 1,14,15
 202 46 202 46 174 108 c 2,16,-1
 56 390 l 2,17,18
 33 443 33 443 -2 468 c 1,19,-1
 222 468 l 1,20,21
 223 462 223 462 234 430.5 c 128,-1,22
 245 399 245 399 246 396 c 2,23,-1
 330 192 l 1,24,-1
 390 366 l 2,25,26
 400 401 400 401 400 418 c 0,27,28
 400 438 400 438 374 468 c 1,29,-1
 524 468 l 1,0,-1
EndSplineSet
Validated: 1
EndChar

StartChar: z
Encoding: 122 122 93
Width: 522
GlyphClass: 2
Flags: W
LayerCount: 2
Fore
SplineSet
508 114 m 1,0,-1
 468 0 l 1,1,-1
 14 0 l 1,2,-1
 232 372 l 1,3,4
 197 380 197 380 158 380 c 0,5,6
 109 380 109 380 54 354 c 1,7,-1
 90 468 l 1,8,-1
 482 468 l 1,9,-1
 272 98 l 1,10,11
 312 88 312 88 368 88 c 0,12,13
 456 88 456 88 508 114 c 1,0,-1
EndSplineSet
Validated: 1
EndChar

StartChar: braceleft
Encoding: 123 123 94
Width: 346
GlyphClass: 2
Flags: W
LayerCount: 2
Fore
SplineSet
302 -158 m 1,0,-1
 130 -158 l 2,1,2
 90 -158 90 -158 90 -110 c 0,3,4
 90 -107 90 -107 91 -99 c 128,-1,5
 92 -91 92 -91 92 -88 c 2,6,-1
 92 166 l 2,7,8
 92 189 92 189 79.5 200 c 128,-1,9
 67 211 67 211 42 220 c 1,10,-1
 42 292 l 1,11,12
 67 299 67 299 79.5 310 c 128,-1,13
 92 321 92 321 92 344 c 2,14,-1
 92 598 l 2,15,16
 92 601 92 601 91 609 c 128,-1,17
 90 617 90 617 90 620 c 0,18,19
 90 668 90 668 130 668 c 2,20,-1
 302 668 l 1,21,-1
 302 598 l 1,22,-1
 274 598 l 2,23,24
 239 598 239 598 229.5 589 c 128,-1,25
 220 580 220 580 220 546 c 2,26,-1
 220 350 l 2,27,28
 220 309 220 309 208 290 c 128,-1,29
 196 271 196 271 162 256 c 1,30,31
 196 240 196 240 208 220.5 c 128,-1,32
 220 201 220 201 220 160 c 2,33,-1
 220 -36 l 2,34,35
 220 -70 220 -70 229.5 -79 c 128,-1,36
 239 -88 239 -88 274 -88 c 2,37,-1
 302 -88 l 1,38,-1
 302 -158 l 1,0,-1
EndSplineSet
Validated: 1
EndChar

StartChar: bar
Encoding: 124 124 95
Width: 502
GlyphClass: 2
Flags: W
LayerCount: 2
Fore
SplineSet
348 -168 m 1,0,-1
 154 -168 l 1,1,-1
 154 668 l 1,2,-1
 348 668 l 1,3,-1
 348 -168 l 1,0,-1
EndSplineSet
Validated: 1
EndChar

StartChar: braceright
Encoding: 125 125 96
Width: 346
GlyphClass: 2
Flags: W
LayerCount: 2
Fore
SplineSet
298 220 m 1,0,1
 272 211 272 211 260 200 c 128,-1,2
 248 189 248 189 248 166 c 2,3,-1
 248 -108 l 2,4,5
 248 -158 248 -158 210 -158 c 2,6,-1
 38 -158 l 1,7,-1
 38 -88 l 1,8,-1
 66 -88 l 2,9,10
 101 -88 101 -88 110.5 -79 c 128,-1,11
 120 -70 120 -70 120 -36 c 2,12,-1
 120 160 l 2,13,14
 120 201 120 201 132 220.5 c 128,-1,15
 144 240 144 240 178 256 c 1,16,17
 144 271 144 271 132 290 c 128,-1,18
 120 309 120 309 120 350 c 2,19,-1
 120 546 l 2,20,21
 120 580 120 580 110.5 589 c 128,-1,22
 101 598 101 598 66 598 c 2,23,-1
 38 598 l 1,24,-1
 38 668 l 1,25,-1
 210 668 l 2,26,27
 233 668 233 668 240.5 655.5 c 128,-1,28
 248 643 248 643 248 620 c 2,29,-1
 248 344 l 2,30,31
 248 320 248 320 260 309.5 c 128,-1,32
 272 299 272 299 298 292 c 1,33,-1
 298 220 l 1,0,1
EndSplineSet
Validated: 1
EndChar

StartChar: asciitilde
Encoding: 126 126 97
Width: 502
GlyphClass: 2
Flags: W
LayerCount: 2
Fore
SplineSet
494 420 m 1,0,1
 467 351 467 351 431.5 310.5 c 128,-1,2
 396 270 396 270 340 270 c 0,3,4
 300 270 300 270 241 295 c 128,-1,5
 182 320 182 320 156 320 c 0,6,7
 143 320 143 320 131 309.5 c 128,-1,8
 119 299 119 299 114 291 c 128,-1,9
 109 283 109 283 100 266 c 1,10,-1
 8 344 l 1,11,12
 64 494 64 494 166 494 c 0,13,14
 197 494 197 494 262.5 469 c 128,-1,15
 328 444 328 444 342 444 c 0,16,17
 348 444 348 444 353 445 c 128,-1,18
 358 446 358 446 362 448.5 c 128,-1,19
 366 451 366 451 369.5 453 c 128,-1,20
 373 455 373 455 377 459.5 c 128,-1,21
 381 464 381 464 383 466.5 c 128,-1,22
 385 469 385 469 388.5 474.5 c 128,-1,23
 392 480 392 480 393.5 482 c 128,-1,24
 395 484 395 484 398 490.5 c 128,-1,25
 401 497 401 497 402 498 c 2,26,-1
 494 420 l 1,0,1
EndSplineSet
Validated: 1
EndChar

StartChar: exclamdown
Encoding: 161 161 99
Width: 334
GlyphClass: 2
Flags: W
LayerCount: 2
Fore
SplineSet
261 583 m 128,-1,1
 261 544 261 544 232.5 515.5 c 128,-1,2
 204 487 204 487 165 487 c 128,-1,3
 126 487 126 487 97.5 515.5 c 128,-1,4
 69 544 69 544 69 583 c 128,-1,5
 69 622 69 622 97.5 651.5 c 128,-1,6
 126 681 126 681 165 681 c 128,-1,7
 204 681 204 681 232.5 651.5 c 128,-1,0
 261 622 261 622 261 583 c 128,-1,1
271 -1 m 1,8,-1
 67 -1 l 1,9,-1
 93 455 l 1,10,-1
 245 455 l 1,11,-1
 271 -1 l 1,8,-1
EndSplineSet
Validated: 1
EndChar

StartChar: cent
Encoding: 162 162 100
Width: 540
GlyphClass: 2
Flags: W
LayerCount: 2
Fore
SplineSet
456 222 m 1,0,-1
 450 124 l 1,1,2
 390 104 390 104 354 102 c 1,3,-1
 354 2 l 1,4,-1
 276 2 l 1,5,-1
 276 102 l 1,6,7
 202 109 202 109 156 140 c 0,8,9
 106 174 106 174 78 227.5 c 128,-1,10
 50 281 50 281 50 342 c 0,11,12
 50 400 50 400 76.5 452.5 c 128,-1,13
 103 505 103 505 148 540 c 0,14,15
 196 576 196 576 276 586 c 1,16,-1
 276 666 l 1,17,-1
 354 666 l 1,18,-1
 354 586 l 1,19,20
 402 586 402 586 450 570 c 1,21,-1
 450 468 l 1,22,23
 404 494 404 494 342 494 c 0,24,25
 271 494 271 494 244 452 c 0,26,27
 220 414 220 414 220 344 c 0,28,29
 220 271 220 271 245 231.5 c 128,-1,30
 270 192 270 192 338 192 c 0,31,32
 360 192 360 192 408 204 c 0,33,34
 432 210 432 210 456 222 c 1,0,-1
EndSplineSet
Validated: 1
EndChar

StartChar: sterling
Encoding: 163 163 101
Width: 606
GlyphClass: 2
Flags: W
LayerCount: 2
Fore
SplineSet
556 6 m 1,0,1
 503 -14 503 -14 462 -14 c 0,2,3
 401 -14 401 -14 306 30 c 1,4,5
 256 -14 256 -14 180 -14 c 0,6,7
 164 -14 164 -14 145 -9.5 c 128,-1,8
 126 -5 126 -5 102 5.5 c 128,-1,9
 78 16 78 16 62 39 c 128,-1,10
 46 62 46 62 46 94 c 0,11,12
 46 138 46 138 82.5 169 c 128,-1,13
 119 200 119 200 164 200 c 0,14,15
 212 200 212 200 252 180 c 1,16,17
 252 217 252 217 222 262 c 2,18,-1
 174 332 l 1,19,-1
 70 332 l 1,20,-1
 70 414 l 1,21,-1
 130 414 l 1,22,23
 114 458 114 458 114 484 c 0,24,25
 114 573 114 573 187 626.5 c 128,-1,26
 260 680 260 680 352 680 c 0,27,28
 446 680 446 680 508 656 c 1,29,-1
 508 538 l 1,30,-1
 492 548 l 2,31,32
 444 580 444 580 396 580 c 0,33,34
 354 580 354 580 324 550 c 128,-1,35
 294 520 294 520 294 478 c 0,36,37
 294 442 294 442 308 414 c 1,38,-1
 452 414 l 1,39,-1
 452 332 l 1,40,-1
 344 332 l 1,41,42
 390 252 390 252 390 210 c 0,43,44
 390 178 390 178 378 146 c 1,45,46
 427 132 427 132 462 132 c 0,47,48
 521 132 521 132 556 170 c 1,49,-1
 556 6 l 1,0,1
242 86 m 1,50,51
 214 114 214 114 170 114 c 0,52,53
 157 114 157 114 145.5 107 c 128,-1,54
 134 100 134 100 134 88 c 0,55,56
 134 74 134 74 147.5 67 c 128,-1,57
 161 60 161 60 176 60 c 0,58,59
 213 60 213 60 242 86 c 1,50,51
EndSplineSet
Validated: 1
EndChar

StartChar: currency
Encoding: 164 164 102
Width: 647
GlyphClass: 2
Flags: W
LayerCount: 2
Fore
SplineSet
585 146 m 1,0,-1
 508 66 l 1,1,-1
 425 151 l 1,2,3
 371 121 371 121 316 121 c 0,4,5
 269 121 269 121 211 151 c 1,6,-1
 127 66 l 1,7,-1
 49 146 l 1,8,-1
 134 230 l 1,9,10
 108 282 108 282 108 332 c 128,-1,11
 108 382 108 382 137 434 c 1,12,-1
 51 521 l 1,13,-1
 129 601 l 1,14,-1
 217 511 l 1,15,16
 266 537 266 537 323 537 c 0,17,18
 367 537 367 537 417 513 c 1,19,-1
 503 601 l 1,20,-1
 582 519 l 1,21,-1
 499 436 l 1,22,23
 527 383 527 383 527 332 c 0,24,25
 527 280 527 280 502 230 c 1,26,-1
 585 146 l 1,0,-1
411 332 m 0,27,28
 411 369 411 369 383 396 c 128,-1,29
 355 423 355 423 318 423 c 0,30,31
 280 423 280 423 253.5 396.5 c 128,-1,32
 227 370 227 370 227 332 c 128,-1,33
 227 294 227 294 253.5 266.5 c 128,-1,34
 280 239 280 239 318 239 c 128,-1,35
 356 239 356 239 383.5 266.5 c 128,-1,36
 411 294 411 294 411 332 c 0,27,28
EndSplineSet
Validated: 1
EndChar

StartChar: yen
Encoding: 165 165 103
Width: 606
GlyphClass: 2
Flags: W
LayerCount: 2
Fore
SplineSet
564 668 m 1,0,-1
 462 454 l 1,1,-1
 518 454 l 2,2,3
 543 454 543 454 558 464 c 1,4,-1
 558 372 l 1,5,6
 542 380 542 380 518 380 c 2,7,-1
 426 380 l 1,8,-1
 382 290 l 1,9,-1
 498 290 l 2,10,11
 523 290 523 290 538 300 c 1,12,-1
 538 208 l 1,13,14
 518 218 518 218 498 218 c 2,15,-1
 382 218 l 1,16,-1
 382 112 l 2,17,18
 382 50 382 50 426 0 c 1,19,-1
 182 0 l 1,20,21
 209 23 209 23 218.5 47.5 c 128,-1,22
 228 72 228 72 228 112 c 2,23,-1
 228 218 l 1,24,-1
 114 218 l 2,25,26
 94 218 94 218 74 208 c 1,27,-1
 74 300 l 1,28,29
 89 290 89 290 114 290 c 2,30,-1
 228 290 l 1,31,-1
 182 380 l 1,32,-1
 94 380 l 2,33,34
 70 380 70 380 54 372 c 1,35,-1
 54 464 l 1,36,37
 69 454 69 454 94 454 c 2,38,-1
 146 454 l 1,39,-1
 92 564 l 2,40,41
 53 637 53 637 14 668 c 1,42,-1
 216 668 l 1,43,-1
 334 412 l 1,44,-1
 400 562 l 2,45,46
 411 588 411 588 414 610 c 2,47,-1
 414 612 l 2,48,49
 414 636 414 636 382 668 c 1,50,-1
 564 668 l 1,0,-1
EndSplineSet
Validated: 1
EndChar

StartChar: brokenbar
Encoding: 166 166 104
Width: 500
GlyphClass: 2
Flags: W
LayerCount: 2
Fore
SplineSet
302 326 m 1,0,-1
 185 272 l 1,1,-1
 185 678 l 1,2,-1
 302 678 l 1,3,-1
 302 326 l 1,0,-1
302 -181 m 1,4,-1
 185 -181 l 1,5,-1
 185 210 l 1,6,-1
 302 263 l 1,7,-1
 302 -181 l 1,4,-1
EndSplineSet
Validated: 1
EndChar

StartChar: section
Encoding: 167 167 105
Width: 606
GlyphClass: 2
Flags: W
LayerCount: 2
Fore
SplineSet
518 274 m 0,0,1
 518 216 518 216 472 150 c 1,2,3
 502 105 502 105 502 54 c 0,4,5
 502 -40 502 -40 432.5 -100 c 128,-1,6
 363 -160 363 -160 268 -160 c 0,7,8
 175 -160 175 -160 84 -116 c 1,9,-1
 84 48 l 1,10,11
 120 22 120 22 138.5 10 c 128,-1,12
 157 -2 157 -2 191 -16 c 128,-1,13
 225 -30 225 -30 256 -30 c 0,14,15
 289 -30 289 -30 318.5 -12 c 128,-1,16
 348 6 348 6 348 38 c 0,17,18
 348 45 348 45 345 52.5 c 128,-1,19
 342 60 342 60 335.5 66.5 c 128,-1,20
 329 73 329 73 323.5 77.5 c 128,-1,21
 318 82 318 82 308 88 c 128,-1,22
 298 94 298 94 293.5 96.5 c 128,-1,23
 289 99 289 99 278 104.5 c 128,-1,24
 267 110 267 110 266 110 c 0,25,26
 186 154 186 154 150 180 c 0,27,28
 86 227 86 227 86 302 c 0,29,30
 86 369 86 369 142 432 c 1,31,32
 114 469 114 469 114 518 c 0,33,34
 114 606 114 606 186 648 c 0,35,36
 240 680 240 680 332 680 c 0,37,38
 398 680 398 680 482 652 c 1,39,-1
 482 488 l 1,40,41
 452 512 452 512 434.5 523.5 c 128,-1,42
 417 535 417 535 388.5 546.5 c 128,-1,43
 360 558 360 558 332 558 c 0,44,45
 264 558 264 558 264 524 c 0,46,47
 264 506 264 506 312 482 c 2,48,-1
 352 460 l 2,49,50
 431 420 431 420 468 388 c 0,51,52
 518 344 518 344 518 274 c 0,0,1
384 244 m 0,53,54
 384 280 384 280 330 312 c 2,55,-1
 294 332 l 1,56,-1
 258 352 l 2,57,58
 254 354 254 354 247 358 c 128,-1,59
 240 362 240 362 236 364 c 1,60,61
 226 339 226 339 226 334 c 0,62,63
 226 323 226 323 232 312 c 128,-1,64
 238 301 238 301 251.5 291 c 128,-1,65
 265 281 265 281 272.5 275.5 c 128,-1,66
 280 270 280 270 298.5 260.5 c 128,-1,67
 317 251 317 251 318 250 c 0,68,69
 350 234 350 234 380 216 c 1,70,71
 384 224 384 224 384 244 c 0,53,54
EndSplineSet
Validated: 1
EndChar

StartChar: dieresis
Encoding: 168 168 106
Width: 502
GlyphClass: 2
Flags: W
LayerCount: 2
Fore
SplineSet
434 596 m 0,0,1
 434 563 434 563 409 538.5 c 128,-1,2
 384 514 384 514 350 514 c 0,3,4
 317 514 317 514 292.5 538.5 c 128,-1,5
 268 563 268 563 268 596 c 0,6,7
 268 630 268 630 292.5 655 c 128,-1,8
 317 680 317 680 350 680 c 0,9,10
 384 680 384 680 409 655 c 128,-1,11
 434 630 434 630 434 596 c 0,0,1
234 596 m 0,12,13
 234 563 234 563 209 538.5 c 128,-1,14
 184 514 184 514 150 514 c 0,15,16
 117 514 117 514 92.5 538.5 c 128,-1,17
 68 563 68 563 68 596 c 0,18,19
 68 630 68 630 92.5 655 c 128,-1,20
 117 680 117 680 150 680 c 0,21,22
 184 680 184 680 209 655 c 128,-1,23
 234 630 234 630 234 596 c 0,12,13
EndSplineSet
Validated: 1
EndChar

StartChar: copyright
Encoding: 169 169 107
Width: 762
GlyphClass: 2
Flags: W
LayerCount: 2
Fore
SplineSet
728 334 m 0,0,1
 728 192 728 192 627 89 c 128,-1,2
 526 -14 526 -14 384 -14 c 0,3,4
 240 -14 240 -14 137 88 c 128,-1,5
 34 190 34 190 34 334 c 128,-1,6
 34 478 34 478 137 579 c 128,-1,7
 240 680 240 680 384 680 c 0,8,9
 525 680 525 680 626.5 577.5 c 128,-1,10
 728 475 728 475 728 334 c 0,0,1
668 334 m 0,11,12
 668 453 668 453 585 540.5 c 128,-1,13
 502 628 502 628 384 628 c 0,14,15
 263 628 263 628 178.5 541.5 c 128,-1,16
 94 455 94 455 94 334 c 128,-1,17
 94 213 94 213 178.5 126.5 c 128,-1,18
 263 40 263 40 384 40 c 0,19,20
 501 40 501 40 584.5 128 c 128,-1,21
 668 216 668 216 668 334 c 0,11,12
562 238 m 1,22,-1
 528 142 l 1,23,24
 470 126 470 126 414 126 c 0,25,26
 319 126 319 126 260 168 c 0,27,28
 220 195 220 195 197 239 c 128,-1,29
 174 283 174 283 174 332 c 0,30,31
 174 428 174 428 238.5 485 c 128,-1,32
 303 542 303 542 400 542 c 0,33,34
 457 542 457 542 502 534 c 1,35,-1
 506 442 l 1,36,37
 453 476 453 476 398 476 c 0,38,39
 348 476 348 476 324 436.5 c 128,-1,40
 300 397 300 397 300 344 c 0,41,42
 300 281 300 281 331.5 238.5 c 128,-1,43
 363 196 363 196 424 196 c 0,44,45
 478 196 478 196 562 238 c 1,22,-1
EndSplineSet
Validated: 1
EndChar

StartChar: ordfeminine
Encoding: 170 170 108
Width: 408
GlyphClass: 2
Flags: W
LayerCount: 2
Fore
SplineSet
362 450 m 1,0,-1
 336 396 l 1,1,2
 326 394 326 394 306 394 c 0,3,4
 278 394 278 394 254 406 c 1,5,6
 220 430 220 430 218 448 c 2,7,-1
 210 488 l 1,8,-1
 204 526 l 1,9,10
 196 522 196 522 194 522 c 2,11,-1
 180 514 l 2,12,13
 154 503 154 503 154 484 c 0,14,15
 154 469 154 469 164.5 456.5 c 128,-1,16
 175 444 175 444 190 444 c 0,17,18
 198 444 198 444 202 446 c 1,19,-1
 174 396 l 1,20,21
 164 394 164 394 142 394 c 0,22,23
 102 394 102 394 74 417 c 128,-1,24
 46 440 46 440 46 480 c 0,25,26
 46 490 46 490 48.5 498.5 c 128,-1,27
 51 507 51 507 53.5 513.5 c 128,-1,28
 56 520 56 520 62.5 526 c 128,-1,29
 69 532 69 532 73 536 c 128,-1,30
 77 540 77 540 87 544.5 c 128,-1,31
 97 549 97 549 101 551 c 128,-1,32
 105 553 105 553 117.5 556.5 c 128,-1,33
 130 560 130 560 133.5 560.5 c 128,-1,34
 137 561 137 561 150.5 564.5 c 128,-1,35
 164 568 164 568 166 568 c 0,36,37
 168 569 168 569 174.5 570.5 c 128,-1,38
 181 572 181 572 185 573.5 c 128,-1,39
 189 575 189 575 194 577.5 c 128,-1,40
 199 580 199 580 201.5 583.5 c 128,-1,41
 204 587 204 587 204 592 c 0,42,43
 204 603 204 603 194 609.5 c 128,-1,44
 184 616 184 616 172 616 c 0,45,46
 140 616 140 616 92 594 c 1,47,-1
 122 666 l 1,48,49
 148 674 148 674 204 674 c 0,50,51
 312 674 312 674 312 570 c 2,52,-1
 312 510 l 2,53,54
 312 478 312 478 321.5 464 c 128,-1,55
 331 450 331 450 362 450 c 1,0,-1
362 298 m 1,56,-1
 48 298 l 1,57,-1
 48 348 l 1,58,-1
 362 348 l 1,59,-1
 362 298 l 1,56,-1
EndSplineSet
Validated: 1
EndChar

StartChar: guillemotleft
Encoding: 171 171 109
Width: 482
GlyphClass: 2
Flags: W
LayerCount: 2
Fore
SplineSet
432 102 m 1,0,-1
 338 102 l 1,1,-1
 218 244 l 1,2,-1
 338 388 l 1,3,-1
 432 388 l 1,4,-1
 342 244 l 1,5,-1
 432 102 l 1,0,-1
246 102 m 1,6,-1
 154 102 l 1,7,-1
 34 244 l 1,8,-1
 154 388 l 1,9,-1
 246 388 l 1,10,-1
 156 244 l 1,11,-1
 246 102 l 1,6,-1
EndSplineSet
Validated: 1
EndChar

StartChar: logicalnot
Encoding: 172 172 110
Width: 502
GlyphClass: 2
Flags: W
LayerCount: 2
Fore
SplineSet
466 0 m 1,0,-1
 278 0 l 1,1,-1
 278 130 l 1,2,-1
 34 130 l 1,3,-1
 34 298 l 1,4,-1
 466 298 l 1,5,-1
 466 0 l 1,0,-1
EndSplineSet
Validated: 1
EndChar

StartChar: registered
Encoding: 174 174 111
Width: 762
GlyphClass: 2
Flags: W
LayerCount: 2
Fore
SplineSet
728 334 m 0,0,1
 728 192 728 192 627 89 c 128,-1,2
 526 -14 526 -14 384 -14 c 0,3,4
 240 -14 240 -14 137 88 c 128,-1,5
 34 190 34 190 34 334 c 128,-1,6
 34 478 34 478 137 579 c 128,-1,7
 240 680 240 680 384 680 c 0,8,9
 525 680 525 680 626.5 577.5 c 128,-1,10
 728 475 728 475 728 334 c 0,0,1
668 334 m 0,11,12
 668 453 668 453 585 540.5 c 128,-1,13
 502 628 502 628 384 628 c 0,14,15
 263 628 263 628 178.5 541.5 c 128,-1,16
 94 455 94 455 94 334 c 128,-1,17
 94 213 94 213 178.5 126.5 c 128,-1,18
 263 40 263 40 384 40 c 0,19,20
 501 40 501 40 584.5 128 c 128,-1,21
 668 216 668 216 668 334 c 0,11,12
572 146 m 1,22,-1
 472 146 l 2,23,24
 429 146 429 146 398 186 c 0,25,26
 371 222 371 222 336 292 c 1,27,-1
 336 224 l 2,28,29
 336 200 336 200 337 189.5 c 128,-1,30
 338 179 338 179 345.5 166 c 128,-1,31
 353 153 353 153 368 142 c 1,32,-1
 196 142 l 1,33,34
 211 153 211 153 218.5 166 c 128,-1,35
 226 179 226 179 227 189.5 c 128,-1,36
 228 200 228 200 228 224 c 2,37,-1
 228 446 l 2,38,39
 228 470 228 470 227 480.5 c 128,-1,40
 226 491 226 491 218.5 504 c 128,-1,41
 211 517 211 517 196 528 c 1,42,-1
 382 528 l 2,43,44
 428 528 428 528 452 516 c 0,45,46
 478 505 478 505 495 482.5 c 128,-1,47
 512 460 512 460 512 432 c 0,48,49
 512 364 512 364 442 332 c 1,50,51
 464 288 464 288 528 194 c 0,52,53
 551 164 551 164 572 146 c 1,22,-1
394 416 m 0,54,55
 394 441 394 441 378 455.5 c 128,-1,56
 362 470 362 470 336 470 c 1,57,-1
 336 342 l 1,58,59
 363 348 363 348 378.5 368.5 c 128,-1,60
 394 389 394 389 394 416 c 0,54,55
EndSplineSet
Validated: 1
EndChar

StartChar: macron
Encoding: 175 175 112
Width: 502
GlyphClass: 2
Flags: W
LayerCount: 2
Fore
SplineSet
442 536 m 1,0,1
 430 548 430 548 402 548 c 2,2,-1
 110 548 l 2,3,4
 84 548 84 548 70 536 c 1,5,-1
 70 658 l 1,6,7
 84 646 84 646 110 646 c 2,8,-1
 402 646 l 2,9,10
 430 646 430 646 442 658 c 1,11,-1
 442 536 l 1,0,1
EndSplineSet
Validated: 1
EndChar

StartChar: degree
Encoding: 176 176 113
Width: 333
GlyphClass: 2
Flags: W
LayerCount: 2
Fore
SplineSet
303 542 m 0,0,1
 303 488 303 488 263.5 448 c 128,-1,2
 224 408 224 408 169 408 c 0,3,4
 115 408 115 408 75 448 c 128,-1,5
 35 488 35 488 35 542 c 0,6,7
 35 598 35 598 74.5 638 c 128,-1,8
 114 678 114 678 169 678 c 0,9,10
 223 678 223 678 263 637.5 c 128,-1,11
 303 597 303 597 303 542 c 0,0,1
241 542 m 0,12,13
 241 572 241 572 219.5 593 c 128,-1,14
 198 614 198 614 169 614 c 0,15,16
 139 614 139 614 118 593 c 128,-1,17
 97 572 97 572 97 542 c 0,18,19
 97 514 97 514 118.5 493 c 128,-1,20
 140 472 140 472 169 472 c 0,21,22
 199 472 199 472 220 492.5 c 128,-1,23
 241 513 241 513 241 542 c 0,12,13
EndSplineSet
Validated: 1
EndChar

StartChar: plusminus
Encoding: 177 177 114
Width: 562
GlyphClass: 2
Flags: W
LayerCount: 2
Fore
SplineSet
523 435 m 1,0,-1
 452 336 l 2,1,2
 441 320 441 320 410 320 c 0,3,4
 407 320 407 320 400.5 321 c 128,-1,5
 394 322 394 322 392 322 c 2,6,-1
 328 322 l 1,7,-1
 327 179 l 2,8,9
 330 142 330 142 341 113 c 1,10,-1
 248 186 l 2,11,12
 230 200 230 200 230 244 c 2,13,-1
 230 323 l 1,14,-1
 85 324 l 2,15,16
 48 321 48 321 19 310 c 1,17,-1
 92 403 l 2,18,19
 106 421 106 421 150 421 c 2,20,-1
 230 421 l 1,21,-1
 230 553 l 2,22,23
 230 582 230 582 216 617 c 1,24,-1
 315 546 l 2,25,26
 331 535 331 535 331 504 c 0,27,28
 331 501 331 501 330 494.5 c 128,-1,29
 329 488 329 488 329 486 c 0,30,31
 329 421 329 421 328 421 c 1,32,-1
 459 421 l 2,33,34
 488 421 488 421 523 435 c 1,0,-1
520 117 m 1,35,-1
 449 18 l 2,36,37
 438 2 438 2 407 2 c 0,38,39
 404 2 404 2 397.5 3 c 128,-1,40
 391 4 391 4 389 4 c 2,41,-1
 82 6 l 2,42,43
 45 3 45 3 16 -8 c 1,44,-1
 89 85 l 2,45,46
 103 103 103 103 147 103 c 2,47,-1
 456 103 l 2,48,49
 485 103 485 103 520 117 c 1,35,-1
EndSplineSet
Validated: 1
EndChar

StartChar: twosuperior
Encoding: 178 178 115
Width: 408
GlyphClass: 2
Flags: W
LayerCount: 2
Fore
SplineSet
374 364 m 1,0,-1
 340 268 l 1,1,-1
 24 268 l 1,2,3
 204 522 204 522 204 568 c 0,4,5
 204 587 204 587 191.5 596.5 c 128,-1,6
 179 606 179 606 160 606 c 0,7,8
 119 606 119 606 52 564 c 1,9,-1
 82 654 l 1,10,11
 139 676 139 676 196 676 c 0,12,13
 249 676 249 676 293.5 648 c 128,-1,14
 338 620 338 620 338 568 c 0,15,16
 338 535 338 535 300 472 c 0,17,18
 257 403 257 403 216 348 c 2,19,-1
 206 336 l 1,20,21
 230 332 230 332 244 332 c 0,22,23
 307 332 307 332 374 364 c 1,0,-1
EndSplineSet
Validated: 1
EndChar

StartChar: threesuperior
Encoding: 179 179 116
Width: 408
GlyphClass: 2
Flags: W
LayerCount: 2
Fore
SplineSet
360 390 m 0,0,1
 360 346 360 346 326.5 315 c 128,-1,2
 293 284 293 284 250.5 272 c 128,-1,3
 208 260 208 260 166 260 c 0,4,5
 113 260 113 260 62 272 c 1,6,-1
 40 352 l 1,7,8
 100 324 100 324 146 324 c 0,9,10
 177 324 177 324 202.5 342.5 c 128,-1,11
 228 361 228 361 228 392 c 0,12,13
 228 426 228 426 202.5 442 c 128,-1,14
 177 458 177 458 140 458 c 0,15,16
 134 458 134 458 120.5 457 c 128,-1,17
 107 456 107 456 100 456 c 1,18,-1
 100 516 l 1,19,-1
 120 516 l 2,20,21
 204 516 204 516 204 566 c 0,22,23
 204 590 204 590 185.5 601 c 128,-1,24
 167 612 167 612 140 612 c 0,25,26
 108 612 108 612 52 584 c 1,27,-1
 76 660 l 1,28,29
 137 676 137 676 194 676 c 0,30,31
 245 676 245 676 289.5 649 c 128,-1,32
 334 622 334 622 334 574 c 0,33,34
 334 548 334 548 315.5 528 c 128,-1,35
 297 508 297 508 270 498 c 1,36,37
 311 487 311 487 335.5 459 c 128,-1,38
 360 431 360 431 360 390 c 0,0,1
EndSplineSet
Validated: 1
EndChar

StartChar: acute
Encoding: 180 180 117
Width: 502
GlyphClass: 2
Flags: W
LayerCount: 2
Fore
SplineSet
412 610 m 1,0,-1
 174 520 l 1,1,-1
 116 556 l 1,2,-1
 360 696 l 1,3,-1
 412 610 l 1,0,-1
EndSplineSet
Validated: 1
EndChar

StartChar: paragraph
Encoding: 182 182 118
Width: 606
GlyphClass: 2
Flags: W
LayerCount: 2
Fore
SplineSet
573 -92 m 1,0,-1
 417 -92 l 1,1,-1
 417 608 l 1,2,-1
 341 608 l 1,3,-1
 341 -92 l 1,4,-1
 181 -92 l 1,5,6
 210 -77 210 -77 223.5 -55.5 c 128,-1,7
 237 -34 237 -34 239 -16 c 128,-1,8
 241 2 241 2 241 42 c 2,9,-1
 241 322 l 1,10,-1
 231 322 l 2,11,12
 152 322 152 322 101.5 367.5 c 128,-1,13
 51 413 51 413 51 492 c 0,14,15
 51 538 51 538 72.5 578 c 128,-1,16
 94 618 94 618 133 640 c 0,17,18
 184 668 184 668 283 668 c 2,19,-1
 563 668 l 1,20,-1
 563 608 l 1,21,-1
 513 608 l 1,22,-1
 513 42 l 2,23,24
 513 2 513 2 515 -16 c 128,-1,25
 517 -34 517 -34 530.5 -55.5 c 128,-1,26
 544 -77 544 -77 573 -92 c 1,0,-1
EndSplineSet
Validated: 1
EndChar

StartChar: periodcentered
Encoding: 183 183 119
Width: 294
GlyphClass: 2
Flags: W
LayerCount: 2
Fore
SplineSet
240 250 m 128,-1,1
 240 211 240 211 211 182.5 c 128,-1,2
 182 154 182 154 142 154 c 0,3,4
 103 154 103 154 74.5 182.5 c 128,-1,5
 46 211 46 211 46 250 c 128,-1,6
 46 289 46 289 74.5 317.5 c 128,-1,7
 103 346 103 346 142 346 c 0,8,9
 182 346 182 346 211 317.5 c 128,-1,0
 240 289 240 289 240 250 c 128,-1,1
EndSplineSet
Validated: 1
EndChar

StartChar: cedilla
Encoding: 184 184 120
Width: 484
GlyphClass: 2
Flags: W
LayerCount: 2
Fore
SplineSet
341 -122 m 4,0,1
 341 -166 341 -166 305.5 -187 c 132,-1,2
 270 -208 270 -208 223 -208 c 4,3,4
 189 -208 189 -208 153 -202 c 5,5,-1
 137 -134 l 5,6,7
 182 -150 182 -150 221 -150 c 4,8,9
 237 -150 237 -150 251 -142.5 c 132,-1,10
 265 -135 265 -135 265 -120 c 4,11,12
 265 -92 265 -92 221 -92 c 6,13,-1
 189 -92 l 5,14,-1
 181 -94 l 5,15,-1
 217 0 l 5,16,-1
 287 0 l 5,17,-1
 269 -44 l 5,18,19
 341 -63 341 -63 341 -122 c 4,0,1
EndSplineSet
Validated: 1
EndChar

StartChar: onesuperior
Encoding: 185 185 121
Width: 408
GlyphClass: 2
Flags: W
LayerCount: 2
Fore
SplineSet
310 268 m 1,0,-1
 98 268 l 1,1,2
 126 284 126 284 136 303 c 128,-1,3
 146 322 146 322 146 354 c 2,4,-1
 146 570 l 1,5,6
 115 579 115 579 66 590 c 1,7,8
 134 608 134 608 179.5 631.5 c 128,-1,9
 225 655 225 655 266 698 c 1,10,-1
 266 350 l 2,11,12
 266 317 266 317 274.5 299 c 128,-1,13
 283 281 283 281 310 268 c 1,0,-1
EndSplineSet
Validated: 1
EndChar

StartChar: ordmasculine
Encoding: 186 186 122
Width: 408
GlyphClass: 2
Flags: W
LayerCount: 2
Fore
SplineSet
353 534 m 0,0,1
 353 469 353 469 307 431.5 c 128,-1,2
 261 394 261 394 195 394 c 0,3,4
 131 394 131 394 89 432.5 c 128,-1,5
 47 471 47 471 47 536 c 0,6,7
 47 598 47 598 92 636 c 128,-1,8
 137 674 137 674 201 674 c 0,9,10
 266 674 266 674 309.5 636 c 128,-1,11
 353 598 353 598 353 534 c 0,0,1
355 298 m 1,12,-1
 41 298 l 1,13,-1
 41 348 l 1,14,-1
 355 348 l 1,15,-1
 355 298 l 1,12,-1
249 530 m 0,16,17
 249 563 249 563 237 589.5 c 128,-1,18
 225 616 225 616 197 616 c 0,19,20
 149 616 149 616 149 544 c 0,21,22
 149 452 149 452 199 452 c 0,23,24
 216 452 216 452 227 458.5 c 128,-1,25
 238 465 238 465 242.5 478 c 128,-1,26
 247 491 247 491 248 502 c 128,-1,27
 249 513 249 513 249 530 c 0,16,17
EndSplineSet
Validated: 1
EndChar

StartChar: guillemotright
Encoding: 187 187 123
Width: 482
GlyphClass: 2
Flags: W
LayerCount: 2
Fore
SplineSet
438 246 m 1,0,-1
 318 102 l 1,1,-1
 226 102 l 1,2,-1
 316 246 l 1,3,-1
 226 388 l 1,4,-1
 318 388 l 1,5,-1
 438 246 l 1,0,-1
254 246 m 1,6,-1
 134 102 l 1,7,-1
 40 102 l 1,8,-1
 130 246 l 1,9,-1
 40 388 l 1,10,-1
 134 388 l 1,11,-1
 254 246 l 1,6,-1
EndSplineSet
Validated: 1
EndChar

StartChar: onequarter
Encoding: 188 188 124
Width: 884
GlyphClass: 2
Flags: W
LayerCount: 2
Fore
SplineSet
863 162 m 1,0,-1
 839 86 l 1,1,-1
 793 86 l 1,2,-1
 793 72 l 2,3,4
 793 29 793 29 817 0 c 1,5,-1
 657 0 l 1,6,7
 685 23 685 23 685 68 c 2,8,-1
 685 86 l 1,9,-1
 497 86 l 1,10,-1
 665 400 l 1,11,-1
 793 400 l 1,12,-1
 793 140 l 1,13,14
 830 140 830 140 863 162 c 1,0,-1
645 668 m 1,15,-1
 265 0 l 1,16,-1
 169 0 l 1,17,-1
 551 668 l 1,18,-1
 645 668 l 1,15,-1
225 268 m 1,19,-1
 51 268 l 1,20,21
 87 292 87 292 87 350 c 2,22,-1
 87 574 l 1,23,24
 58 586 58 586 23 592 c 1,25,-1
 33 594 l 1,26,27
 136 627 136 627 195 694 c 1,28,-1
 195 348 l 2,29,30
 195 285 195 285 225 268 c 1,19,-1
685 140 m 1,31,-1
 685 326 l 1,32,-1
 587 140 l 1,33,-1
 685 140 l 1,31,-1
EndSplineSet
Validated: 1
EndChar

StartChar: onehalf
Encoding: 189 189 125
Width: 860
GlyphClass: 2
Flags: W
LayerCount: 2
Fore
SplineSet
833 88 m 1,0,-1
 805 0 l 1,1,-1
 517 0 l 1,2,3
 683 259 683 259 683 304 c 0,4,5
 683 324 683 324 670 335 c 128,-1,6
 657 346 657 346 637 346 c 0,7,8
 599 346 599 346 543 306 c 1,9,-1
 569 388 l 1,10,11
 615 408 615 408 671 408 c 0,12,13
 723 408 723 408 763 381.5 c 128,-1,14
 803 355 803 355 803 304 c 0,15,16
 803 294 803 294 801 284 c 128,-1,17
 799 274 799 274 794.5 262.5 c 128,-1,18
 790 251 790 251 787.5 245.5 c 128,-1,19
 785 240 785 240 776.5 225.5 c 128,-1,20
 768 211 768 211 767 208 c 0,21,22
 731 142 731 142 689 82 c 2,23,-1
 677 64 l 1,24,25
 705 60 705 60 717 60 c 0,26,27
 777 60 777 60 833 88 c 1,0,-1
643 668 m 1,28,-1
 263 0 l 1,29,-1
 167 0 l 1,30,-1
 549 668 l 1,31,-1
 643 668 l 1,28,-1
223 268 m 1,32,-1
 49 268 l 1,33,34
 85 292 85 292 85 350 c 2,35,-1
 85 574 l 1,36,37
 56 586 56 586 21 592 c 1,38,-1
 31 594 l 1,39,40
 134 627 134 627 193 694 c 1,41,-1
 193 348 l 2,42,43
 193 285 193 285 223 268 c 1,32,-1
EndSplineSet
Validated: 1
EndChar

StartChar: threequarters
Encoding: 190 190 126
Width: 902
GlyphClass: 2
Flags: W
LayerCount: 2
Fore
SplineSet
878 162 m 1,0,-1
 854 86 l 1,1,-1
 808 86 l 1,2,-1
 808 72 l 2,3,4
 808 29 808 29 832 0 c 1,5,-1
 672 0 l 1,6,7
 700 23 700 23 700 68 c 2,8,-1
 700 86 l 1,9,-1
 514 86 l 1,10,-1
 682 400 l 1,11,-1
 808 400 l 1,12,-1
 808 140 l 1,13,14
 845 140 845 140 878 162 c 1,0,-1
660 668 m 1,15,-1
 280 0 l 1,16,-1
 184 0 l 1,17,-1
 566 668 l 1,18,-1
 660 668 l 1,15,-1
296 388 m 0,19,20
 296 327 296 327 240 293.5 c 128,-1,21
 184 260 184 260 118 260 c 0,22,23
 75 260 75 260 22 270 c 1,24,-1
 6 344 l 1,25,26
 52 318 52 318 100 318 c 0,27,28
 132 318 132 318 156 338 c 128,-1,29
 180 358 180 358 180 390 c 0,30,31
 180 426 180 426 156.5 443 c 128,-1,32
 133 460 133 460 94 460 c 2,33,-1
 60 460 l 1,34,-1
 60 514 l 1,35,-1
 74 514 l 2,36,37
 158 514 158 514 158 566 c 0,38,39
 158 592 158 592 139.5 605 c 128,-1,40
 121 618 121 618 94 618 c 0,41,42
 64 618 64 618 16 594 c 1,43,-1
 36 660 l 1,44,45
 94 676 94 676 144 676 c 0,46,47
 192 676 192 676 232 650 c 128,-1,48
 272 624 272 624 272 578 c 0,49,50
 272 550 272 550 252.5 529 c 128,-1,51
 233 508 233 508 204 498 c 1,52,53
 296 475 296 475 296 388 c 0,19,20
700 140 m 1,54,-1
 700 326 l 1,55,-1
 602 140 l 1,56,-1
 700 140 l 1,54,-1
EndSplineSet
Validated: 1
EndChar

StartChar: questiondown
Encoding: 191 191 127
Width: 512
GlyphClass: 2
Flags: W
LayerCount: 2
Fore
SplineSet
390 608 m 128,-1,1
 390 569 390 569 361.5 540.5 c 128,-1,2
 333 512 333 512 294 512 c 128,-1,3
 255 512 255 512 226.5 540.5 c 128,-1,4
 198 569 198 569 198 608 c 128,-1,5
 198 647 198 647 226.5 676.5 c 128,-1,6
 255 706 255 706 294 706 c 128,-1,7
 333 706 333 706 361.5 676.5 c 128,-1,0
 390 647 390 647 390 608 c 128,-1,1
460 144 m 5,8,-1
 418 14 l 5,9,10
 366 -8 366 -8 296 -8 c 4,11,12
 191 -8 191 -8 124.5 42.5 c 132,-1,13
 58 93 58 93 58 176 c 4,14,15
 58 222 58 222 75.5 259.5 c 132,-1,16
 93 297 93 297 115.5 319.5 c 132,-1,17
 138 342 138 342 180 374 c 4,18,19
 238 414 238 414 238 450 c 4,20,21
 238 460 238 460 234 480 c 5,22,-1
 368 480 l 5,23,24
 372 452 372 452 372 440 c 4,25,26
 372 376 372 376 312 316 c 4,27,28
 246 254 246 254 246 200 c 4,29,30
 246 157 246 157 278 132.5 c 132,-1,31
 310 108 310 108 354 108 c 4,32,33
 402 108 402 108 460 144 c 5,8,-1
EndSplineSet
Validated: 1
EndChar

StartChar: Agrave
Encoding: 192 192 128
Width: 722
GlyphClass: 2
Flags: W
LayerCount: 2
Fore
SplineSet
724 0 m 1,0,-1
 418 0 l 1,1,2
 458 29 458 29 460 62 c 0,3,4
 460 82 460 82 456 92 c 2,5,-1
 418 202 l 1,6,-1
 218 202 l 1,7,-1
 190 122 l 2,8,9
 177 92 177 92 174 62 c 0,10,11
 174 40 174 40 202 8 c 0,12,13
 206 6 206 6 212 0 c 1,14,-1
 4 0 l 1,15,16
 53 56 53 56 70 106 c 2,17,-1
 218 536 l 2,18,19
 219 542 219 542 227.5 565.5 c 128,-1,20
 236 589 236 589 236 602 c 2,21,-1
 236 608 l 2,22,23
 234 636 234 636 198 668 c 1,24,-1
 446 668 l 1,25,-1
 642 134 l 2,26,27
 670 56 670 56 714 12 c 1,28,-1
 724 0 l 1,0,-1
386 298 m 1,29,-1
 314 498 l 1,30,-1
 246 298 l 1,31,-1
 386 298 l 1,29,-1
482 754 m 1,32,-1
 422 718 l 1,33,-1
 186 808 l 1,34,-1
 236 894 l 1,35,-1
 482 754 l 1,32,-1
EndSplineSet
Validated: 1
EndChar

StartChar: Aacute
Encoding: 193 193 129
Width: 722
GlyphClass: 2
Flags: W
LayerCount: 2
Fore
SplineSet
724 0 m 1,0,-1
 418 0 l 1,1,2
 458 29 458 29 460 62 c 0,3,4
 460 82 460 82 456 92 c 2,5,-1
 418 202 l 1,6,-1
 218 202 l 1,7,-1
 190 122 l 2,8,9
 177 92 177 92 174 62 c 0,10,11
 174 40 174 40 202 8 c 0,12,13
 206 6 206 6 212 0 c 1,14,-1
 4 0 l 1,15,16
 53 56 53 56 70 106 c 2,17,-1
 218 536 l 2,18,19
 219 542 219 542 227.5 565.5 c 128,-1,20
 236 589 236 589 236 602 c 2,21,-1
 236 608 l 2,22,23
 234 636 234 636 198 668 c 1,24,-1
 446 668 l 1,25,-1
 642 134 l 2,26,27
 670 56 670 56 714 12 c 1,28,-1
 724 0 l 1,0,-1
386 298 m 1,29,-1
 314 498 l 1,30,-1
 246 298 l 1,31,-1
 386 298 l 1,29,-1
511 802 m 5,32,-1
 273 712 l 5,33,-1
 215 748 l 5,34,-1
 459 888 l 5,35,-1
 511 802 l 5,32,-1
EndSplineSet
Validated: 1
EndChar

StartChar: Acircumflex
Encoding: 194 194 130
Width: 722
GlyphClass: 2
Flags: W
LayerCount: 2
Fore
SplineSet
724 0 m 1,0,-1
 418 0 l 1,1,2
 458 29 458 29 460 62 c 0,3,4
 460 82 460 82 456 92 c 2,5,-1
 418 202 l 1,6,-1
 218 202 l 1,7,-1
 190 122 l 2,8,9
 177 92 177 92 174 62 c 0,10,11
 174 40 174 40 202 8 c 0,12,13
 206 6 206 6 212 0 c 1,14,-1
 4 0 l 1,15,16
 53 56 53 56 70 106 c 2,17,-1
 218 536 l 2,18,19
 219 542 219 542 227.5 565.5 c 128,-1,20
 236 589 236 589 236 602 c 2,21,-1
 236 608 l 2,22,23
 234 636 234 636 198 668 c 1,24,-1
 446 668 l 1,25,-1
 642 134 l 2,26,27
 670 56 670 56 714 12 c 1,28,-1
 724 0 l 1,0,-1
386 298 m 1,29,-1
 314 498 l 1,30,-1
 246 298 l 1,31,-1
 386 298 l 1,29,-1
553 752 m 5,32,-1
 493 710 l 5,33,-1
 347 776 l 5,34,-1
 201 710 l 5,35,-1
 143 752 l 5,36,-1
 347 874 l 5,37,-1
 553 752 l 5,32,-1
EndSplineSet
Validated: 1
EndChar

StartChar: Atilde
Encoding: 195 195 131
Width: 722
GlyphClass: 2
Flags: W
LayerCount: 2
Fore
SplineSet
724 0 m 1,0,-1
 418 0 l 1,1,2
 458 29 458 29 460 62 c 0,3,4
 460 82 460 82 456 92 c 2,5,-1
 418 202 l 1,6,-1
 218 202 l 1,7,-1
 190 122 l 2,8,9
 177 92 177 92 174 62 c 0,10,11
 174 40 174 40 202 8 c 0,12,13
 206 6 206 6 212 0 c 1,14,-1
 4 0 l 1,15,16
 53 56 53 56 70 106 c 2,17,-1
 218 536 l 2,18,19
 219 542 219 542 227.5 565.5 c 128,-1,20
 236 589 236 589 236 602 c 2,21,-1
 236 608 l 2,22,23
 234 636 234 636 198 668 c 1,24,-1
 446 668 l 1,25,-1
 642 134 l 2,26,27
 670 56 670 56 714 12 c 1,28,-1
 724 0 l 1,0,-1
386 298 m 1,29,-1
 314 498 l 1,30,-1
 246 298 l 1,31,-1
 386 298 l 1,29,-1
524 847 m 1,32,-1
 496 745 l 1,33,34
 459 725 459 725 426 725 c 0,35,36
 392 725 392 725 346 739 c 0,37,38
 286 755 286 755 258 755 c 0,39,40
 216 755 216 755 164 725 c 1,41,-1
 188 827 l 1,42,43
 232 847 232 847 260 847 c 0,44,45
 299 847 299 847 348 833 c 1,46,-1
 374 823 l 2,47,48
 401 815 401 815 434 815 c 0,49,50
 472 815 472 815 524 847 c 1,32,-1
EndSplineSet
Validated: 1
EndChar

StartChar: Adieresis
Encoding: 196 196 132
Width: 722
GlyphClass: 2
Flags: W
LayerCount: 2
Fore
SplineSet
724 0 m 1,0,-1
 418 0 l 1,1,2
 458 29 458 29 460 62 c 0,3,4
 460 82 460 82 456 92 c 2,5,-1
 418 202 l 1,6,-1
 218 202 l 1,7,-1
 190 122 l 2,8,9
 177 92 177 92 174 62 c 0,10,11
 174 40 174 40 202 8 c 0,12,13
 206 6 206 6 212 0 c 1,14,-1
 4 0 l 1,15,16
 53 56 53 56 70 106 c 2,17,-1
 218 536 l 2,18,19
 219 542 219 542 227.5 565.5 c 128,-1,20
 236 589 236 589 236 602 c 2,21,-1
 236 608 l 2,22,23
 234 636 234 636 198 668 c 1,24,-1
 446 668 l 1,25,-1
 642 134 l 2,26,27
 670 56 670 56 714 12 c 1,28,-1
 724 0 l 1,0,-1
386 298 m 1,29,-1
 314 498 l 1,30,-1
 246 298 l 1,31,-1
 386 298 l 1,29,-1
524 794 m 0,32,33
 524 761 524 761 499 736.5 c 128,-1,34
 474 712 474 712 440 712 c 0,35,36
 407 712 407 712 382.5 736.5 c 128,-1,37
 358 761 358 761 358 794 c 0,38,39
 358 828 358 828 382.5 853 c 128,-1,40
 407 878 407 878 440 878 c 0,41,42
 474 878 474 878 499 853 c 128,-1,43
 524 828 524 828 524 794 c 0,32,33
324 794 m 0,44,45
 324 761 324 761 299 736.5 c 128,-1,46
 274 712 274 712 240 712 c 0,47,48
 207 712 207 712 182.5 736.5 c 128,-1,49
 158 761 158 761 158 794 c 0,50,51
 158 828 158 828 182.5 853 c 128,-1,52
 207 878 207 878 240 878 c 0,53,54
 274 878 274 878 299 853 c 128,-1,55
 324 828 324 828 324 794 c 0,44,45
EndSplineSet
Validated: 1
EndChar

StartChar: Aring
Encoding: 197 197 133
Width: 722
GlyphClass: 2
Flags: W
LayerCount: 2
Fore
SplineSet
724 0 m 1,0,-1
 418 0 l 1,1,2
 458 29 458 29 460 62 c 0,3,4
 460 82 460 82 456 92 c 2,5,-1
 418 202 l 1,6,-1
 218 202 l 1,7,-1
 190 122 l 2,8,9
 177 92 177 92 174 62 c 0,10,11
 174 40 174 40 202 8 c 0,12,13
 206 6 206 6 212 0 c 1,14,-1
 4 0 l 1,15,16
 53 56 53 56 70 106 c 2,17,-1
 218 536 l 2,18,19
 219 542 219 542 227.5 565.5 c 128,-1,20
 236 589 236 589 236 602 c 2,21,-1
 236 608 l 2,22,23
 234 636 234 636 198 668 c 1,24,-1
 446 668 l 1,25,-1
 642 134 l 2,26,27
 670 56 670 56 714 12 c 1,28,-1
 724 0 l 1,0,-1
386 298 m 1,29,-1
 314 498 l 1,30,-1
 246 298 l 1,31,-1
 386 298 l 1,29,-1
438 811 m 132,-1,33
 438 770 438 770 408.5 740 c 132,-1,34
 379 710 379 710 338 710 c 132,-1,35
 297 710 297 710 267 740 c 132,-1,36
 237 770 237 770 237 811 c 132,-1,37
 237 852 237 852 267 881.5 c 132,-1,38
 297 911 297 911 338 911 c 132,-1,39
 379 911 379 911 408.5 881.5 c 132,-1,32
 438 852 438 852 438 811 c 132,-1,33
376 811 m 132,-1,41
 376 827 376 827 364.5 838.5 c 132,-1,42
 353 850 353 850 338 850 c 4,43,44
 322 850 322 850 310.5 838.5 c 132,-1,45
 299 827 299 827 299 811 c 132,-1,46
 299 795 299 795 310.5 784 c 132,-1,47
 322 773 322 773 338 773 c 4,48,49
 353 773 353 773 364.5 784 c 132,-1,40
 376 795 376 795 376 811 c 132,-1,41
EndSplineSet
Validated: 1
EndChar

StartChar: AE
Encoding: 198 198 134
Width: 804
GlyphClass: 2
Flags: W
LayerCount: 2
Fore
SplineSet
800 146 m 1,0,-1
 758 0 l 1,1,-1
 318 0 l 1,2,3
 346 20 346 20 354 47.5 c 128,-1,4
 362 75 362 75 362 120 c 2,5,-1
 362 194 l 1,6,-1
 228 194 l 1,7,-1
 198 132 l 2,8,9
 196 127 196 127 191.5 117.5 c 128,-1,10
 187 108 187 108 184.5 102.5 c 128,-1,11
 182 97 182 97 180 88.5 c 128,-1,12
 178 80 178 80 178 72 c 0,13,14
 178 38 178 38 228 0 c 1,15,-1
 -4 0 l 1,16,17
 23 23 23 23 28 30 c 0,18,19
 38 44 38 44 46 59 c 128,-1,20
 54 74 54 74 66 100.5 c 128,-1,21
 78 127 78 127 80 132 c 2,22,-1
 266 528 l 2,23,24
 290 586 290 586 290 604 c 2,25,-1
 290 606 l 2,26,27
 290 639 290 639 248 668 c 1,28,-1
 684 668 l 2,29,30
 706 668 706 668 718 672 c 1,31,-1
 718 526 l 1,32,33
 685 568 685 568 610 568 c 2,34,-1
 546 568 l 1,35,-1
 546 404 l 1,36,-1
 652 404 l 2,37,38
 669 404 669 404 684 410 c 1,39,-1
 684 268 l 1,40,41
 661 306 661 306 606 306 c 2,42,-1
 546 306 l 1,43,-1
 546 112 l 1,44,45
 594 98 594 98 652 98 c 0,46,47
 742 98 742 98 800 146 c 1,0,-1
362 290 m 1,48,-1
 362 494 l 1,49,-1
 270 290 l 1,50,-1
 362 290 l 1,48,-1
EndSplineSet
Validated: 1
EndChar

StartChar: Ccedilla
Encoding: 199 199 135
Width: 690
GlyphClass: 2
Flags: W
LayerCount: 2
Fore
SplineSet
674 160 m 1,0,-1
 622 12 l 1,1,2
 546 -8 546 -8 506 -12 c 0,3,4
 470 -16 470 -16 400 -16 c 1,5,-1
 388 -44 l 1,6,7
 420 -52 420 -52 441 -71.5 c 128,-1,8
 462 -91 462 -91 462 -122 c 0,9,10
 462 -166 462 -166 426 -187 c 128,-1,11
 390 -208 390 -208 342 -208 c 0,12,13
 307 -208 307 -208 274 -202 c 1,14,-1
 258 -134 l 1,15,16
 300 -150 300 -150 340 -150 c 0,17,18
 356 -150 356 -150 370 -142.5 c 128,-1,19
 384 -135 384 -135 384 -120 c 0,20,21
 384 -92 384 -92 342 -92 c 2,22,-1
 310 -92 l 1,23,-1
 302 -94 l 1,24,-1
 336 -10 l 1,25,26
 207 10 207 10 118.5 105.5 c 128,-1,27
 30 201 30 201 30 330 c 0,28,29
 30 412 30 412 63.5 485.5 c 128,-1,30
 97 559 97 559 160 606 c 0,31,32
 264 680 264 680 410 680 c 0,33,34
 509 680 509 680 576 668 c 1,35,-1
 584 526 l 1,36,37
 497 580 497 580 404 580 c 0,38,39
 316 580 316 580 275 513.5 c 128,-1,40
 234 447 234 447 234 352 c 0,41,42
 234 242 234 242 289.5 167 c 128,-1,43
 345 92 345 92 450 92 c 0,44,45
 545 92 545 92 674 160 c 1,0,-1
EndSplineSet
Validated: 1
EndChar

StartChar: Egrave
Encoding: 200 200 136
Width: 522
GlyphClass: 2
Flags: W
LayerCount: 2
Fore
SplineSet
518 154 m 1,0,-1
 482 0 l 1,1,-1
 34 0 l 1,2,3
 62 20 62 20 70 47.5 c 128,-1,4
 78 75 78 75 78 120 c 2,5,-1
 78 546 l 2,6,7
 78 575 78 575 76 592.5 c 128,-1,8
 74 610 74 610 64 632 c 128,-1,9
 54 654 54 654 34 668 c 1,10,-1
 398 668 l 2,11,12
 422 668 422 668 434 672 c 1,13,-1
 434 526 l 1,14,15
 401 568 401 568 326 568 c 2,16,-1
 262 568 l 1,17,-1
 262 404 l 1,18,-1
 368 404 l 2,19,20
 386 404 386 404 398 410 c 1,21,-1
 398 268 l 1,22,23
 378 306 378 306 322 306 c 2,24,-1
 262 306 l 1,25,-1
 262 112 l 1,26,27
 302 98 302 98 368 98 c 0,28,29
 469 98 469 98 518 154 c 1,0,-1
404 757 m 1,30,-1
 344 721 l 1,31,-1
 108 811 l 1,32,-1
 158 897 l 1,33,-1
 404 757 l 1,30,-1
EndSplineSet
Validated: 1
EndChar

StartChar: Eacute
Encoding: 201 201 137
Width: 522
GlyphClass: 2
Flags: W
LayerCount: 2
Fore
SplineSet
518 154 m 1,0,-1
 482 0 l 1,1,-1
 34 0 l 1,2,3
 62 20 62 20 70 47.5 c 128,-1,4
 78 75 78 75 78 120 c 2,5,-1
 78 546 l 2,6,7
 78 575 78 575 76 592.5 c 128,-1,8
 74 610 74 610 64 632 c 128,-1,9
 54 654 54 654 34 668 c 1,10,-1
 398 668 l 2,11,12
 422 668 422 668 434 672 c 1,13,-1
 434 526 l 1,14,15
 401 568 401 568 326 568 c 2,16,-1
 262 568 l 1,17,-1
 262 404 l 1,18,-1
 368 404 l 2,19,20
 386 404 386 404 398 410 c 1,21,-1
 398 268 l 1,22,23
 378 306 378 306 322 306 c 2,24,-1
 262 306 l 1,25,-1
 262 112 l 1,26,27
 302 98 302 98 368 98 c 0,28,29
 469 98 469 98 518 154 c 1,0,-1
415 814 m 5,30,-1
 177 724 l 5,31,-1
 119 760 l 5,32,-1
 363 900 l 5,33,-1
 415 814 l 5,30,-1
EndSplineSet
Validated: 1
EndChar

StartChar: Ecircumflex
Encoding: 202 202 138
Width: 522
GlyphClass: 2
Flags: W
LayerCount: 2
Fore
SplineSet
518 154 m 1,0,-1
 482 0 l 1,1,-1
 34 0 l 1,2,3
 62 20 62 20 70 47.5 c 128,-1,4
 78 75 78 75 78 120 c 2,5,-1
 78 546 l 2,6,7
 78 575 78 575 76 592.5 c 128,-1,8
 74 610 74 610 64 632 c 128,-1,9
 54 654 54 654 34 668 c 1,10,-1
 398 668 l 2,11,12
 422 668 422 668 434 672 c 1,13,-1
 434 526 l 1,14,15
 401 568 401 568 326 568 c 2,16,-1
 262 568 l 1,17,-1
 262 404 l 1,18,-1
 368 404 l 2,19,20
 386 404 386 404 398 410 c 1,21,-1
 398 268 l 1,22,23
 378 306 378 306 322 306 c 2,24,-1
 262 306 l 1,25,-1
 262 112 l 1,26,27
 302 98 302 98 368 98 c 0,28,29
 469 98 469 98 518 154 c 1,0,-1
460 752 m 1,30,-1
 400 710 l 1,31,-1
 254 776 l 1,32,-1
 108 710 l 1,33,-1
 50 752 l 1,34,-1
 254 874 l 1,35,-1
 460 752 l 1,30,-1
EndSplineSet
Validated: 1
EndChar

StartChar: Edieresis
Encoding: 203 203 139
Width: 522
GlyphClass: 2
Flags: W
LayerCount: 2
Fore
SplineSet
518 154 m 1,0,-1
 482 0 l 1,1,-1
 34 0 l 1,2,3
 62 20 62 20 70 47.5 c 128,-1,4
 78 75 78 75 78 120 c 2,5,-1
 78 546 l 2,6,7
 78 575 78 575 76 592.5 c 128,-1,8
 74 610 74 610 64 632 c 128,-1,9
 54 654 54 654 34 668 c 1,10,-1
 398 668 l 2,11,12
 422 668 422 668 434 672 c 1,13,-1
 434 526 l 1,14,15
 401 568 401 568 326 568 c 2,16,-1
 262 568 l 1,17,-1
 262 404 l 1,18,-1
 368 404 l 2,19,20
 386 404 386 404 398 410 c 1,21,-1
 398 268 l 1,22,23
 378 306 378 306 322 306 c 2,24,-1
 262 306 l 1,25,-1
 262 112 l 1,26,27
 302 98 302 98 368 98 c 0,28,29
 469 98 469 98 518 154 c 1,0,-1
437 797 m 0,30,31
 437 764 437 764 412 739.5 c 128,-1,32
 387 715 387 715 353 715 c 0,33,34
 320 715 320 715 295.5 739.5 c 128,-1,35
 271 764 271 764 271 797 c 0,36,37
 271 831 271 831 295.5 856 c 128,-1,38
 320 881 320 881 353 881 c 0,39,40
 388 881 388 881 412.5 856.5 c 128,-1,41
 437 832 437 832 437 797 c 0,30,31
237 797 m 0,42,43
 237 764 237 764 212 739.5 c 128,-1,44
 187 715 187 715 153 715 c 0,45,46
 120 715 120 715 95.5 739.5 c 128,-1,47
 71 764 71 764 71 797 c 0,48,49
 71 831 71 831 95.5 856 c 128,-1,50
 120 881 120 881 153 881 c 0,51,52
 188 881 188 881 212.5 856.5 c 128,-1,53
 237 832 237 832 237 797 c 0,42,43
EndSplineSet
Validated: 1
EndChar

StartChar: Igrave
Encoding: 204 204 140
Width: 346
GlyphClass: 2
Flags: W
LayerCount: 2
Fore
SplineSet
304 0 m 1,0,-1
 34 0 l 1,1,2
 62 20 62 20 70 47.5 c 128,-1,3
 78 75 78 75 78 120 c 2,4,-1
 78 546 l 2,5,6
 78 575 78 575 76 592.5 c 128,-1,7
 74 610 74 610 64 632 c 128,-1,8
 54 654 54 654 34 668 c 1,9,-1
 304 668 l 1,10,11
 260 633 260 633 260 546 c 0,12,13
 260 544 260 544 261 540 c 128,-1,14
 262 536 262 536 262 534 c 2,15,-1
 262 134 l 2,16,17
 262 132 262 132 261 127 c 128,-1,18
 260 122 260 122 260 120 c 0,19,20
 260 77 260 77 268.5 48.5 c 128,-1,21
 277 20 277 20 304 0 c 1,0,-1
308 760 m 1,22,-1
 248 724 l 1,23,-1
 12 814 l 1,24,-1
 62 900 l 1,25,-1
 308 760 l 1,22,-1
EndSplineSet
Validated: 1
EndChar

StartChar: Iacute
Encoding: 205 205 141
Width: 346
GlyphClass: 2
Flags: W
LayerCount: 2
Fore
SplineSet
304 0 m 1,0,-1
 34 0 l 1,1,2
 62 20 62 20 70 47.5 c 128,-1,3
 78 75 78 75 78 120 c 2,4,-1
 78 546 l 2,5,6
 78 575 78 575 76 592.5 c 128,-1,7
 74 610 74 610 64 632 c 128,-1,8
 54 654 54 654 34 668 c 1,9,-1
 304 668 l 1,10,11
 260 633 260 633 260 546 c 0,12,13
 260 544 260 544 261 540 c 128,-1,14
 262 536 262 536 262 534 c 2,15,-1
 262 134 l 2,16,17
 262 132 262 132 261 127 c 128,-1,18
 260 122 260 122 260 120 c 0,19,20
 260 77 260 77 268.5 48.5 c 128,-1,21
 277 20 277 20 304 0 c 1,0,-1
322 808 m 5,22,-1
 84 718 l 5,23,-1
 26 754 l 5,24,-1
 270 894 l 5,25,-1
 322 808 l 5,22,-1
EndSplineSet
Validated: 1
EndChar

StartChar: Icircumflex
Encoding: 206 206 142
Width: 346
GlyphClass: 2
Flags: W
LayerCount: 2
Fore
SplineSet
304 0 m 1,0,-1
 34 0 l 1,1,2
 62 20 62 20 70 47.5 c 128,-1,3
 78 75 78 75 78 120 c 2,4,-1
 78 546 l 2,5,6
 78 575 78 575 76 592.5 c 128,-1,7
 74 610 74 610 64 632 c 128,-1,8
 54 654 54 654 34 668 c 1,9,-1
 304 668 l 1,10,11
 260 633 260 633 260 546 c 0,12,13
 260 544 260 544 261 540 c 128,-1,14
 262 536 262 536 262 534 c 2,15,-1
 262 134 l 2,16,17
 262 132 262 132 261 127 c 128,-1,18
 260 122 260 122 260 120 c 0,19,20
 260 77 260 77 268.5 48.5 c 128,-1,21
 277 20 277 20 304 0 c 1,0,-1
373 761 m 1,22,-1
 313 719 l 1,23,-1
 167 785 l 1,24,-1
 21 719 l 1,25,-1
 -37 761 l 1,26,-1
 167 883 l 1,27,-1
 373 761 l 1,22,-1
EndSplineSet
Validated: 1
EndChar

StartChar: Idieresis
Encoding: 207 207 143
Width: 346
GlyphClass: 2
Flags: W
LayerCount: 2
Fore
SplineSet
304 0 m 1,0,-1
 34 0 l 1,1,2
 62 20 62 20 70 47.5 c 128,-1,3
 78 75 78 75 78 120 c 2,4,-1
 78 546 l 2,5,6
 78 575 78 575 76 592.5 c 128,-1,7
 74 610 74 610 64 632 c 128,-1,8
 54 654 54 654 34 668 c 1,9,-1
 304 668 l 1,10,11
 260 633 260 633 260 546 c 0,12,13
 260 544 260 544 261 540 c 128,-1,14
 262 536 262 536 262 534 c 2,15,-1
 262 134 l 2,16,17
 262 132 262 132 261 127 c 128,-1,18
 260 122 260 122 260 120 c 0,19,20
 260 77 260 77 268.5 48.5 c 128,-1,21
 277 20 277 20 304 0 c 1,0,-1
347 803 m 0,22,23
 347 770 347 770 322 745.5 c 128,-1,24
 297 721 297 721 263 721 c 0,25,26
 230 721 230 721 205.5 745.5 c 128,-1,27
 181 770 181 770 181 803 c 0,28,29
 181 837 181 837 205.5 862 c 128,-1,30
 230 887 230 887 263 887 c 0,31,32
 298 887 298 887 322.5 862.5 c 128,-1,33
 347 838 347 838 347 803 c 0,22,23
147 803 m 0,34,35
 147 770 147 770 122 745.5 c 128,-1,36
 97 721 97 721 63 721 c 0,37,38
 30 721 30 721 5.5 745.5 c 128,-1,39
 -19 770 -19 770 -19 803 c 0,40,41
 -19 837 -19 837 5.5 862 c 128,-1,42
 30 887 30 887 63 887 c 0,43,44
 98 887 98 887 122.5 862.5 c 128,-1,45
 147 838 147 838 147 803 c 0,34,35
EndSplineSet
Validated: 1
EndChar

StartChar: Eth
Encoding: 208 208 144
Width: 722
GlyphClass: 2
Flags: W
LayerCount: 2
Fore
SplineSet
686 330 m 0,0,1
 686 237 686 237 639 154.5 c 128,-1,2
 592 72 592 72 510 34 c 0,3,4
 440 0 440 0 298 0 c 2,5,-1
 34 0 l 1,6,7
 60 19 60 19 68 44.5 c 128,-1,8
 76 70 76 70 76 108 c 2,9,-1
 76 296 l 1,10,-1
 50 296 l 2,11,12
 23 296 23 296 4 288 c 1,13,-1
 4 380 l 1,14,15
 22 370 22 370 50 370 c 2,16,-1
 76 370 l 1,17,-1
 76 552 l 2,18,19
 76 635 76 635 34 666 c 1,20,-1
 282 666 l 2,21,22
 336 666 336 666 370 664 c 128,-1,23
 404 662 404 662 450.5 651.5 c 128,-1,24
 497 641 497 641 532 620 c 0,25,26
 605 576 605 576 645.5 497.5 c 128,-1,27
 686 419 686 419 686 330 c 0,0,1
490 338 m 0,28,29
 490 362 490 362 483.5 395.5 c 128,-1,30
 477 429 477 429 461.5 470 c 128,-1,31
 446 511 446 511 412.5 538.5 c 128,-1,32
 379 566 379 566 334 566 c 0,33,34
 294 566 294 566 262 558 c 1,35,-1
 262 370 l 1,36,-1
 348 370 l 2,37,38
 376 370 376 370 394 380 c 1,39,-1
 394 288 l 1,40,41
 375 296 375 296 348 296 c 2,42,-1
 262 296 l 1,43,-1
 262 112 l 1,44,45
 286 104 286 104 320 104 c 0,46,47
 399 104 399 104 444.5 164 c 128,-1,48
 490 224 490 224 490 338 c 0,28,29
EndSplineSet
Validated: 1
EndChar

StartChar: Ntilde
Encoding: 209 209 145
Width: 732
GlyphClass: 2
Flags: W
LayerCount: 2
Fore
SplineSet
690 668 m 1,0,1
 644 620 644 620 644 532 c 2,2,-1
 644 -22 l 1,3,4
 622 -22 622 -22 582 -6 c 0,5,6
 507 24 507 24 468 56 c 0,7,8
 453 67 453 67 440 80.5 c 128,-1,9
 427 94 427 94 408.5 118.5 c 128,-1,10
 390 143 390 143 386 148 c 2,11,-1
 180 416 l 1,12,-1
 180 136 l 2,13,14
 180 80 180 80 194 50 c 0,15,16
 206 20 206 20 226 0 c 1,17,-1
 32 0 l 1,18,19
 58 28 58 28 67 59 c 128,-1,20
 76 90 76 90 76 136 c 2,21,-1
 76 530 l 2,22,23
 76 572 76 572 66 594 c 0,24,25
 46 637 46 637 18 668 c 1,26,-1
 230 668 l 1,27,-1
 540 258 l 1,28,-1
 540 532 l 2,29,30
 540 592 540 592 528 618 c 0,31,32
 516 645 516 645 496 668 c 1,33,-1
 690 668 l 1,0,1
527 847 m 1,34,-1
 499 745 l 1,35,36
 462 725 462 725 429 725 c 0,37,38
 394 725 394 725 349 739 c 0,39,40
 289 755 289 755 261 755 c 0,41,42
 220 755 220 755 167 725 c 1,43,-1
 191 827 l 1,44,45
 235 847 235 847 263 847 c 0,46,47
 302 847 302 847 351 833 c 1,48,-1
 377 823 l 2,49,50
 404 815 404 815 437 815 c 0,51,52
 475 815 475 815 527 847 c 1,34,-1
EndSplineSet
Validated: 1
EndChar

StartChar: Ograve
Encoding: 210 210 146
Width: 826
GlyphClass: 2
Flags: W
LayerCount: 2
Fore
SplineSet
784 336 m 0,0,1
 784 250 784 250 752 182 c 128,-1,2
 720 114 720 114 665.5 72 c 128,-1,3
 611 30 611 30 542 8 c 128,-1,4
 473 -14 473 -14 396 -14 c 0,5,6
 240 -14 240 -14 137 83 c 128,-1,7
 34 180 34 180 34 334 c 0,8,9
 34 487 34 487 143.5 583.5 c 128,-1,10
 253 680 253 680 408 680 c 0,11,12
 503 680 503 680 576.5 652 c 128,-1,13
 650 624 650 624 694.5 576 c 128,-1,14
 739 528 739 528 761.5 467 c 128,-1,15
 784 406 784 406 784 336 c 0,0,1
592 296 m 0,16,17
 592 339 592 339 582.5 384 c 128,-1,18
 573 429 573 429 553 474.5 c 128,-1,19
 533 520 533 520 494.5 549 c 128,-1,20
 456 578 456 578 404 578 c 0,21,22
 336 578 336 578 283 525 c 128,-1,23
 230 472 230 472 230 364 c 0,24,25
 230 235 230 235 284.5 163.5 c 128,-1,26
 339 92 339 92 420 92 c 0,27,28
 465 92 465 92 500 112 c 128,-1,29
 535 132 535 132 554 163.5 c 128,-1,30
 573 195 573 195 582.5 229 c 128,-1,31
 592 263 592 263 592 296 c 0,16,17
554 763 m 1,32,-1
 494 727 l 1,33,-1
 258 817 l 1,34,-1
 308 903 l 1,35,-1
 554 763 l 1,32,-1
EndSplineSet
Validated: 1
EndChar

StartChar: Oacute
Encoding: 211 211 147
Width: 826
GlyphClass: 2
Flags: W
LayerCount: 2
Fore
SplineSet
784 336 m 0,0,1
 784 250 784 250 752 182 c 128,-1,2
 720 114 720 114 665.5 72 c 128,-1,3
 611 30 611 30 542 8 c 128,-1,4
 473 -14 473 -14 396 -14 c 0,5,6
 240 -14 240 -14 137 83 c 128,-1,7
 34 180 34 180 34 334 c 0,8,9
 34 487 34 487 143.5 583.5 c 128,-1,10
 253 680 253 680 408 680 c 0,11,12
 503 680 503 680 576.5 652 c 128,-1,13
 650 624 650 624 694.5 576 c 128,-1,14
 739 528 739 528 761.5 467 c 128,-1,15
 784 406 784 406 784 336 c 0,0,1
592 296 m 0,16,17
 592 339 592 339 582.5 384 c 128,-1,18
 573 429 573 429 553 474.5 c 128,-1,19
 533 520 533 520 494.5 549 c 128,-1,20
 456 578 456 578 404 578 c 0,21,22
 336 578 336 578 283 525 c 128,-1,23
 230 472 230 472 230 364 c 0,24,25
 230 235 230 235 284.5 163.5 c 128,-1,26
 339 92 339 92 420 92 c 0,27,28
 465 92 465 92 500 112 c 128,-1,29
 535 132 535 132 554 163.5 c 128,-1,30
 573 195 573 195 582.5 229 c 128,-1,31
 592 263 592 263 592 296 c 0,16,17
574 820 m 1,32,-1
 336 730 l 1,33,-1
 278 766 l 1,34,-1
 522 906 l 1,35,-1
 574 820 l 1,32,-1
EndSplineSet
Validated: 1
EndChar

StartChar: Ocircumflex
Encoding: 212 212 148
Width: 826
GlyphClass: 2
Flags: W
LayerCount: 2
Fore
SplineSet
784 336 m 0,0,1
 784 250 784 250 752 182 c 128,-1,2
 720 114 720 114 665.5 72 c 128,-1,3
 611 30 611 30 542 8 c 128,-1,4
 473 -14 473 -14 396 -14 c 0,5,6
 240 -14 240 -14 137 83 c 128,-1,7
 34 180 34 180 34 334 c 0,8,9
 34 487 34 487 143.5 583.5 c 128,-1,10
 253 680 253 680 408 680 c 0,11,12
 503 680 503 680 576.5 652 c 128,-1,13
 650 624 650 624 694.5 576 c 128,-1,14
 739 528 739 528 761.5 467 c 128,-1,15
 784 406 784 406 784 336 c 0,0,1
592 296 m 0,16,17
 592 339 592 339 582.5 384 c 128,-1,18
 573 429 573 429 553 474.5 c 128,-1,19
 533 520 533 520 494.5 549 c 128,-1,20
 456 578 456 578 404 578 c 0,21,22
 336 578 336 578 283 525 c 128,-1,23
 230 472 230 472 230 364 c 0,24,25
 230 235 230 235 284.5 163.5 c 128,-1,26
 339 92 339 92 420 92 c 0,27,28
 465 92 465 92 500 112 c 128,-1,29
 535 132 535 132 554 163.5 c 128,-1,30
 573 195 573 195 582.5 229 c 128,-1,31
 592 263 592 263 592 296 c 0,16,17
607 770 m 1,32,-1
 547 728 l 1,33,-1
 401 794 l 1,34,-1
 255 728 l 1,35,-1
 197 770 l 1,36,-1
 401 892 l 1,37,-1
 607 770 l 1,32,-1
EndSplineSet
Validated: 1
EndChar

StartChar: Otilde
Encoding: 213 213 149
Width: 826
GlyphClass: 2
Flags: W
LayerCount: 2
Fore
SplineSet
784 336 m 0,0,1
 784 250 784 250 752 182 c 128,-1,2
 720 114 720 114 665.5 72 c 128,-1,3
 611 30 611 30 542 8 c 128,-1,4
 473 -14 473 -14 396 -14 c 0,5,6
 240 -14 240 -14 137 83 c 128,-1,7
 34 180 34 180 34 334 c 0,8,9
 34 487 34 487 143.5 583.5 c 128,-1,10
 253 680 253 680 408 680 c 0,11,12
 503 680 503 680 576.5 652 c 128,-1,13
 650 624 650 624 694.5 576 c 128,-1,14
 739 528 739 528 761.5 467 c 128,-1,15
 784 406 784 406 784 336 c 0,0,1
592 296 m 0,16,17
 592 339 592 339 582.5 384 c 128,-1,18
 573 429 573 429 553 474.5 c 128,-1,19
 533 520 533 520 494.5 549 c 128,-1,20
 456 578 456 578 404 578 c 0,21,22
 336 578 336 578 283 525 c 128,-1,23
 230 472 230 472 230 364 c 0,24,25
 230 235 230 235 284.5 163.5 c 128,-1,26
 339 92 339 92 420 92 c 0,27,28
 465 92 465 92 500 112 c 128,-1,29
 535 132 535 132 554 163.5 c 128,-1,30
 573 195 573 195 582.5 229 c 128,-1,31
 592 263 592 263 592 296 c 0,16,17
572 847 m 1,32,-1
 544 745 l 1,33,34
 507 725 507 725 474 725 c 0,35,36
 440 725 440 725 394 739 c 0,37,38
 334 755 334 755 306 755 c 0,39,40
 264 755 264 755 212 725 c 1,41,-1
 236 827 l 1,42,43
 280 847 280 847 308 847 c 0,44,45
 347 847 347 847 396 833 c 1,46,-1
 422 823 l 2,47,48
 449 815 449 815 482 815 c 0,49,50
 520 815 520 815 572 847 c 1,32,-1
EndSplineSet
Validated: 1
EndChar

StartChar: Odieresis
Encoding: 214 214 150
Width: 826
GlyphClass: 2
Flags: W
LayerCount: 2
Fore
SplineSet
784 336 m 0,0,1
 784 250 784 250 752 182 c 128,-1,2
 720 114 720 114 665.5 72 c 128,-1,3
 611 30 611 30 542 8 c 128,-1,4
 473 -14 473 -14 396 -14 c 0,5,6
 240 -14 240 -14 137 83 c 128,-1,7
 34 180 34 180 34 334 c 0,8,9
 34 487 34 487 143.5 583.5 c 128,-1,10
 253 680 253 680 408 680 c 0,11,12
 503 680 503 680 576.5 652 c 128,-1,13
 650 624 650 624 694.5 576 c 128,-1,14
 739 528 739 528 761.5 467 c 128,-1,15
 784 406 784 406 784 336 c 0,0,1
592 296 m 0,16,17
 592 339 592 339 582.5 384 c 128,-1,18
 573 429 573 429 553 474.5 c 128,-1,19
 533 520 533 520 494.5 549 c 128,-1,20
 456 578 456 578 404 578 c 0,21,22
 336 578 336 578 283 525 c 128,-1,23
 230 472 230 472 230 364 c 0,24,25
 230 235 230 235 284.5 163.5 c 128,-1,26
 339 92 339 92 420 92 c 0,27,28
 465 92 465 92 500 112 c 128,-1,29
 535 132 535 132 554 163.5 c 128,-1,30
 573 195 573 195 582.5 229 c 128,-1,31
 592 263 592 263 592 296 c 0,16,17
593 794 m 0,32,33
 593 761 593 761 568 736.5 c 128,-1,34
 543 712 543 712 509 712 c 0,35,36
 476 712 476 712 451.5 736.5 c 128,-1,37
 427 761 427 761 427 794 c 0,38,39
 427 828 427 828 451.5 853 c 128,-1,40
 476 878 476 878 509 878 c 0,41,42
 544 878 544 878 568.5 853 c 128,-1,43
 593 828 593 828 593 794 c 0,32,33
393 794 m 0,44,45
 393 761 393 761 368 736.5 c 128,-1,46
 343 712 343 712 309 712 c 0,47,48
 276 712 276 712 251.5 736.5 c 128,-1,49
 227 761 227 761 227 794 c 0,50,51
 227 828 227 828 251.5 853 c 128,-1,52
 276 878 276 878 309 878 c 0,53,54
 344 878 344 878 368.5 853 c 128,-1,55
 393 828 393 828 393 794 c 0,44,45
EndSplineSet
Validated: 1
EndChar

StartChar: multiply
Encoding: 215 215 151
Width: 454
GlyphClass: 2
Flags: W
LayerCount: 2
Fore
SplineSet
402 184 m 1,0,-1
 253 184 l 1,1,2
 248 198 248 198 227 238 c 2,3,-1
 199 288 l 1,4,-1
 166 241 l 2,5,6
 157 227 157 227 157 215 c 0,7,8
 157 202 157 202 173 184 c 1,9,-1
 54 184 l 1,10,-1
 166 341 l 1,11,-1
 86 468 l 2,12,13
 82 475 82 475 58 499 c 1,14,-1
 206 499 l 1,15,16
 206 498 206 498 207 495 c 128,-1,17
 208 492 208 492 208 491 c 0,18,19
 209 489 209 489 212 482.5 c 128,-1,20
 215 476 215 476 216 473 c 2,21,-1
 248 414 l 1,22,-1
 263 435 l 2,23,24
 265 438 265 438 268.5 442.5 c 128,-1,25
 272 447 272 447 274 450.5 c 128,-1,26
 276 454 276 454 278 459 c 128,-1,27
 280 464 280 464 280 468 c 0,28,29
 280 482 280 482 266 499 c 1,30,-1
 379 499 l 1,31,-1
 283 363 l 1,32,-1
 350 253 l 2,33,34
 386 200 386 200 402 184 c 1,0,-1
EndSplineSet
Validated: 1
EndChar

StartChar: Oslash
Encoding: 216 216 152
Width: 826
GlyphClass: 2
Flags: W
LayerCount: 2
Fore
SplineSet
784 326 m 0,0,1
 784 243 784 243 750 176.5 c 128,-1,2
 716 110 716 110 660 69.5 c 128,-1,3
 604 29 604 29 536 7.5 c 128,-1,4
 468 -14 468 -14 396 -14 c 0,5,6
 317 -14 317 -14 240 20 c 1,7,-1
 192 -52 l 1,8,-1
 98 -52 l 1,9,-1
 170 58 l 1,10,11
 34 167 34 167 34 332 c 0,12,13
 34 417 34 417 66 485 c 128,-1,14
 98 553 98 553 151.5 594.5 c 128,-1,15
 205 636 205 636 271 658 c 128,-1,16
 337 680 337 680 408 680 c 0,17,18
 502 680 502 680 574 656 c 1,19,-1
 624 732 l 1,20,-1
 720 732 l 1,21,-1
 644 620 l 1,22,23
 703 581 703 581 743.5 507.5 c 128,-1,24
 784 434 784 434 784 326 c 0,0,1
500 544 m 1,25,26
 458 580 458 580 402 580 c 0,27,28
 343 580 343 580 303 544.5 c 128,-1,29
 263 509 263 509 246.5 460 c 128,-1,30
 230 411 230 411 230 354 c 0,31,32
 230 272 230 272 266 194 c 1,33,-1
 500 544 l 1,25,26
590 296 m 0,34,35
 590 386 590 386 548 484 c 1,36,-1
 308 128 l 1,37,38
 360 86 360 86 416 86 c 0,39,40
 493 86 493 86 541.5 143.5 c 128,-1,41
 590 201 590 201 590 296 c 0,34,35
EndSplineSet
Validated: 1
EndChar

StartChar: Ugrave
Encoding: 217 217 153
Width: 710
GlyphClass: 2
Flags: W
LayerCount: 2
Fore
SplineSet
674 0 m 1,0,-1
 454 0 l 1,1,-1
 454 82 l 1,2,3
 372 -14 372 -14 272 -14 c 0,4,5
 184 -14 184 -14 128 42 c 0,6,7
 74 91 74 91 74 190 c 2,8,-1
 74 546 l 2,9,10
 74 591 74 591 66.5 619.5 c 128,-1,11
 59 648 59 648 32 668 c 1,12,-1
 302 668 l 1,13,14
 258 636 258 636 258 556 c 0,15,16
 258 553 258 553 259 545 c 128,-1,17
 260 537 260 537 260 534 c 2,18,-1
 260 234 l 2,19,20
 260 160 260 160 284 130 c 0,21,22
 308 102 308 102 344 102 c 0,23,24
 446 102 446 102 446 268 c 2,25,-1
 446 546 l 2,26,27
 446 591 446 591 438.5 619.5 c 128,-1,28
 431 648 431 648 404 668 c 1,29,-1
 674 668 l 1,30,31
 630 636 630 636 630 556 c 0,32,33
 630 553 630 553 631 545 c 128,-1,34
 632 537 632 537 632 534 c 2,35,-1
 632 134 l 2,36,37
 632 131 632 131 631 122 c 128,-1,38
 630 113 630 113 630 110 c 0,39,40
 630 35 630 35 674 0 c 1,0,-1
497 757 m 1,41,-1
 437 721 l 1,42,-1
 201 811 l 1,43,-1
 251 897 l 1,44,-1
 497 757 l 1,41,-1
EndSplineSet
Validated: 1
EndChar

StartChar: Uacute
Encoding: 218 218 154
Width: 710
GlyphClass: 2
Flags: W
LayerCount: 2
Fore
SplineSet
674 0 m 1,0,-1
 454 0 l 1,1,-1
 454 82 l 1,2,3
 372 -14 372 -14 272 -14 c 0,4,5
 184 -14 184 -14 128 42 c 0,6,7
 74 91 74 91 74 190 c 2,8,-1
 74 546 l 2,9,10
 74 591 74 591 66.5 619.5 c 128,-1,11
 59 648 59 648 32 668 c 1,12,-1
 302 668 l 1,13,14
 258 636 258 636 258 556 c 0,15,16
 258 553 258 553 259 545 c 128,-1,17
 260 537 260 537 260 534 c 2,18,-1
 260 234 l 2,19,20
 260 160 260 160 284 130 c 0,21,22
 308 102 308 102 344 102 c 0,23,24
 446 102 446 102 446 268 c 2,25,-1
 446 546 l 2,26,27
 446 591 446 591 438.5 619.5 c 128,-1,28
 431 648 431 648 404 668 c 1,29,-1
 674 668 l 1,30,31
 630 636 630 636 630 556 c 0,32,33
 630 553 630 553 631 545 c 128,-1,34
 632 537 632 537 632 534 c 2,35,-1
 632 134 l 2,36,37
 632 131 632 131 631 122 c 128,-1,38
 630 113 630 113 630 110 c 0,39,40
 630 35 630 35 674 0 c 1,0,-1
514 811 m 1,41,-1
 276 721 l 1,42,-1
 218 757 l 1,43,-1
 462 897 l 1,44,-1
 514 811 l 1,41,-1
EndSplineSet
Validated: 1
EndChar

StartChar: Ucircumflex
Encoding: 219 219 155
Width: 710
GlyphClass: 2
Flags: W
LayerCount: 2
Fore
SplineSet
674 0 m 1,0,-1
 454 0 l 1,1,-1
 454 82 l 1,2,3
 372 -14 372 -14 272 -14 c 0,4,5
 184 -14 184 -14 128 42 c 0,6,7
 74 91 74 91 74 190 c 2,8,-1
 74 546 l 2,9,10
 74 591 74 591 66.5 619.5 c 128,-1,11
 59 648 59 648 32 668 c 1,12,-1
 302 668 l 1,13,14
 258 636 258 636 258 556 c 0,15,16
 258 553 258 553 259 545 c 128,-1,17
 260 537 260 537 260 534 c 2,18,-1
 260 234 l 2,19,20
 260 160 260 160 284 130 c 0,21,22
 308 102 308 102 344 102 c 0,23,24
 446 102 446 102 446 268 c 2,25,-1
 446 546 l 2,26,27
 446 591 446 591 438.5 619.5 c 128,-1,28
 431 648 431 648 404 668 c 1,29,-1
 674 668 l 1,30,31
 630 636 630 636 630 556 c 0,32,33
 630 553 630 553 631 545 c 128,-1,34
 632 537 632 537 632 534 c 2,35,-1
 632 134 l 2,36,37
 632 131 632 131 631 122 c 128,-1,38
 630 113 630 113 630 110 c 0,39,40
 630 35 630 35 674 0 c 1,0,-1
562 761 m 1,41,-1
 502 719 l 1,42,-1
 356 785 l 1,43,-1
 210 719 l 1,44,-1
 152 761 l 1,45,-1
 356 883 l 1,46,-1
 562 761 l 1,41,-1
EndSplineSet
Validated: 1
EndChar

StartChar: Udieresis
Encoding: 220 220 156
Width: 710
GlyphClass: 2
Flags: W
LayerCount: 2
Fore
SplineSet
674 0 m 1,0,-1
 454 0 l 1,1,-1
 454 82 l 1,2,3
 372 -14 372 -14 272 -14 c 0,4,5
 184 -14 184 -14 128 42 c 0,6,7
 74 91 74 91 74 190 c 2,8,-1
 74 546 l 2,9,10
 74 591 74 591 66.5 619.5 c 128,-1,11
 59 648 59 648 32 668 c 1,12,-1
 302 668 l 1,13,14
 258 636 258 636 258 556 c 0,15,16
 258 553 258 553 259 545 c 128,-1,17
 260 537 260 537 260 534 c 2,18,-1
 260 234 l 2,19,20
 260 160 260 160 284 130 c 0,21,22
 308 102 308 102 344 102 c 0,23,24
 446 102 446 102 446 268 c 2,25,-1
 446 546 l 2,26,27
 446 591 446 591 438.5 619.5 c 128,-1,28
 431 648 431 648 404 668 c 1,29,-1
 674 668 l 1,30,31
 630 636 630 636 630 556 c 0,32,33
 630 553 630 553 631 545 c 128,-1,34
 632 537 632 537 632 534 c 2,35,-1
 632 134 l 2,36,37
 632 131 632 131 631 122 c 128,-1,38
 630 113 630 113 630 110 c 0,39,40
 630 35 630 35 674 0 c 1,0,-1
536 797 m 0,41,42
 536 764 536 764 511 739.5 c 128,-1,43
 486 715 486 715 452 715 c 0,44,45
 419 715 419 715 394.5 739.5 c 128,-1,46
 370 764 370 764 370 797 c 0,47,48
 370 831 370 831 394.5 856 c 128,-1,49
 419 881 419 881 452 881 c 0,50,51
 486 881 486 881 511 856.5 c 128,-1,52
 536 832 536 832 536 797 c 0,41,42
336 797 m 0,53,54
 336 764 336 764 311 739.5 c 128,-1,55
 286 715 286 715 252 715 c 0,56,57
 219 715 219 715 194.5 739.5 c 128,-1,58
 170 764 170 764 170 797 c 0,59,60
 170 831 170 831 194.5 856 c 128,-1,61
 219 881 219 881 252 881 c 0,62,63
 286 881 286 881 311 856.5 c 128,-1,64
 336 832 336 832 336 797 c 0,53,54
EndSplineSet
Validated: 1
EndChar

StartChar: Yacute
Encoding: 221 221 157
Width: 638
GlyphClass: 2
Flags: W
LayerCount: 2
Fore
SplineSet
602 668 m 1,0,-1
 420 302 l 1,1,-1
 420 136 l 2,2,3
 420 80 420 80 434 50 c 0,4,5
 446 20 446 20 466 0 c 1,6,-1
 194 0 l 1,7,8
 221 20 221 20 228.5 47.5 c 128,-1,9
 236 75 236 75 236 120 c 2,10,-1
 236 302 l 1,11,-1
 74 602 l 2,12,13
 58 637 58 637 20 668 c 1,14,-1
 254 668 l 1,15,-1
 372 424 l 1,16,-1
 434 552 l 2,17,18
 452 584 452 584 452 614 c 0,19,20
 452 643 452 643 420 668 c 1,21,-1
 602 668 l 1,0,-1
490 784 m 1,22,-1
 252 694 l 1,23,-1
 194 730 l 1,24,-1
 438 870 l 1,25,-1
 490 784 l 1,22,-1
EndSplineSet
Validated: 1
EndChar

StartChar: Thorn
Encoding: 222 222 158
Width: 586
GlyphClass: 2
Flags: W
LayerCount: 2
Fore
SplineSet
552 378 m 0,0,1
 552 324 552 324 530 284 c 128,-1,2
 508 244 508 244 470.5 221.5 c 128,-1,3
 433 199 433 199 389 188.5 c 128,-1,4
 345 178 345 178 294 178 c 0,5,6
 289 178 289 178 279.5 179 c 128,-1,7
 270 180 270 180 266 180 c 1,8,9
 318 208 318 208 334 232 c 0,10,11
 364 273 364 273 364 334 c 0,12,13
 364 405 364 405 324 440 c 0,14,15
 303 456 303 456 260 460 c 1,16,-1
 260 136 l 2,17,18
 260 76 260 76 272 50 c 0,19,20
 282 26 282 26 304 0 c 1,21,-1
 34 0 l 1,22,23
 62 20 62 20 70 47.5 c 128,-1,24
 78 75 78 75 78 120 c 2,25,-1
 78 546 l 2,26,27
 78 575 78 575 76 592.5 c 128,-1,28
 74 610 74 610 64 632 c 128,-1,29
 54 654 54 654 34 668 c 1,30,-1
 302 668 l 1,31,32
 260 635 260 635 260 560 c 1,33,-1
 286 560 l 2,34,35
 332 560 332 560 357 558.5 c 128,-1,36
 382 557 382 557 419.5 547.5 c 128,-1,37
 457 538 457 538 484 518 c 0,38,39
 516 494 516 494 534 456.5 c 128,-1,40
 552 419 552 419 552 378 c 0,0,1
EndSplineSet
Validated: 1
EndChar

StartChar: germandbls
Encoding: 223 223 159
Width: 638
GlyphClass: 2
Flags: W
LayerCount: 2
Fore
SplineSet
606 168 m 0,0,1
 606 88 606 88 540 37 c 128,-1,2
 474 -14 474 -14 392 -14 c 0,3,4
 359 -14 359 -14 332 -6 c 1,5,-1
 280 102 l 1,6,7
 307 92 307 92 328 92 c 0,8,9
 366 92 366 92 395 115.5 c 128,-1,10
 424 139 424 139 424 176 c 0,11,12
 424 204 424 204 407.5 231 c 128,-1,13
 391 258 391 258 374.5 273.5 c 128,-1,14
 358 289 358 289 330 310 c 0,15,16
 329 311 329 311 317.5 319.5 c 128,-1,17
 306 328 306 328 302.5 331.5 c 128,-1,18
 299 335 299 335 291.5 343 c 128,-1,19
 284 351 284 351 281 358.5 c 128,-1,20
 278 366 278 366 278 374 c 0,21,22
 278 404 278 404 300 420 c 2,23,-1
 324 434 l 1,24,25
 352 456 352 456 352 506 c 0,26,27
 352 537 352 537 339.5 560.5 c 128,-1,28
 327 584 327 584 298 584 c 0,29,30
 238 584 238 584 238 486 c 0,31,32
 238 481 238 481 239 471.5 c 128,-1,33
 240 462 240 462 240 458 c 2,34,-1
 240 94 l 2,35,36
 240 62 240 62 247 42 c 128,-1,37
 254 22 254 22 276 0 c 1,38,-1
 28 0 l 1,39,40
 49 21 49 21 55.5 40.5 c 128,-1,41
 62 60 62 60 62 94 c 2,42,-1
 62 370 l 1,43,-1
 12 370 l 1,44,-1
 62 468 l 1,45,-1
 62 494 l 2,46,47
 62 577 62 577 112 624 c 0,48,49
 176 680 176 680 288 680 c 0,50,51
 402 680 402 680 460 644 c 0,52,53
 532 599 532 599 532 526 c 128,-1,54
 532 453 532 453 434 402 c 0,55,56
 417 391 417 391 416 386 c 0,57,58
 416 377 416 377 432 372 c 0,59,60
 513 341 513 341 559.5 293.5 c 128,-1,61
 606 246 606 246 606 168 c 0,0,1
EndSplineSet
Validated: 1
EndChar

StartChar: agrave
Encoding: 224 224 160
Width: 564
GlyphClass: 2
Flags: W
LayerCount: 2
Fore
SplineSet
570 78 m 1,0,-1
 528 -10 l 1,1,2
 500 -14 500 -14 484 -14 c 0,3,4
 411 -14 411 -14 362 26 c 0,5,6
 308 67 308 67 308 152 c 2,7,-1
 308 218 l 1,8,9
 307 217 307 217 293.5 211.5 c 128,-1,10
 280 206 280 206 275.5 204 c 128,-1,11
 271 202 271 202 259.5 196 c 128,-1,12
 248 190 248 190 243 185.5 c 128,-1,13
 238 181 238 181 231 174 c 128,-1,14
 224 167 224 167 221 159.5 c 128,-1,15
 218 152 218 152 218 144 c 0,16,17
 218 119 218 119 235 97.5 c 128,-1,18
 252 76 252 76 276 76 c 0,19,20
 280 76 280 76 287 77 c 128,-1,21
 294 78 294 78 298 78 c 1,22,-1
 254 -10 l 1,23,24
 214 -14 214 -14 194 -14 c 0,25,26
 172 -14 172 -14 147.5 -8 c 128,-1,27
 123 -2 123 -2 94.5 12 c 128,-1,28
 66 26 66 26 47 57.5 c 128,-1,29
 28 89 28 89 28 132 c 0,30,31
 28 185 28 185 60 220 c 0,32,33
 73 234 73 234 88 244 c 128,-1,34
 103 254 103 254 125.5 261.5 c 128,-1,35
 148 269 148 269 158.5 272.5 c 128,-1,36
 169 276 169 276 199 282.5 c 128,-1,37
 229 289 229 289 234 290 c 0,38,39
 306 308 306 308 306 342 c 0,40,41
 306 360 306 360 287 372 c 128,-1,42
 268 384 268 384 248 384 c 0,43,44
 176 384 176 384 114 350 c 1,45,-1
 160 466 l 1,46,47
 214 480 214 480 302 480 c 0,48,49
 486 480 486 480 486 298 c 2,50,-1
 486 192 l 2,51,52
 486 190 486 190 485 185 c 128,-1,53
 484 180 484 180 484 178 c 0,54,55
 484 115 484 115 516 94 c 0,56,57
 537 78 537 78 570 78 c 1,0,-1
428 556 m 1,58,-1
 368 520 l 1,59,-1
 132 610 l 1,60,-1
 182 696 l 1,61,-1
 428 556 l 1,58,-1
EndSplineSet
Validated: 1
EndChar

StartChar: aacute
Encoding: 225 225 161
Width: 564
GlyphClass: 2
Flags: W
LayerCount: 2
Fore
SplineSet
570 78 m 1,0,-1
 528 -10 l 1,1,2
 500 -14 500 -14 484 -14 c 0,3,4
 411 -14 411 -14 362 26 c 0,5,6
 308 67 308 67 308 152 c 2,7,-1
 308 218 l 1,8,9
 307 217 307 217 293.5 211.5 c 128,-1,10
 280 206 280 206 275.5 204 c 128,-1,11
 271 202 271 202 259.5 196 c 128,-1,12
 248 190 248 190 243 185.5 c 128,-1,13
 238 181 238 181 231 174 c 128,-1,14
 224 167 224 167 221 159.5 c 128,-1,15
 218 152 218 152 218 144 c 0,16,17
 218 119 218 119 235 97.5 c 128,-1,18
 252 76 252 76 276 76 c 0,19,20
 280 76 280 76 287 77 c 128,-1,21
 294 78 294 78 298 78 c 1,22,-1
 254 -10 l 1,23,24
 214 -14 214 -14 194 -14 c 0,25,26
 172 -14 172 -14 147.5 -8 c 128,-1,27
 123 -2 123 -2 94.5 12 c 128,-1,28
 66 26 66 26 47 57.5 c 128,-1,29
 28 89 28 89 28 132 c 0,30,31
 28 185 28 185 60 220 c 0,32,33
 73 234 73 234 88 244 c 128,-1,34
 103 254 103 254 125.5 261.5 c 128,-1,35
 148 269 148 269 158.5 272.5 c 128,-1,36
 169 276 169 276 199 282.5 c 128,-1,37
 229 289 229 289 234 290 c 0,38,39
 306 308 306 308 306 342 c 0,40,41
 306 360 306 360 287 372 c 128,-1,42
 268 384 268 384 248 384 c 0,43,44
 176 384 176 384 114 350 c 1,45,-1
 160 466 l 1,46,47
 214 480 214 480 302 480 c 0,48,49
 486 480 486 480 486 298 c 2,50,-1
 486 192 l 2,51,52
 486 190 486 190 485 185 c 128,-1,53
 484 180 484 180 484 178 c 0,54,55
 484 115 484 115 516 94 c 0,56,57
 537 78 537 78 570 78 c 1,0,-1
448 613 m 5,58,-1
 210 523 l 5,59,-1
 152 559 l 5,60,-1
 396 699 l 5,61,-1
 448 613 l 5,58,-1
EndSplineSet
Validated: 1
EndChar

StartChar: acircumflex
Encoding: 226 226 162
Width: 564
GlyphClass: 2
Flags: W
LayerCount: 2
Fore
SplineSet
570 78 m 1,0,-1
 528 -10 l 1,1,2
 500 -14 500 -14 484 -14 c 0,3,4
 411 -14 411 -14 362 26 c 0,5,6
 308 67 308 67 308 152 c 2,7,-1
 308 218 l 1,8,9
 307 217 307 217 293.5 211.5 c 128,-1,10
 280 206 280 206 275.5 204 c 128,-1,11
 271 202 271 202 259.5 196 c 128,-1,12
 248 190 248 190 243 185.5 c 128,-1,13
 238 181 238 181 231 174 c 128,-1,14
 224 167 224 167 221 159.5 c 128,-1,15
 218 152 218 152 218 144 c 0,16,17
 218 119 218 119 235 97.5 c 128,-1,18
 252 76 252 76 276 76 c 0,19,20
 280 76 280 76 287 77 c 128,-1,21
 294 78 294 78 298 78 c 1,22,-1
 254 -10 l 1,23,24
 214 -14 214 -14 194 -14 c 0,25,26
 172 -14 172 -14 147.5 -8 c 128,-1,27
 123 -2 123 -2 94.5 12 c 128,-1,28
 66 26 66 26 47 57.5 c 128,-1,29
 28 89 28 89 28 132 c 0,30,31
 28 185 28 185 60 220 c 0,32,33
 73 234 73 234 88 244 c 128,-1,34
 103 254 103 254 125.5 261.5 c 128,-1,35
 148 269 148 269 158.5 272.5 c 128,-1,36
 169 276 169 276 199 282.5 c 128,-1,37
 229 289 229 289 234 290 c 0,38,39
 306 308 306 308 306 342 c 0,40,41
 306 360 306 360 287 372 c 128,-1,42
 268 384 268 384 248 384 c 0,43,44
 176 384 176 384 114 350 c 1,45,-1
 160 466 l 1,46,47
 214 480 214 480 302 480 c 0,48,49
 486 480 486 480 486 298 c 2,50,-1
 486 192 l 2,51,52
 486 190 486 190 485 185 c 128,-1,53
 484 180 484 180 484 178 c 0,54,55
 484 115 484 115 516 94 c 0,56,57
 537 78 537 78 570 78 c 1,0,-1
490 563 m 5,58,-1
 430 521 l 5,59,-1
 284 587 l 5,60,-1
 138 521 l 5,61,-1
 80 563 l 5,62,-1
 284 685 l 5,63,-1
 490 563 l 5,58,-1
EndSplineSet
Validated: 1
EndChar

StartChar: atilde
Encoding: 227 227 163
Width: 564
GlyphClass: 2
Flags: W
LayerCount: 2
Fore
SplineSet
570 78 m 1,0,-1
 528 -10 l 1,1,2
 500 -14 500 -14 484 -14 c 0,3,4
 411 -14 411 -14 362 26 c 0,5,6
 308 67 308 67 308 152 c 2,7,-1
 308 218 l 1,8,9
 307 217 307 217 293.5 211.5 c 128,-1,10
 280 206 280 206 275.5 204 c 128,-1,11
 271 202 271 202 259.5 196 c 128,-1,12
 248 190 248 190 243 185.5 c 128,-1,13
 238 181 238 181 231 174 c 128,-1,14
 224 167 224 167 221 159.5 c 128,-1,15
 218 152 218 152 218 144 c 0,16,17
 218 119 218 119 235 97.5 c 128,-1,18
 252 76 252 76 276 76 c 0,19,20
 280 76 280 76 287 77 c 128,-1,21
 294 78 294 78 298 78 c 1,22,-1
 254 -10 l 1,23,24
 214 -14 214 -14 194 -14 c 0,25,26
 172 -14 172 -14 147.5 -8 c 128,-1,27
 123 -2 123 -2 94.5 12 c 128,-1,28
 66 26 66 26 47 57.5 c 128,-1,29
 28 89 28 89 28 132 c 0,30,31
 28 185 28 185 60 220 c 0,32,33
 73 234 73 234 88 244 c 128,-1,34
 103 254 103 254 125.5 261.5 c 128,-1,35
 148 269 148 269 158.5 272.5 c 128,-1,36
 169 276 169 276 199 282.5 c 128,-1,37
 229 289 229 289 234 290 c 0,38,39
 306 308 306 308 306 342 c 0,40,41
 306 360 306 360 287 372 c 128,-1,42
 268 384 268 384 248 384 c 0,43,44
 176 384 176 384 114 350 c 1,45,-1
 160 466 l 1,46,47
 214 480 214 480 302 480 c 0,48,49
 486 480 486 480 486 298 c 2,50,-1
 486 192 l 2,51,52
 486 190 486 190 485 185 c 128,-1,53
 484 180 484 180 484 178 c 0,54,55
 484 115 484 115 516 94 c 0,56,57
 537 78 537 78 570 78 c 1,0,-1
461 655 m 5,58,-1
 433 553 l 5,59,60
 396 533 396 533 363 533 c 4,61,62
 328 533 328 533 283 547 c 4,63,64
 223 563 223 563 195 563 c 4,65,66
 154 563 154 563 101 533 c 5,67,-1
 125 635 l 5,68,69
 169 655 169 655 197 655 c 4,70,71
 236 655 236 655 285 641 c 5,72,-1
 311 631 l 6,73,74
 338 623 338 623 371 623 c 4,75,76
 409 623 409 623 461 655 c 5,58,-1
EndSplineSet
Validated: 1
EndChar

StartChar: adieresis
Encoding: 228 228 164
Width: 564
GlyphClass: 2
Flags: W
LayerCount: 2
Fore
SplineSet
570 78 m 1,0,-1
 528 -10 l 1,1,2
 500 -14 500 -14 484 -14 c 0,3,4
 411 -14 411 -14 362 26 c 0,5,6
 308 67 308 67 308 152 c 2,7,-1
 308 218 l 1,8,9
 307 217 307 217 293.5 211.5 c 128,-1,10
 280 206 280 206 275.5 204 c 128,-1,11
 271 202 271 202 259.5 196 c 128,-1,12
 248 190 248 190 243 185.5 c 128,-1,13
 238 181 238 181 231 174 c 128,-1,14
 224 167 224 167 221 159.5 c 128,-1,15
 218 152 218 152 218 144 c 0,16,17
 218 119 218 119 235 97.5 c 128,-1,18
 252 76 252 76 276 76 c 0,19,20
 280 76 280 76 287 77 c 128,-1,21
 294 78 294 78 298 78 c 1,22,-1
 254 -10 l 1,23,24
 214 -14 214 -14 194 -14 c 0,25,26
 172 -14 172 -14 147.5 -8 c 128,-1,27
 123 -2 123 -2 94.5 12 c 128,-1,28
 66 26 66 26 47 57.5 c 128,-1,29
 28 89 28 89 28 132 c 0,30,31
 28 185 28 185 60 220 c 0,32,33
 73 234 73 234 88 244 c 128,-1,34
 103 254 103 254 125.5 261.5 c 128,-1,35
 148 269 148 269 158.5 272.5 c 128,-1,36
 169 276 169 276 199 282.5 c 128,-1,37
 229 289 229 289 234 290 c 0,38,39
 306 308 306 308 306 342 c 0,40,41
 306 360 306 360 287 372 c 128,-1,42
 268 384 268 384 248 384 c 0,43,44
 176 384 176 384 114 350 c 1,45,-1
 160 466 l 1,46,47
 214 480 214 480 302 480 c 0,48,49
 486 480 486 480 486 298 c 2,50,-1
 486 192 l 2,51,52
 486 190 486 190 485 185 c 128,-1,53
 484 180 484 180 484 178 c 0,54,55
 484 115 484 115 516 94 c 0,56,57
 537 78 537 78 570 78 c 1,0,-1
458 596 m 0,58,59
 458 563 458 563 433 538.5 c 128,-1,60
 408 514 408 514 374 514 c 0,61,62
 341 514 341 514 316.5 538.5 c 128,-1,63
 292 563 292 563 292 596 c 0,64,65
 292 630 292 630 316.5 655 c 128,-1,66
 341 680 341 680 374 680 c 0,67,68
 408 680 408 680 433 655 c 128,-1,69
 458 630 458 630 458 596 c 0,58,59
258 596 m 0,70,71
 258 563 258 563 233 538.5 c 128,-1,72
 208 514 208 514 174 514 c 0,73,74
 141 514 141 514 116.5 538.5 c 128,-1,75
 92 563 92 563 92 596 c 0,76,77
 92 630 92 630 116.5 655 c 128,-1,78
 141 680 141 680 174 680 c 0,79,80
 208 680 208 680 233 655 c 128,-1,81
 258 630 258 630 258 596 c 0,70,71
EndSplineSet
Validated: 1
EndChar

StartChar: aring
Encoding: 229 229 165
Width: 564
GlyphClass: 2
Flags: W
LayerCount: 2
Fore
SplineSet
570 78 m 1,0,-1
 528 -10 l 1,1,2
 500 -14 500 -14 484 -14 c 0,3,4
 411 -14 411 -14 362 26 c 0,5,6
 308 67 308 67 308 152 c 2,7,-1
 308 218 l 1,8,9
 307 217 307 217 293.5 211.5 c 128,-1,10
 280 206 280 206 275.5 204 c 128,-1,11
 271 202 271 202 259.5 196 c 128,-1,12
 248 190 248 190 243 185.5 c 128,-1,13
 238 181 238 181 231 174 c 128,-1,14
 224 167 224 167 221 159.5 c 128,-1,15
 218 152 218 152 218 144 c 0,16,17
 218 119 218 119 235 97.5 c 128,-1,18
 252 76 252 76 276 76 c 0,19,20
 280 76 280 76 287 77 c 128,-1,21
 294 78 294 78 298 78 c 1,22,-1
 254 -10 l 1,23,24
 214 -14 214 -14 194 -14 c 0,25,26
 172 -14 172 -14 147.5 -8 c 128,-1,27
 123 -2 123 -2 94.5 12 c 128,-1,28
 66 26 66 26 47 57.5 c 128,-1,29
 28 89 28 89 28 132 c 0,30,31
 28 185 28 185 60 220 c 0,32,33
 73 234 73 234 88 244 c 128,-1,34
 103 254 103 254 125.5 261.5 c 128,-1,35
 148 269 148 269 158.5 272.5 c 128,-1,36
 169 276 169 276 199 282.5 c 128,-1,37
 229 289 229 289 234 290 c 0,38,39
 306 308 306 308 306 342 c 0,40,41
 306 360 306 360 287 372 c 128,-1,42
 268 384 268 384 248 384 c 0,43,44
 176 384 176 384 114 350 c 1,45,-1
 160 466 l 1,46,47
 214 480 214 480 302 480 c 0,48,49
 486 480 486 480 486 298 c 2,50,-1
 486 192 l 2,51,52
 486 190 486 190 485 185 c 128,-1,53
 484 180 484 180 484 178 c 0,54,55
 484 115 484 115 516 94 c 0,56,57
 537 78 537 78 570 78 c 1,0,-1
375 610 m 132,-1,59
 375 569 375 569 345.5 539 c 132,-1,60
 316 509 316 509 275 509 c 132,-1,61
 234 509 234 509 204 539 c 132,-1,62
 174 569 174 569 174 610 c 132,-1,63
 174 651 174 651 204 680.5 c 132,-1,64
 234 710 234 710 275 710 c 132,-1,65
 316 710 316 710 345.5 680.5 c 132,-1,58
 375 651 375 651 375 610 c 132,-1,59
313 610 m 132,-1,67
 313 626 313 626 301.5 637.5 c 132,-1,68
 290 649 290 649 275 649 c 4,69,70
 259 649 259 649 247.5 637.5 c 132,-1,71
 236 626 236 626 236 610 c 132,-1,72
 236 594 236 594 247.5 583 c 132,-1,73
 259 572 259 572 275 572 c 4,74,75
 290 572 290 572 301.5 583 c 132,-1,66
 313 594 313 594 313 610 c 132,-1,67
EndSplineSet
Validated: 1
EndChar

StartChar: ae
Encoding: 230 230 166
Width: 836
GlyphClass: 2
Flags: W
LayerCount: 2
Fore
SplineSet
810 140 m 1,0,-1
 772 18 l 1,1,2
 685 -14 685 -14 584 -14 c 0,3,4
 514 -14 514 -14 447.5 13 c 128,-1,5
 381 40 381 40 344 92 c 0,6,7
 312 138 312 138 308 222 c 1,8,9
 301 215 301 215 292 212 c 2,10,-1
 260 196 l 2,11,12
 222 177 222 177 222 142 c 0,13,14
 222 115 222 115 241.5 96.5 c 128,-1,15
 261 78 261 78 290 78 c 0,16,17
 300 78 300 78 320 82 c 1,18,-1
 278 -10 l 1,19,20
 254 -14 254 -14 244 -14 c 2,21,-1
 218 -14 l 2,22,23
 163 -14 163 -14 118 4 c 0,24,25
 78 20 78 20 55 56.5 c 128,-1,26
 32 93 32 93 32 136 c 0,27,28
 32 167 32 167 46.5 195.5 c 128,-1,29
 61 224 61 224 86 240 c 0,30,31
 126 267 126 267 224 288 c 0,32,33
 284 300 284 300 300 316 c 0,34,35
 312 327 312 327 312 344 c 0,36,37
 312 363 312 363 292 373.5 c 128,-1,38
 272 384 272 384 250 384 c 0,39,40
 187 384 187 384 120 354 c 1,41,-1
 168 466 l 1,42,43
 231 480 231 480 278 480 c 0,44,45
 366 480 366 480 424 446 c 1,46,47
 499 480 499 480 558 480 c 0,48,49
 678 480 678 480 740 417 c 128,-1,50
 802 354 802 354 804 234 c 1,51,-1
 488 234 l 1,52,-1
 488 208 l 2,53,54
 488 153 488 153 530.5 118.5 c 128,-1,55
 573 84 573 84 630 84 c 0,56,57
 712 84 712 84 810 140 c 1,0,-1
632 320 m 1,58,59
 632 352 632 352 614.5 373 c 128,-1,60
 597 394 597 394 570 394 c 0,61,62
 537 394 537 394 518 372.5 c 128,-1,63
 499 351 499 351 494 320 c 1,64,-1
 632 320 l 1,58,59
EndSplineSet
Validated: 1
EndChar

StartChar: ccedilla
Encoding: 231 231 167
Width: 512
GlyphClass: 2
Flags: W
LayerCount: 2
Fore
SplineSet
496 136 m 1,0,-1
 464 26 l 1,1,2
 384 -16 384 -16 314 -16 c 2,3,-1
 302 -16 l 1,4,-1
 290 -44 l 1,5,6
 358 -56 358 -56 358 -110 c 0,7,8
 358 -145 358 -145 326 -166.5 c 128,-1,9
 294 -188 294 -188 256 -188 c 0,10,11
 225 -188 225 -188 204 -180 c 1,12,-1
 186 -122 l 1,13,14
 222 -140 222 -140 252 -140 c 0,15,16
 268 -140 268 -140 282 -133.5 c 128,-1,17
 296 -127 296 -127 296 -112 c 0,18,19
 296 -86 296 -86 256 -86 c 0,20,21
 230 -86 230 -86 218 -90 c 1,22,-1
 248 -14 l 1,23,24
 149 5 149 5 89.5 69 c 128,-1,25
 30 133 30 133 30 232 c 0,26,27
 30 285 30 285 53 335 c 128,-1,28
 76 385 76 385 116 418 c 0,29,30
 193 480 193 480 306 480 c 0,31,32
 369 480 369 480 420 472 c 2,33,-1
 434 470 l 1,34,-1
 434 354 l 1,35,36
 374 388 374 388 328 388 c 0,37,38
 277 388 277 388 251.5 351.5 c 128,-1,39
 226 315 226 315 226 250 c 0,40,41
 226 225 226 225 232.5 199 c 128,-1,42
 239 173 239 173 252 147 c 128,-1,43
 265 121 265 121 291 104.5 c 128,-1,44
 317 88 317 88 352 88 c 0,45,46
 429 88 429 88 496 136 c 1,0,-1
EndSplineSet
Validated: 1
EndChar

StartChar: egrave
Encoding: 232 232 168
Width: 564
GlyphClass: 2
Flags: W
LayerCount: 2
Fore
SplineSet
524 134 m 1,0,-1
 486 18 l 1,1,2
 410 -14 410 -14 322 -14 c 0,3,4
 187 -14 187 -14 116 42 c 0,5,6
 76 73 76 73 53 122.5 c 128,-1,7
 30 172 30 172 30 224 c 0,8,9
 30 299 30 299 58 352 c 0,10,11
 90 416 90 416 150.5 448 c 128,-1,12
 211 480 211 480 286 480 c 0,13,14
 358 480 358 480 417.5 446 c 128,-1,15
 477 412 477 412 500 348 c 0,16,17
 512 309 512 309 520 232 c 1,18,-1
 206 232 l 1,19,20
 206 169 206 169 246.5 126.5 c 128,-1,21
 287 84 287 84 350 84 c 0,22,23
 420 84 420 84 524 134 c 1,0,-1
348 318 m 1,24,25
 344 392 344 392 286 392 c 0,26,27
 226 392 226 392 212 318 c 1,28,-1
 348 318 l 1,24,25
434 553 m 1,29,-1
 374 517 l 1,30,-1
 138 607 l 1,31,-1
 188 693 l 1,32,-1
 434 553 l 1,29,-1
EndSplineSet
Validated: 1
EndChar

StartChar: eacute
Encoding: 233 233 169
Width: 564
GlyphClass: 2
Flags: W
LayerCount: 2
Fore
SplineSet
524 134 m 1,0,-1
 486 18 l 1,1,2
 410 -14 410 -14 322 -14 c 0,3,4
 187 -14 187 -14 116 42 c 0,5,6
 76 73 76 73 53 122.5 c 128,-1,7
 30 172 30 172 30 224 c 0,8,9
 30 299 30 299 58 352 c 0,10,11
 90 416 90 416 150.5 448 c 128,-1,12
 211 480 211 480 286 480 c 0,13,14
 358 480 358 480 417.5 446 c 128,-1,15
 477 412 477 412 500 348 c 0,16,17
 512 309 512 309 520 232 c 1,18,-1
 206 232 l 1,19,20
 206 169 206 169 246.5 126.5 c 128,-1,21
 287 84 287 84 350 84 c 0,22,23
 420 84 420 84 524 134 c 1,0,-1
348 318 m 1,24,25
 344 392 344 392 286 392 c 0,26,27
 226 392 226 392 212 318 c 1,28,-1
 348 318 l 1,24,25
436 610 m 5,29,-1
 198 520 l 5,30,-1
 140 556 l 5,31,-1
 384 696 l 5,32,-1
 436 610 l 5,29,-1
EndSplineSet
Validated: 1
EndChar

StartChar: ecircumflex
Encoding: 234 234 170
Width: 564
GlyphClass: 2
Flags: W
LayerCount: 2
Fore
SplineSet
524 134 m 1,0,-1
 486 18 l 1,1,2
 410 -14 410 -14 322 -14 c 0,3,4
 187 -14 187 -14 116 42 c 0,5,6
 76 73 76 73 53 122.5 c 128,-1,7
 30 172 30 172 30 224 c 0,8,9
 30 299 30 299 58 352 c 0,10,11
 90 416 90 416 150.5 448 c 128,-1,12
 211 480 211 480 286 480 c 0,13,14
 358 480 358 480 417.5 446 c 128,-1,15
 477 412 477 412 500 348 c 0,16,17
 512 309 512 309 520 232 c 1,18,-1
 206 232 l 1,19,20
 206 169 206 169 246.5 126.5 c 128,-1,21
 287 84 287 84 350 84 c 0,22,23
 420 84 420 84 524 134 c 1,0,-1
348 318 m 1,24,25
 344 392 344 392 286 392 c 0,26,27
 226 392 226 392 212 318 c 1,28,-1
 348 318 l 1,24,25
490 566 m 5,29,-1
 430 524 l 5,30,-1
 284 590 l 5,31,-1
 138 524 l 5,32,-1
 80 566 l 5,33,-1
 284 688 l 5,34,-1
 490 566 l 5,29,-1
EndSplineSet
Validated: 1
EndChar

StartChar: edieresis
Encoding: 235 235 171
Width: 564
GlyphClass: 2
Flags: W
LayerCount: 2
Fore
SplineSet
524 134 m 1,0,-1
 486 18 l 1,1,2
 410 -14 410 -14 322 -14 c 0,3,4
 187 -14 187 -14 116 42 c 0,5,6
 76 73 76 73 53 122.5 c 128,-1,7
 30 172 30 172 30 224 c 0,8,9
 30 299 30 299 58 352 c 0,10,11
 90 416 90 416 150.5 448 c 128,-1,12
 211 480 211 480 286 480 c 0,13,14
 358 480 358 480 417.5 446 c 128,-1,15
 477 412 477 412 500 348 c 0,16,17
 512 309 512 309 520 232 c 1,18,-1
 206 232 l 1,19,20
 206 169 206 169 246.5 126.5 c 128,-1,21
 287 84 287 84 350 84 c 0,22,23
 420 84 420 84 524 134 c 1,0,-1
348 318 m 1,24,25
 344 392 344 392 286 392 c 0,26,27
 226 392 226 392 212 318 c 1,28,-1
 348 318 l 1,24,25
464 599 m 0,29,30
 464 566 464 566 439 541.5 c 128,-1,31
 414 517 414 517 380 517 c 0,32,33
 347 517 347 517 322.5 541.5 c 128,-1,34
 298 566 298 566 298 599 c 0,35,36
 298 633 298 633 322.5 658 c 128,-1,37
 347 683 347 683 380 683 c 0,38,39
 414 683 414 683 439 658.5 c 128,-1,40
 464 634 464 634 464 599 c 0,29,30
264 599 m 0,41,42
 264 566 264 566 239 541.5 c 128,-1,43
 214 517 214 517 180 517 c 0,44,45
 147 517 147 517 122.5 541.5 c 128,-1,46
 98 566 98 566 98 599 c 0,47,48
 98 633 98 633 122.5 658 c 128,-1,49
 147 683 147 683 180 683 c 0,50,51
 214 683 214 683 239 658.5 c 128,-1,52
 264 634 264 634 264 599 c 0,41,42
EndSplineSet
Validated: 1
EndChar

StartChar: igrave
Encoding: 236 236 172
Width: 304
GlyphClass: 2
Flags: W
LayerCount: 2
Fore
SplineSet
274 0 m 1,0,-1
 28 0 l 1,1,2
 49 21 49 21 55.5 40.5 c 128,-1,3
 62 60 62 60 62 94 c 2,4,-1
 62 374 l 2,5,6
 62 432 62 432 28 468 c 1,7,-1
 176 468 l 2,8,9
 205 468 205 468 240 482 c 1,10,-1
 240 94 l 2,11,12
 240 34 240 34 274 0 c 1,0,-1
290 556 m 1,13,-1
 230 520 l 1,14,-1
 -6 610 l 1,15,-1
 44 696 l 1,16,-1
 290 556 l 1,13,-1
EndSplineSet
Validated: 1
EndChar

StartChar: iacute
Encoding: 237 237 173
Width: 304
GlyphClass: 2
Flags: W
LayerCount: 2
Fore
SplineSet
274 0 m 1,0,-1
 28 0 l 1,1,2
 49 21 49 21 55.5 40.5 c 128,-1,3
 62 60 62 60 62 94 c 2,4,-1
 62 374 l 2,5,6
 62 432 62 432 28 468 c 1,7,-1
 176 468 l 2,8,9
 205 468 205 468 240 482 c 1,10,-1
 240 94 l 2,11,12
 240 34 240 34 274 0 c 1,0,-1
319 607 m 5,13,-1
 81 517 l 5,14,-1
 23 553 l 5,15,-1
 267 693 l 5,16,-1
 319 607 l 5,13,-1
EndSplineSet
Validated: 1
EndChar

StartChar: icircumflex
Encoding: 238 238 174
Width: 304
GlyphClass: 2
Flags: W
LayerCount: 2
Fore
SplineSet
274 0 m 1,0,-1
 28 0 l 1,1,2
 49 21 49 21 55.5 40.5 c 128,-1,3
 62 60 62 60 62 94 c 2,4,-1
 62 374 l 2,5,6
 62 432 62 432 28 468 c 1,7,-1
 176 468 l 2,8,9
 205 468 205 468 240 482 c 1,10,-1
 240 94 l 2,11,12
 240 34 240 34 274 0 c 1,0,-1
346 566 m 5,13,-1
 286 524 l 5,14,-1
 140 590 l 5,15,-1
 -6 524 l 5,16,-1
 -64 566 l 5,17,-1
 140 688 l 5,18,-1
 346 566 l 5,13,-1
EndSplineSet
Validated: 1
EndChar

StartChar: idieresis
Encoding: 239 239 175
Width: 304
GlyphClass: 2
Flags: W
LayerCount: 2
Fore
SplineSet
274 0 m 1,0,-1
 28 0 l 1,1,2
 49 21 49 21 55.5 40.5 c 128,-1,3
 62 60 62 60 62 94 c 2,4,-1
 62 374 l 2,5,6
 62 432 62 432 28 468 c 1,7,-1
 176 468 l 2,8,9
 205 468 205 468 240 482 c 1,10,-1
 240 94 l 2,11,12
 240 34 240 34 274 0 c 1,0,-1
326 596 m 0,13,14
 326 563 326 563 301 538.5 c 128,-1,15
 276 514 276 514 242 514 c 0,16,17
 209 514 209 514 184.5 538.5 c 128,-1,18
 160 563 160 563 160 596 c 0,19,20
 160 630 160 630 184.5 655 c 128,-1,21
 209 680 209 680 242 680 c 0,22,23
 276 680 276 680 301 655 c 128,-1,24
 326 630 326 630 326 596 c 0,13,14
126 596 m 0,25,26
 126 563 126 563 101 538.5 c 128,-1,27
 76 514 76 514 42 514 c 0,28,29
 9 514 9 514 -15.5 538.5 c 128,-1,30
 -40 563 -40 563 -40 596 c 0,31,32
 -40 630 -40 630 -15.5 655 c 128,-1,33
 9 680 9 680 42 680 c 0,34,35
 76 680 76 680 101 655 c 128,-1,36
 126 630 126 630 126 596 c 0,25,26
EndSplineSet
Validated: 1
EndChar

StartChar: eth
Encoding: 240 240 176
Width: 586
GlyphClass: 2
Flags: W
LayerCount: 2
Fore
SplineSet
554 234 m 0,0,1
 554 122 554 122 480 54 c 128,-1,2
 406 -14 406 -14 284 -14 c 0,3,4
 171 -14 171 -14 100.5 54.5 c 128,-1,5
 30 123 30 123 30 236 c 0,6,7
 30 347 30 347 105.5 413.5 c 128,-1,8
 181 480 181 480 294 480 c 0,9,10
 328 480 328 480 346 478 c 1,11,-1
 298 584 l 1,12,-1
 248 564 l 2,13,14
 224 554 224 554 222 538 c 1,15,-1
 186 614 l 1,16,-1
 194 614 l 2,17,18
 195 614 195 614 198 613 c 128,-1,19
 201 612 201 612 202 612 c 0,20,21
 208 612 208 612 226 618 c 2,22,-1
 272 638 l 1,23,-1
 250 688 l 1,24,-1
 316 716 l 1,25,-1
 346 664 l 1,26,-1
 414 696 l 2,27,28
 420 698 420 698 424 710 c 1,29,-1
 456 632 l 1,30,31
 444 636 444 636 438 636 c 0,32,33
 427 636 427 636 418 630 c 2,34,-1
 382 616 l 1,35,-1
 484 452 l 2,36,37
 554 342 554 342 554 234 c 0,0,1
384 228 m 0,38,39
 384 249 384 249 381 270.5 c 128,-1,40
 378 292 378 292 369.5 320 c 128,-1,41
 361 348 361 348 340 366 c 128,-1,42
 319 384 319 384 288 384 c 0,43,44
 200 384 200 384 200 250 c 0,45,46
 200 82 200 82 292 82 c 0,47,48
 323 82 323 82 342.5 94.5 c 128,-1,49
 362 107 362 107 370.5 131 c 128,-1,50
 379 155 379 155 381.5 176 c 128,-1,51
 384 197 384 197 384 228 c 0,38,39
EndSplineSet
Validated: 1
EndChar

StartChar: ntilde
Encoding: 241 241 177
Width: 606
GlyphClass: 2
Flags: W
LayerCount: 2
Fore
SplineSet
572 0 m 1,0,-1
 326 0 l 1,1,2
 347 21 347 21 353.5 40.5 c 128,-1,3
 360 60 360 60 360 94 c 2,4,-1
 360 296 l 2,5,6
 360 331 360 331 344 354.5 c 128,-1,7
 328 378 328 378 294 378 c 0,8,9
 236 378 236 378 236 296 c 2,10,-1
 236 94 l 2,11,12
 236 62 236 62 243.5 41 c 128,-1,13
 251 20 251 20 272 0 c 1,14,-1
 24 0 l 1,15,16
 46 22 46 22 53 41.5 c 128,-1,17
 60 61 60 61 60 94 c 2,18,-1
 60 374 l 2,19,20
 60 406 60 406 53 426 c 128,-1,21
 46 446 46 446 24 468 c 1,22,-1
 164 468 l 2,23,24
 193 468 193 468 228 482 c 1,25,-1
 228 426 l 1,26,27
 282 480 282 480 360 480 c 0,28,29
 441 480 441 480 488 436 c 0,30,31
 520 407 520 407 529 375 c 128,-1,32
 538 343 538 343 538 292 c 2,33,-1
 538 94 l 2,34,35
 538 34 538 34 572 0 c 1,0,-1
461 661 m 1,36,-1
 433 559 l 1,37,38
 396 539 396 539 363 539 c 0,39,40
 328 539 328 539 283 553 c 0,41,42
 223 569 223 569 195 569 c 0,43,44
 154 569 154 569 101 539 c 1,45,-1
 125 641 l 1,46,47
 169 661 169 661 197 661 c 0,48,49
 236 661 236 661 285 647 c 1,50,-1
 311 637 l 2,51,52
 338 629 338 629 371 629 c 0,53,54
 409 629 409 629 461 661 c 1,36,-1
EndSplineSet
Validated: 1
EndChar

StartChar: ograve
Encoding: 242 242 178
Width: 586
GlyphClass: 2
Flags: W
LayerCount: 2
Fore
SplineSet
556 234 m 0,0,1
 556 119 556 119 478.5 52.5 c 128,-1,2
 401 -14 401 -14 284 -14 c 0,3,4
 172 -14 172 -14 101 54.5 c 128,-1,5
 30 123 30 123 30 236 c 0,6,7
 30 347 30 347 105.5 413.5 c 128,-1,8
 181 480 181 480 294 480 c 0,9,10
 414 480 414 480 485 410 c 128,-1,11
 556 340 556 340 556 234 c 0,0,1
384 230 m 0,12,13
 384 267 384 267 377.5 298.5 c 128,-1,14
 371 330 371 330 348 357 c 128,-1,15
 325 384 325 384 288 384 c 0,16,17
 200 384 200 384 200 252 c 0,18,19
 200 84 200 84 292 84 c 0,20,21
 323 84 323 84 342.5 96.5 c 128,-1,22
 362 109 362 109 370.5 132.5 c 128,-1,23
 379 156 379 156 381.5 177.5 c 128,-1,24
 384 199 384 199 384 230 c 0,12,13
446 556 m 1,25,-1
 386 520 l 1,26,-1
 150 610 l 1,27,-1
 200 696 l 1,28,-1
 446 556 l 1,25,-1
EndSplineSet
Validated: 1
EndChar

StartChar: oacute
Encoding: 243 243 179
Width: 586
GlyphClass: 2
Flags: W
LayerCount: 2
Fore
SplineSet
556 234 m 0,0,1
 556 119 556 119 478.5 52.5 c 128,-1,2
 401 -14 401 -14 284 -14 c 0,3,4
 172 -14 172 -14 101 54.5 c 128,-1,5
 30 123 30 123 30 236 c 0,6,7
 30 347 30 347 105.5 413.5 c 128,-1,8
 181 480 181 480 294 480 c 0,9,10
 414 480 414 480 485 410 c 128,-1,11
 556 340 556 340 556 234 c 0,0,1
384 230 m 0,12,13
 384 267 384 267 377.5 298.5 c 128,-1,14
 371 330 371 330 348 357 c 128,-1,15
 325 384 325 384 288 384 c 0,16,17
 200 384 200 384 200 252 c 0,18,19
 200 84 200 84 292 84 c 0,20,21
 323 84 323 84 342.5 96.5 c 128,-1,22
 362 109 362 109 370.5 132.5 c 128,-1,23
 379 156 379 156 381.5 177.5 c 128,-1,24
 384 199 384 199 384 230 c 0,12,13
454 610 m 1,25,-1
 216 520 l 1,26,-1
 158 556 l 1,27,-1
 402 696 l 1,28,-1
 454 610 l 1,25,-1
EndSplineSet
Validated: 1
EndChar

StartChar: ocircumflex
Encoding: 244 244 180
Width: 586
GlyphClass: 2
Flags: W
LayerCount: 2
Fore
SplineSet
556 234 m 0,0,1
 556 119 556 119 478.5 52.5 c 128,-1,2
 401 -14 401 -14 284 -14 c 0,3,4
 172 -14 172 -14 101 54.5 c 128,-1,5
 30 123 30 123 30 236 c 0,6,7
 30 347 30 347 105.5 413.5 c 128,-1,8
 181 480 181 480 294 480 c 0,9,10
 414 480 414 480 485 410 c 128,-1,11
 556 340 556 340 556 234 c 0,0,1
384 230 m 0,12,13
 384 267 384 267 377.5 298.5 c 128,-1,14
 371 330 371 330 348 357 c 128,-1,15
 325 384 325 384 288 384 c 0,16,17
 200 384 200 384 200 252 c 0,18,19
 200 84 200 84 292 84 c 0,20,21
 323 84 323 84 342.5 96.5 c 128,-1,22
 362 109 362 109 370.5 132.5 c 128,-1,23
 379 156 379 156 381.5 177.5 c 128,-1,24
 384 199 384 199 384 230 c 0,12,13
499 563 m 1,25,-1
 439 521 l 1,26,-1
 293 587 l 1,27,-1
 147 521 l 1,28,-1
 89 563 l 1,29,-1
 293 685 l 1,30,-1
 499 563 l 1,25,-1
EndSplineSet
Validated: 1
EndChar

StartChar: otilde
Encoding: 245 245 181
Width: 586
GlyphClass: 2
Flags: W
LayerCount: 2
Fore
SplineSet
556 234 m 0,0,1
 556 119 556 119 478.5 52.5 c 128,-1,2
 401 -14 401 -14 284 -14 c 0,3,4
 172 -14 172 -14 101 54.5 c 128,-1,5
 30 123 30 123 30 236 c 0,6,7
 30 347 30 347 105.5 413.5 c 128,-1,8
 181 480 181 480 294 480 c 0,9,10
 414 480 414 480 485 410 c 128,-1,11
 556 340 556 340 556 234 c 0,0,1
384 230 m 0,12,13
 384 267 384 267 377.5 298.5 c 128,-1,14
 371 330 371 330 348 357 c 128,-1,15
 325 384 325 384 288 384 c 0,16,17
 200 384 200 384 200 252 c 0,18,19
 200 84 200 84 292 84 c 0,20,21
 323 84 323 84 342.5 96.5 c 128,-1,22
 362 109 362 109 370.5 132.5 c 128,-1,23
 379 156 379 156 381.5 177.5 c 128,-1,24
 384 199 384 199 384 230 c 0,12,13
470 658 m 1,25,-1
 442 556 l 1,26,27
 405 536 405 536 372 536 c 0,28,29
 338 536 338 536 292 550 c 0,30,31
 232 566 232 566 204 566 c 0,32,33
 162 566 162 566 110 536 c 1,34,-1
 134 638 l 1,35,36
 178 658 178 658 206 658 c 0,37,38
 245 658 245 658 294 644 c 1,39,-1
 320 634 l 2,40,41
 347 626 347 626 380 626 c 0,42,43
 418 626 418 626 470 658 c 1,25,-1
EndSplineSet
Validated: 1
EndChar

StartChar: odieresis
Encoding: 246 246 182
Width: 586
GlyphClass: 2
Flags: W
LayerCount: 2
Fore
SplineSet
556 234 m 0,0,1
 556 119 556 119 478.5 52.5 c 128,-1,2
 401 -14 401 -14 284 -14 c 0,3,4
 172 -14 172 -14 101 54.5 c 128,-1,5
 30 123 30 123 30 236 c 0,6,7
 30 347 30 347 105.5 413.5 c 128,-1,8
 181 480 181 480 294 480 c 0,9,10
 414 480 414 480 485 410 c 128,-1,11
 556 340 556 340 556 234 c 0,0,1
384 230 m 0,12,13
 384 267 384 267 377.5 298.5 c 128,-1,14
 371 330 371 330 348 357 c 128,-1,15
 325 384 325 384 288 384 c 0,16,17
 200 384 200 384 200 252 c 0,18,19
 200 84 200 84 292 84 c 0,20,21
 323 84 323 84 342.5 96.5 c 128,-1,22
 362 109 362 109 370.5 132.5 c 128,-1,23
 379 156 379 156 381.5 177.5 c 128,-1,24
 384 199 384 199 384 230 c 0,12,13
467 593 m 0,25,26
 467 560 467 560 442 535.5 c 128,-1,27
 417 511 417 511 383 511 c 0,28,29
 350 511 350 511 325.5 535.5 c 128,-1,30
 301 560 301 560 301 593 c 0,31,32
 301 627 301 627 325.5 652 c 128,-1,33
 350 677 350 677 383 677 c 0,34,35
 418 677 418 677 442.5 652.5 c 128,-1,36
 467 628 467 628 467 593 c 0,25,26
267 593 m 0,37,38
 267 560 267 560 242 535.5 c 128,-1,39
 217 511 217 511 183 511 c 0,40,41
 150 511 150 511 125.5 535.5 c 128,-1,42
 101 560 101 560 101 593 c 0,43,44
 101 627 101 627 125.5 652 c 128,-1,45
 150 677 150 677 183 677 c 0,46,47
 218 677 218 677 242.5 652.5 c 128,-1,48
 267 628 267 628 267 593 c 0,37,38
EndSplineSet
Validated: 1
EndChar

StartChar: divide
Encoding: 247 247 183
Width: 440
GlyphClass: 2
Flags: W
LayerCount: 2
Fore
SplineSet
263 471 m 0,0,1
 263 454 263 454 251.5 441.5 c 128,-1,2
 240 429 240 429 224 429 c 0,3,4
 207 429 207 429 193 441 c 128,-1,5
 179 453 179 453 179 469 c 0,6,7
 179 487 179 487 192 499.5 c 128,-1,8
 205 512 205 512 223 512 c 0,9,10
 240 512 240 512 251.5 499.5 c 128,-1,11
 263 487 263 487 263 471 c 0,0,1
405 391 m 1,12,-1
 349 313 l 2,13,14
 338 297 338 297 307 297 c 0,15,16
 304 297 304 297 297.5 298 c 128,-1,17
 291 299 291 299 289 299 c 2,18,-1
 95 301 l 2,19,20
 58 298 58 298 29 287 c 1,21,-1
 87 359 l 2,22,23
 101 377 101 377 145 377 c 2,24,-1
 341 377 l 2,25,26
 370 377 370 377 405 391 c 1,12,-1
263 203 m 0,27,28
 263 188 263 188 251.5 175.5 c 128,-1,29
 240 163 240 163 224 163 c 0,30,31
 207 163 207 163 193 174.5 c 128,-1,32
 179 186 179 186 179 203 c 0,33,34
 179 221 179 221 192 233 c 128,-1,35
 205 245 205 245 223 245 c 128,-1,36
 241 245 241 245 252 233 c 128,-1,37
 263 221 263 221 263 203 c 0,27,28
EndSplineSet
Validated: 1
EndChar

StartChar: oslash
Encoding: 248 248 184
Width: 586
GlyphClass: 2
Flags: W
LayerCount: 2
Fore
SplineSet
556 232 m 0,0,1
 556 127 556 127 482.5 56.5 c 128,-1,2
 409 -14 409 -14 280 -14 c 0,3,4
 227 -14 227 -14 174 8 c 1,5,-1
 126 -60 l 1,6,-1
 44 -60 l 1,7,-1
 114 42 l 1,8,9
 30 114 30 114 30 232 c 0,10,11
 30 348 30 348 106.5 414 c 128,-1,12
 183 480 183 480 300 480 c 0,13,14
 353 480 353 480 410 460 c 1,15,-1
 462 532 l 1,16,-1
 542 532 l 1,17,-1
 468 426 l 1,18,19
 556 344 556 344 556 232 c 0,0,1
346 360 m 1,20,21
 322 384 322 384 290 384 c 0,22,23
 253 384 253 384 231.5 359.5 c 128,-1,24
 210 335 210 335 205 310 c 128,-1,25
 200 285 200 285 200 256 c 0,26,27
 200 214 200 214 208 166 c 1,28,-1
 346 360 l 1,20,21
384 230 m 128,-1,30
 384 254 384 254 376 302 c 1,31,-1
 238 104 l 1,32,33
 261 84 261 84 294 84 c 0,34,35
 318 84 318 84 335.5 93.5 c 128,-1,36
 353 103 353 103 362 116 c 128,-1,37
 371 129 371 129 376.5 150.5 c 128,-1,38
 382 172 382 172 383 189 c 128,-1,29
 384 206 384 206 384 230 c 128,-1,30
EndSplineSet
Validated: 1
EndChar

StartChar: ugrave
Encoding: 249 249 185
Width: 596
GlyphClass: 2
Flags: W
LayerCount: 2
Fore
SplineSet
568 0 m 1,0,-1
 360 0 l 1,1,-1
 360 54 l 1,2,3
 298 -14 298 -14 218 -14 c 0,4,5
 152 -14 152 -14 110 20 c 0,6,7
 60 58 60 58 60 146 c 2,8,-1
 60 374 l 2,9,10
 60 434 60 434 26 468 c 1,11,-1
 174 468 l 2,12,13
 206 468 206 468 238 484 c 1,14,-1
 238 210 l 2,15,16
 238 207 238 207 237 198.5 c 128,-1,17
 236 190 236 190 236 186 c 0,18,19
 236 92 236 92 298 92 c 0,20,21
 329 92 329 92 342 114 c 0,22,23
 356 134 356 134 356 180 c 2,24,-1
 356 374 l 2,25,26
 356 434 356 434 322 468 c 1,27,-1
 470 468 l 2,28,29
 502 468 502 468 534 484 c 1,30,-1
 534 94 l 2,31,32
 534 36 534 36 568 0 c 1,0,-1
440 556 m 1,33,-1
 380 520 l 1,34,-1
 144 610 l 1,35,-1
 194 696 l 1,36,-1
 440 556 l 1,33,-1
EndSplineSet
Validated: 1
EndChar

StartChar: uacute
Encoding: 250 250 186
Width: 596
GlyphClass: 2
Flags: W
LayerCount: 2
Fore
SplineSet
568 0 m 1,0,-1
 360 0 l 1,1,-1
 360 54 l 1,2,3
 298 -14 298 -14 218 -14 c 0,4,5
 152 -14 152 -14 110 20 c 0,6,7
 60 58 60 58 60 146 c 2,8,-1
 60 374 l 2,9,10
 60 434 60 434 26 468 c 1,11,-1
 174 468 l 2,12,13
 206 468 206 468 238 484 c 1,14,-1
 238 210 l 2,15,16
 238 207 238 207 237 198.5 c 128,-1,17
 236 190 236 190 236 186 c 0,18,19
 236 92 236 92 298 92 c 0,20,21
 329 92 329 92 342 114 c 0,22,23
 356 134 356 134 356 180 c 2,24,-1
 356 374 l 2,25,26
 356 434 356 434 322 468 c 1,27,-1
 470 468 l 2,28,29
 502 468 502 468 534 484 c 1,30,-1
 534 94 l 2,31,32
 534 36 534 36 568 0 c 1,0,-1
448 610 m 1,33,-1
 210 520 l 1,34,-1
 152 556 l 1,35,-1
 396 696 l 1,36,-1
 448 610 l 1,33,-1
EndSplineSet
Validated: 1
EndChar

StartChar: ucircumflex
Encoding: 251 251 187
Width: 596
GlyphClass: 2
Flags: W
LayerCount: 2
Fore
SplineSet
568 0 m 1,0,-1
 360 0 l 1,1,-1
 360 54 l 1,2,3
 298 -14 298 -14 218 -14 c 0,4,5
 152 -14 152 -14 110 20 c 0,6,7
 60 58 60 58 60 146 c 2,8,-1
 60 374 l 2,9,10
 60 434 60 434 26 468 c 1,11,-1
 174 468 l 2,12,13
 206 468 206 468 238 484 c 1,14,-1
 238 210 l 2,15,16
 238 207 238 207 237 198.5 c 128,-1,17
 236 190 236 190 236 186 c 0,18,19
 236 92 236 92 298 92 c 0,20,21
 329 92 329 92 342 114 c 0,22,23
 356 134 356 134 356 180 c 2,24,-1
 356 374 l 2,25,26
 356 434 356 434 322 468 c 1,27,-1
 470 468 l 2,28,29
 502 468 502 468 534 484 c 1,30,-1
 534 94 l 2,31,32
 534 36 534 36 568 0 c 1,0,-1
487 569 m 1,33,-1
 427 527 l 1,34,-1
 281 593 l 1,35,-1
 135 527 l 1,36,-1
 77 569 l 1,37,-1
 281 691 l 1,38,-1
 487 569 l 1,33,-1
EndSplineSet
Validated: 1
EndChar

StartChar: udieresis
Encoding: 252 252 188
Width: 596
GlyphClass: 2
Flags: W
LayerCount: 2
Fore
SplineSet
568 0 m 1,0,-1
 360 0 l 1,1,-1
 360 54 l 1,2,3
 298 -14 298 -14 218 -14 c 0,4,5
 152 -14 152 -14 110 20 c 0,6,7
 60 58 60 58 60 146 c 2,8,-1
 60 374 l 2,9,10
 60 434 60 434 26 468 c 1,11,-1
 174 468 l 2,12,13
 206 468 206 468 238 484 c 1,14,-1
 238 210 l 2,15,16
 238 207 238 207 237 198.5 c 128,-1,17
 236 190 236 190 236 186 c 0,18,19
 236 92 236 92 298 92 c 0,20,21
 329 92 329 92 342 114 c 0,22,23
 356 134 356 134 356 180 c 2,24,-1
 356 374 l 2,25,26
 356 434 356 434 322 468 c 1,27,-1
 470 468 l 2,28,29
 502 468 502 468 534 484 c 1,30,-1
 534 94 l 2,31,32
 534 36 534 36 568 0 c 1,0,-1
464 599 m 0,33,34
 464 566 464 566 439 541.5 c 128,-1,35
 414 517 414 517 380 517 c 0,36,37
 347 517 347 517 322.5 541.5 c 128,-1,38
 298 566 298 566 298 599 c 0,39,40
 298 633 298 633 322.5 658 c 128,-1,41
 347 683 347 683 380 683 c 0,42,43
 414 683 414 683 439 658.5 c 128,-1,44
 464 634 464 634 464 599 c 0,33,34
264 599 m 0,45,46
 264 566 264 566 239 541.5 c 128,-1,47
 214 517 214 517 180 517 c 0,48,49
 147 517 147 517 122.5 541.5 c 128,-1,50
 98 566 98 566 98 599 c 0,51,52
 98 633 98 633 122.5 658 c 128,-1,53
 147 683 147 683 180 683 c 0,54,55
 214 683 214 683 239 658.5 c 128,-1,56
 264 634 264 634 264 599 c 0,45,46
EndSplineSet
Validated: 1
EndChar

StartChar: yacute
Encoding: 253 253 189
Width: 534
GlyphClass: 2
Flags: W
LayerCount: 2
Fore
SplineSet
524 468 m 1,0,-1
 330 -50 l 2,1,2
 308 -105 308 -105 284 -136 c 128,-1,3
 260 -167 260 -167 214 -188 c 0,4,5
 157 -214 157 -214 74 -214 c 0,6,7
 60 -214 60 -214 28 -210 c 1,8,-1
 108 -108 l 1,9,10
 124 -112 124 -112 134 -112 c 0,11,12
 184 -112 184 -112 211 -79.5 c 128,-1,13
 238 -47 238 -47 256 10 c 1,14,15
 202 46 202 46 174 108 c 2,16,-1
 56 390 l 2,17,18
 33 443 33 443 -2 468 c 1,19,-1
 222 468 l 1,20,21
 223 462 223 462 234 430.5 c 128,-1,22
 245 399 245 399 246 396 c 2,23,-1
 330 192 l 1,24,-1
 390 366 l 2,25,26
 400 401 400 401 400 418 c 0,27,28
 400 438 400 438 374 468 c 1,29,-1
 524 468 l 1,0,-1
442 607 m 5,30,-1
 204 517 l 5,31,-1
 146 553 l 5,32,-1
 390 693 l 5,33,-1
 442 607 l 5,30,-1
EndSplineSet
Validated: 1
EndChar

StartChar: thorn
Encoding: 254 254 190
Width: 616
GlyphClass: 2
Flags: W
LayerCount: 2
Fore
SplineSet
582 228 m 0,0,1
 582 176 582 176 559.5 124 c 128,-1,2
 537 72 537 72 498 38 c 0,3,4
 444 -11 444 -11 356 -14 c 0,5,6
 316 -14 316 -14 296 -10 c 1,7,-1
 260 84 l 1,8,9
 280 80 280 80 292 80 c 0,10,11
 394 80 394 80 394 224 c 0,12,13
 394 286 394 286 373 331 c 128,-1,14
 352 376 352 376 306 376 c 0,15,16
 268 376 268 376 254 350 c 1,17,18
 236 326 236 326 236 268 c 2,19,-1
 236 -118 l 2,20,21
 236 -176 236 -176 272 -212 c 1,22,-1
 24 -212 l 1,23,24
 46 -190 46 -190 53 -170.5 c 128,-1,25
 60 -151 60 -151 60 -118 c 2,26,-1
 60 574 l 2,27,28
 60 606 60 606 52.5 626 c 128,-1,29
 45 646 45 646 24 666 c 1,30,-1
 172 666 l 2,31,32
 204 666 204 666 236 682 c 1,33,-1
 236 418 l 1,34,35
 285 480 285 480 378 480 c 0,36,37
 426 480 426 480 468.5 457 c 128,-1,38
 511 434 511 434 538 394 c 0,39,40
 582 329 582 329 582 228 c 0,0,1
EndSplineSet
Validated: 1
EndChar

StartChar: ydieresis
Encoding: 255 255 191
Width: 534
GlyphClass: 2
Flags: W
LayerCount: 2
Fore
SplineSet
524 468 m 1,0,-1
 330 -50 l 2,1,2
 308 -105 308 -105 284 -136 c 128,-1,3
 260 -167 260 -167 214 -188 c 0,4,5
 157 -214 157 -214 74 -214 c 0,6,7
 60 -214 60 -214 28 -210 c 1,8,-1
 108 -108 l 1,9,10
 124 -112 124 -112 134 -112 c 0,11,12
 184 -112 184 -112 211 -79.5 c 128,-1,13
 238 -47 238 -47 256 10 c 1,14,15
 202 46 202 46 174 108 c 2,16,-1
 56 390 l 2,17,18
 33 443 33 443 -2 468 c 1,19,-1
 222 468 l 1,20,21
 223 462 223 462 234 430.5 c 128,-1,22
 245 399 245 399 246 396 c 2,23,-1
 330 192 l 1,24,-1
 390 366 l 2,25,26
 400 401 400 401 400 418 c 0,27,28
 400 438 400 438 374 468 c 1,29,-1
 524 468 l 1,0,-1
458 596 m 0,30,31
 458 563 458 563 433 538.5 c 128,-1,32
 408 514 408 514 374 514 c 0,33,34
 341 514 341 514 316.5 538.5 c 128,-1,35
 292 563 292 563 292 596 c 0,36,37
 292 630 292 630 316.5 655 c 128,-1,38
 341 680 341 680 374 680 c 0,39,40
 408 680 408 680 433 655 c 128,-1,41
 458 630 458 630 458 596 c 0,30,31
258 596 m 0,42,43
 258 563 258 563 233 538.5 c 128,-1,44
 208 514 208 514 174 514 c 0,45,46
 141 514 141 514 116.5 538.5 c 128,-1,47
 92 563 92 563 92 596 c 0,48,49
 92 630 92 630 116.5 655 c 128,-1,50
 141 680 141 680 174 680 c 0,51,52
 208 680 208 680 233 655 c 128,-1,53
 258 630 258 630 258 596 c 0,42,43
EndSplineSet
Validated: 1
EndChar

StartChar: dotlessi
Encoding: 305 305 192
Width: 304
GlyphClass: 2
Flags: W
LayerCount: 2
Fore
SplineSet
274 0 m 1,0,-1
 28 0 l 1,1,2
 49 21 49 21 55.5 40.5 c 128,-1,3
 62 60 62 60 62 94 c 2,4,-1
 62 374 l 2,5,6
 62 432 62 432 28 468 c 1,7,-1
 176 468 l 2,8,9
 205 468 205 468 240 482 c 1,10,-1
 240 94 l 2,11,12
 240 34 240 34 274 0 c 1,0,-1
EndSplineSet
Validated: 1
EndChar

StartChar: Lslash
Encoding: 321 321 193
Width: 520
GlyphClass: 2
Flags: W
LayerCount: 2
Fore
SplineSet
514 142 m 1,0,-1
 475 0 l 1,1,-1
 34 0 l 1,2,3
 55 16 55 16 65 40 c 128,-1,4
 75 64 75 64 76 80 c 128,-1,5
 77 96 77 96 77 133 c 2,6,-1
 77 215 l 1,7,-1
 4 145 l 1,8,-1
 4 216 l 2,9,10
 4 249 4 249 12 264 c 128,-1,11
 20 279 20 279 47 304 c 2,12,-1
 77 332 l 1,13,-1
 77 534 l 2,14,15
 77 571 77 571 76 586.5 c 128,-1,16
 75 602 75 602 65 626.5 c 128,-1,17
 55 651 55 651 34 667 c 1,18,-1
 304 667 l 1,19,20
 283 651 283 651 273 626 c 128,-1,21
 263 601 263 601 262.5 586.5 c 128,-1,22
 262 572 262 572 262 534 c 2,23,-1
 262 454 l 1,24,-1
 359 550 l 1,25,-1
 359 471 l 2,26,27
 359 445 359 445 349 427.5 c 128,-1,28
 339 410 339 410 317 390 c 2,29,-1
 262 337 l 1,30,-1
 262 114 l 1,31,32
 304 97 304 97 364 97 c 0,33,34
 449 97 449 97 514 142 c 1,0,-1
EndSplineSet
Validated: 1
EndChar

StartChar: lslash
Encoding: 322 322 194
Width: 337
GlyphClass: 2
Flags: W
LayerCount: 2
Fore
SplineSet
336 512 m 2,0,1
 336 485 336 485 326.5 468 c 128,-1,2
 317 451 317 451 294 428 c 2,3,-1
 265 399 l 1,4,-1
 265 93 l 2,5,6
 265 35 265 35 300 0 c 1,7,-1
 53 0 l 1,8,9
 74 21 74 21 81 41 c 128,-1,10
 88 61 88 61 88 93 c 2,11,-1
 88 286 l 1,12,-1
 21 224 l 1,13,-1
 21 277 l 2,14,15
 21 317 21 317 45 341 c 2,16,-1
 88 384 l 1,17,-1
 88 574 l 2,18,19
 88 605 88 605 81 624 c 128,-1,20
 74 643 74 643 54 667 c 1,21,-1
 201 667 l 2,22,23
 232 667 232 667 265 682 c 1,24,-1
 265 498 l 1,25,-1
 336 568 l 1,26,-1
 336 512 l 2,0,1
EndSplineSet
Validated: 1
EndChar

StartChar: OE
Encoding: 338 338 195
Width: 1022
GlyphClass: 2
Flags: W
LayerCount: 2
Fore
SplineSet
1011 146 m 1,0,-1
 968 0 l 1,1,-1
 503 0 l 1,2,3
 441 -13 441 -13 385 -13 c 0,4,5
 237 -13 237 -13 135 82.5 c 128,-1,6
 33 178 33 178 33 326 c 0,7,8
 33 484 33 484 136.5 582 c 128,-1,9
 240 680 240 680 400 680 c 0,10,11
 478 680 478 680 536 667 c 1,12,-1
 894 667 l 2,13,14
 911 667 911 667 928 672 c 1,15,-1
 928 524 l 1,16,17
 909 551 909 551 885 559 c 128,-1,18
 861 567 861 567 822 567 c 2,19,-1
 758 567 l 1,20,-1
 758 404 l 1,21,-1
 863 404 l 2,22,23
 877 404 877 404 894 409 c 1,24,-1
 894 268 l 1,25,26
 872 305 872 305 817 305 c 2,27,-1
 758 305 l 1,28,-1
 758 111 l 1,29,30
 801 97 801 97 864 97 c 0,31,32
 954 97 954 97 1011 146 c 1,0,-1
573 284 m 0,33,34
 573 426 573 426 505 520 c 0,35,36
 465 576 465 576 393 576 c 0,37,38
 313 576 313 576 270.5 513 c 128,-1,39
 228 450 228 450 228 352 c 0,40,41
 228 310 228 310 238.5 266.5 c 128,-1,42
 249 223 249 223 269 182.5 c 128,-1,43
 289 142 289 142 325 116.5 c 128,-1,44
 361 91 361 91 405 91 c 0,45,46
 481 91 481 91 527 148 c 128,-1,47
 573 205 573 205 573 284 c 0,33,34
EndSplineSet
Validated: 1
EndChar

StartChar: oe
Encoding: 339 339 196
Width: 938
GlyphClass: 2
Flags: W
LayerCount: 2
Fore
SplineSet
909 136 m 1,0,-1
 868 17 l 1,1,2
 782 -13 782 -13 692 -13 c 0,3,4
 589 -13 589 -13 501 42 c 1,5,6
 418 -13 418 -13 306 -13 c 0,7,8
 189 -13 189 -13 109 52 c 128,-1,9
 29 117 29 117 29 232 c 0,10,11
 29 344 29 344 112 412 c 128,-1,12
 195 480 195 480 310 480 c 0,13,14
 417 480 417 480 501 431 c 1,15,16
 582 480 582 480 663 480 c 0,17,18
 751 480 751 480 801 446 c 0,19,20
 901 376 901 376 901 234 c 1,21,-1
 586 234 l 1,22,23
 590 162 590 162 630 123 c 128,-1,24
 670 84 670 84 742 84 c 0,25,26
 807 84 807 84 909 136 c 1,0,-1
728 320 m 1,27,28
 723 394 723 394 665 394 c 0,29,30
 637 394 637 394 617.5 371.5 c 128,-1,31
 598 349 598 349 593 320 c 1,32,-1
 728 320 l 1,27,28
412 223 m 0,33,34
 412 384 412 384 311 384 c 0,35,36
 215 384 215 384 215 242 c 0,37,38
 215 203 215 203 223 170.5 c 128,-1,39
 231 138 231 138 255.5 111 c 128,-1,40
 280 84 280 84 319 84 c 0,41,42
 412 84 412 84 412 223 c 0,33,34
EndSplineSet
Validated: 1
EndChar

StartChar: Scaron
Encoding: 352 352 197
Width: 554
GlyphClass: 2
Flags: W
LayerCount: 2
Fore
SplineSet
528 198 m 0,0,1
 528 151 528 151 506.5 109 c 128,-1,2
 485 67 485 67 448 40 c 0,3,4
 373 -14 373 -14 250 -14 c 0,5,6
 155 -14 155 -14 54 24 c 1,7,-1
 20 168 l 1,8,9
 119 92 119 92 234 92 c 0,10,11
 277 92 277 92 309.5 108 c 128,-1,12
 342 124 342 124 342 162 c 0,13,14
 342 174 342 174 339 184.5 c 128,-1,15
 336 195 336 195 327.5 204.5 c 128,-1,16
 319 214 319 214 313.5 220 c 128,-1,17
 308 226 308 226 293.5 234 c 128,-1,18
 279 242 279 242 274.5 244.5 c 128,-1,19
 270 247 270 247 252.5 255 c 128,-1,20
 235 263 235 263 234 264 c 0,21,22
 228 267 228 267 213 274 c 128,-1,23
 198 281 198 281 190.5 284.5 c 128,-1,24
 183 288 183 288 170 295 c 128,-1,25
 157 302 157 302 148.5 307 c 128,-1,26
 140 312 140 312 129 319 c 128,-1,27
 118 326 118 326 108.5 333 c 128,-1,28
 99 340 99 340 90 348 c 0,29,30
 32 400 32 400 32 480 c 0,31,32
 32 573 32 573 101 626.5 c 128,-1,33
 170 680 170 680 266 680 c 0,34,35
 378 680 378 680 454 652 c 1,36,-1
 454 534 l 1,37,38
 376 580 376 580 306 580 c 0,39,40
 274 580 274 580 248 563.5 c 128,-1,41
 222 547 222 547 222 516 c 0,42,43
 222 506 222 506 225 497 c 128,-1,44
 228 488 228 488 235 480 c 128,-1,45
 242 472 242 472 248 467 c 128,-1,46
 254 462 254 462 266 456 c 128,-1,47
 278 450 278 450 283.5 447 c 128,-1,48
 289 444 289 444 303 438.5 c 128,-1,49
 317 433 317 433 320 432 c 0,50,51
 326 429 326 429 341 422 c 128,-1,52
 356 415 356 415 363.5 411.5 c 128,-1,53
 371 408 371 408 384 401 c 128,-1,54
 397 394 397 394 405.5 389 c 128,-1,55
 414 384 414 384 425 377 c 128,-1,56
 436 370 436 370 445.5 363 c 128,-1,57
 455 356 455 356 464 348 c 0,58,59
 528 284 528 284 528 198 c 0,0,1
484 825 m 5,60,-1
 281 703 l 5,61,-1
 75 825 l 5,62,-1
 136 868 l 5,63,-1
 281 802 l 5,64,-1
 426 868 l 5,65,-1
 484 825 l 5,60,-1
EndSplineSet
Validated: 1
EndChar

StartChar: scaron
Encoding: 353 353 198
Width: 512
GlyphClass: 2
Flags: W
LayerCount: 2
Fore
SplineSet
478 152 m 0,0,1
 478 106 478 106 454 71.5 c 128,-1,2
 430 37 430 37 391 19.5 c 128,-1,3
 352 2 352 2 311.5 -6 c 128,-1,4
 271 -14 271 -14 230 -14 c 0,5,6
 144 -14 144 -14 50 12 c 1,7,-1
 26 128 l 1,8,9
 127 72 127 72 200 72 c 0,10,11
 278 72 278 72 278 112 c 0,12,13
 278 123 278 123 273 132 c 128,-1,14
 268 141 268 141 257.5 147 c 128,-1,15
 247 153 247 153 240 156 c 128,-1,16
 233 159 233 159 218.5 163 c 128,-1,17
 204 167 204 167 202 168 c 0,18,19
 167 179 167 179 141.5 190 c 128,-1,20
 116 201 116 201 90 219 c 128,-1,21
 64 237 64 237 50 264 c 128,-1,22
 36 291 36 291 36 326 c 0,23,24
 36 403 36 403 100.5 441.5 c 128,-1,25
 165 480 165 480 248 480 c 0,26,27
 312 480 312 480 342 476 c 0,28,29
 393 469 393 469 422 462 c 1,30,-1
 422 356 l 1,31,32
 360 396 360 396 288 396 c 0,33,34
 228 396 228 396 228 362 c 0,35,36
 228 355 228 355 230.5 349.5 c 128,-1,37
 233 344 233 344 238.5 340 c 128,-1,38
 244 336 244 336 248.5 332.5 c 128,-1,39
 253 329 253 329 261.5 326.5 c 128,-1,40
 270 324 270 324 274.5 322.5 c 128,-1,41
 279 321 279 321 287.5 319 c 128,-1,42
 296 317 296 317 298 316 c 0,43,44
 394 287 394 287 428 260 c 0,45,46
 478 216 478 216 478 152 c 0,0,1
448 642 m 5,47,-1
 245 520 l 5,48,-1
 39 642 l 5,49,-1
 100 685 l 5,50,-1
 245 619 l 5,51,-1
 390 685 l 5,52,-1
 448 642 l 5,47,-1
EndSplineSet
Validated: 1
EndChar

StartChar: Ydieresis
Encoding: 376 376 199
Width: 638
GlyphClass: 2
Flags: W
LayerCount: 2
Fore
SplineSet
602 668 m 1,0,-1
 420 302 l 1,1,-1
 420 136 l 2,2,3
 420 80 420 80 434 50 c 0,4,5
 446 20 446 20 466 0 c 1,6,-1
 194 0 l 1,7,8
 221 20 221 20 228.5 47.5 c 128,-1,9
 236 75 236 75 236 120 c 2,10,-1
 236 302 l 1,11,-1
 74 602 l 2,12,13
 58 637 58 637 20 668 c 1,14,-1
 254 668 l 1,15,-1
 372 424 l 1,16,-1
 434 552 l 2,17,18
 452 584 452 584 452 614 c 0,19,20
 452 643 452 643 420 668 c 1,21,-1
 602 668 l 1,0,-1
497 800 m 0,22,23
 497 767 497 767 472 742.5 c 128,-1,24
 447 718 447 718 413 718 c 0,25,26
 380 718 380 718 355.5 742.5 c 128,-1,27
 331 767 331 767 331 800 c 0,28,29
 331 834 331 834 355.5 859 c 128,-1,30
 380 884 380 884 413 884 c 0,31,32
 448 884 448 884 472.5 859 c 128,-1,33
 497 834 497 834 497 800 c 0,22,23
297 800 m 0,34,35
 297 767 297 767 272 742.5 c 128,-1,36
 247 718 247 718 213 718 c 0,37,38
 180 718 180 718 155.5 742.5 c 128,-1,39
 131 767 131 767 131 800 c 0,40,41
 131 834 131 834 155.5 859 c 128,-1,42
 180 884 180 884 213 884 c 0,43,44
 248 884 248 884 272.5 859 c 128,-1,45
 297 834 297 834 297 800 c 0,34,35
EndSplineSet
Validated: 1
EndChar

StartChar: Zcaron
Encoding: 381 381 200
Width: 616
GlyphClass: 2
Flags: W
LayerCount: 2
Fore
SplineSet
608 160 m 1,0,-1
 552 0 l 1,1,-1
 8 0 l 1,2,-1
 310 568 l 1,3,4
 280 572 280 572 218 572 c 0,5,6
 150 572 150 572 54 524 c 1,7,-1
 106 668 l 1,8,-1
 572 668 l 1,9,-1
 272 106 l 1,10,11
 323 98 323 98 388 98 c 0,12,13
 477 98 477 98 524 118 c 0,14,15
 569 136 569 136 608 160 c 1,0,-1
523 825 m 1,16,-1
 320 703 l 1,17,-1
 114 825 l 1,18,-1
 175 868 l 1,19,-1
 320 802 l 1,20,-1
 465 868 l 1,21,-1
 523 825 l 1,16,-1
EndSplineSet
Validated: 1
EndChar

StartChar: zcaron
Encoding: 382 382 201
Width: 522
GlyphClass: 2
Flags: W
LayerCount: 2
Fore
SplineSet
508 114 m 1,0,-1
 468 0 l 1,1,-1
 14 0 l 1,2,-1
 232 372 l 1,3,4
 197 380 197 380 158 380 c 0,5,6
 109 380 109 380 54 354 c 1,7,-1
 90 468 l 1,8,-1
 482 468 l 1,9,-1
 272 98 l 1,10,11
 312 88 312 88 368 88 c 0,12,13
 456 88 456 88 508 114 c 1,0,-1
469 645 m 1,14,-1
 266 523 l 1,15,-1
 60 645 l 1,16,-1
 121 688 l 1,17,-1
 266 622 l 1,18,-1
 411 688 l 1,19,-1
 469 645 l 1,14,-1
EndSplineSet
Validated: 1
EndChar

StartChar: florin
Encoding: 402 402 202
Width: 558
GlyphClass: 2
Flags: W
LayerCount: 2
Fore
SplineSet
581 705 m 1,0,-1
 485 624 l 1,1,2
 465 644 465 644 442 644 c 0,3,4
 424 644 424 644 411 635 c 128,-1,5
 398 626 398 626 391 608.5 c 128,-1,6
 384 591 384 591 381 578 c 128,-1,7
 378 565 378 565 375 545 c 2,8,-1
 366 497 l 1,9,-1
 415 497 l 2,10,11
 440 497 440 497 455 506 c 1,12,-1
 455 414 l 1,13,14
 440 423 440 423 415 423 c 2,15,-1
 354 423 l 1,16,-1
 298 95 l 2,17,18
 285 15 285 15 271 -16 c 0,19,20
 247 -68 247 -68 197 -101 c 128,-1,21
 147 -134 147 -134 89 -139 c 0,22,23
 -8 -149 -8 -149 -101 -66 c 1,24,-1
 7 -2 l 1,25,26
 30 -38 30 -38 66 -38 c 0,27,28
 80 -38 80 -38 92 -34 c 128,-1,29
 104 -30 104 -30 112 -19 c 128,-1,30
 120 -8 120 -8 125.5 -0.5 c 128,-1,31
 131 7 131 7 136 25 c 128,-1,32
 141 43 141 43 142.5 49.5 c 128,-1,33
 144 56 144 56 147.5 77 c 128,-1,34
 151 98 151 98 151 100 c 2,35,-1
 205 423 l 1,36,-1
 158 423 l 2,37,38
 133 423 133 423 118 414 c 1,39,-1
 118 506 l 1,40,41
 133 497 133 497 158 497 c 2,42,-1
 217 497 l 1,43,-1
 226 550 l 2,44,45
 243 656 243 656 296 699 c 0,46,47
 352 746 352 746 435 746 c 0,48,49
 510 746 510 746 581 705 c 1,0,-1
EndSplineSet
Validated: 33
EndChar

StartChar: circumflex
Encoding: 710 710 203
Width: 502
GlyphClass: 2
Flags: W
LayerCount: 2
Fore
SplineSet
457 566 m 1,0,-1
 397 524 l 1,1,-1
 251 590 l 1,2,-1
 105 524 l 1,3,-1
 47 566 l 1,4,-1
 251 688 l 1,5,-1
 457 566 l 1,0,-1
EndSplineSet
Validated: 1
EndChar

StartChar: caron
Encoding: 711 711 204
Width: 500
GlyphClass: 2
Flags: W
LayerCount: 2
Fore
SplineSet
454 645 m 1,0,-1
 251 523 l 1,1,-1
 45 645 l 1,2,-1
 106 688 l 1,3,-1
 251 622 l 1,4,-1
 396 688 l 1,5,-1
 454 645 l 1,0,-1
EndSplineSet
Validated: 1
EndChar

StartChar: breve
Encoding: 728 728 205
Width: 500
GlyphClass: 2
Flags: W
LayerCount: 2
Fore
SplineSet
445 652 m 1,0,1
 413 586 413 586 368 557.5 c 128,-1,2
 323 529 323 529 250 529 c 128,-1,3
 177 529 177 529 132 558 c 128,-1,4
 87 587 87 587 56 652 c 1,5,-1
 116 679 l 1,6,7
 156 615 156 615 250 615 c 0,8,9
 345 615 345 615 384 679 c 1,10,-1
 445 652 l 1,0,1
EndSplineSet
Validated: 1
EndChar

StartChar: dotaccent
Encoding: 729 729 206
Width: 304
GlyphClass: 2
Flags: W
LayerCount: 2
Fore
SplineSet
240 584 m 128,-1,1
 240 545 240 545 211.5 516.5 c 128,-1,2
 183 488 183 488 144 488 c 128,-1,3
 105 488 105 488 76.5 516.5 c 128,-1,4
 48 545 48 545 48 584 c 128,-1,5
 48 623 48 623 76.5 651.5 c 128,-1,6
 105 680 105 680 144 680 c 128,-1,7
 183 680 183 680 211.5 651.5 c 128,-1,0
 240 623 240 623 240 584 c 128,-1,1
EndSplineSet
Validated: 1
EndChar

StartChar: ring
Encoding: 730 730 207
Width: 500
GlyphClass: 2
Flags: W
LayerCount: 2
Fore
SplineSet
351 610 m 128,-1,1
 351 569 351 569 321.5 539 c 128,-1,2
 292 509 292 509 251 509 c 128,-1,3
 210 509 210 509 180 539 c 128,-1,4
 150 569 150 569 150 610 c 128,-1,5
 150 651 150 651 180 680.5 c 128,-1,6
 210 710 210 710 251 710 c 128,-1,7
 292 710 292 710 321.5 680.5 c 128,-1,0
 351 651 351 651 351 610 c 128,-1,1
289 610 m 128,-1,9
 289 626 289 626 277.5 637.5 c 128,-1,10
 266 649 266 649 251 649 c 0,11,12
 235 649 235 649 223.5 637.5 c 128,-1,13
 212 626 212 626 212 610 c 128,-1,14
 212 594 212 594 223.5 583 c 128,-1,15
 235 572 235 572 251 572 c 0,16,17
 266 572 266 572 277.5 583 c 128,-1,8
 289 594 289 594 289 610 c 128,-1,9
EndSplineSet
Validated: 1
EndChar

StartChar: ogonek
Encoding: 731 731 208
Width: 500
GlyphClass: 2
Flags: W
LayerCount: 2
Fore
SplineSet
336 -128 m 5,0,-1
 294 -204 l 5,1,2
 278 -206 278 -206 270 -206 c 4,3,4
 228 -206 228 -206 199 -183.5 c 132,-1,5
 170 -161 170 -161 170 -120 c 4,6,7
 170 -63 170 -63 227 0 c 5,8,-1
 336 0 l 5,9,10
 270 -52 270 -52 270 -100 c 4,11,12
 270 -114 270 -114 280 -123 c 132,-1,13
 290 -132 290 -132 304 -133 c 4,14,15
 319 -133 319 -133 336 -128 c 5,0,-1
EndSplineSet
Validated: 1
EndChar

StartChar: tilde
Encoding: 732 732 209
Width: 502
GlyphClass: 2
Flags: W
LayerCount: 2
Fore
SplineSet
434 658 m 1,0,-1
 406 556 l 1,1,2
 369 536 369 536 336 536 c 0,3,4
 302 536 302 536 256 550 c 0,5,6
 196 566 196 566 168 566 c 0,7,8
 126 566 126 566 74 536 c 1,9,-1
 98 638 l 1,10,11
 142 658 142 658 170 658 c 0,12,13
 209 658 209 658 258 644 c 1,14,-1
 284 634 l 2,15,16
 311 626 311 626 344 626 c 0,17,18
 382 626 382 626 434 658 c 1,0,-1
EndSplineSet
Validated: 1
EndChar

StartChar: hungarumlaut
Encoding: 733 733 210
Width: 500
GlyphClass: 2
Flags: W
LayerCount: 2
Fore
SplineSet
486 647 m 1,0,-1
 316 518 l 1,1,-1
 256 539 l 1,2,-1
 417 710 l 1,3,-1
 486 647 l 1,0,-1
292 647 m 1,4,-1
 121 518 l 1,5,-1
 62 539 l 1,6,-1
 223 710 l 1,7,-1
 292 647 l 1,4,-1
EndSplineSet
Validated: 1
EndChar

StartChar: mu
Encoding: 956 956 211
Width: 596
GlyphClass: 2
Flags: W
LayerCount: 2
Fore
SplineSet
568 0 m 1,0,-1
 360 0 l 1,1,-1
 360 54 l 1,2,3
 310 -2 310 -2 238 -2 c 1,4,-1
 238 -80 l 2,5,6
 238 -140 238 -140 272 -174 c 1,7,-1
 26 -174 l 1,8,9
 47 -153 47 -153 53.5 -133.5 c 128,-1,10
 60 -114 60 -114 60 -80 c 2,11,-1
 60 374 l 2,12,13
 60 434 60 434 26 468 c 1,14,-1
 174 468 l 2,15,16
 206 468 206 468 238 484 c 1,17,-1
 238 176 l 2,18,19
 238 175 238 175 237 171 c 128,-1,20
 236 167 236 167 236 166 c 0,21,22
 236 136 236 136 250.5 114 c 128,-1,23
 265 92 265 92 298 92 c 0,24,25
 329 92 329 92 342 114 c 0,26,27
 356 134 356 134 356 180 c 2,28,-1
 356 374 l 2,29,30
 356 434 356 434 322 468 c 1,31,-1
 470 468 l 2,32,33
 502 468 502 468 534 484 c 1,34,-1
 534 94 l 2,35,36
 534 36 534 36 568 0 c 1,0,-1
EndSplineSet
Validated: 1
EndChar

StartChar: endash
Encoding: 8211 8211 212
Width: 527
GlyphClass: 2
Flags: W
LayerCount: 2
Fore
SplineSet
500 320 m 1,0,1
 477 290 477 290 462 268 c 2,2,-1
 432 222 l 2,3,4
 418 201 418 201 411 199 c 0,5,6
 404 196 404 196 392 196 c 2,7,-1
 128 196 l 2,8,9
 81 196 81 196 18 182 c 1,10,11
 48 222 48 222 56 234 c 2,12,-1
 86 278 l 2,13,14
 96 294 96 294 103.5 299 c 128,-1,15
 111 304 111 304 128 304 c 2,16,-1
 388 304 l 2,17,18
 439 304 439 304 500 320 c 1,0,1
EndSplineSet
Validated: 1
EndChar

StartChar: emdash
Encoding: 8212 8212 213
Width: 752
GlyphClass: 2
Flags: W
LayerCount: 2
Fore
SplineSet
750 320 m 1,0,1
 727 290 727 290 712 268 c 2,2,-1
 682 222 l 2,3,4
 668 202 668 202 660 199 c 0,5,6
 654 196 654 196 640 196 c 2,7,-1
 112 196 l 2,8,9
 66 196 66 196 0 182 c 1,10,11
 14 198 14 198 38 234 c 2,12,-1
 68 278 l 2,13,14
 76 290 76 290 80 294 c 128,-1,15
 84 298 84 298 91.5 301 c 128,-1,16
 99 304 99 304 112 304 c 2,17,-1
 638 304 l 2,18,19
 689 304 689 304 750 320 c 1,0,1
EndSplineSet
Validated: 1
EndChar

StartChar: quoteleft
Encoding: 8216 8216 214
Width: 300
GlyphClass: 2
Flags: W
LayerCount: 2
Fore
SplineSet
240 682 m 1,0,1
 238 681 238 681 235 678 c 128,-1,2
 232 675 232 675 230 674 c 2,3,-1
 204 652 l 2,4,5
 175 631 175 631 148 594 c 1,6,7
 168 594 168 594 186 588 c 0,8,9
 204 579 204 579 217 559.5 c 128,-1,10
 230 540 230 540 230 520 c 0,11,12
 230 487 230 487 205.5 463.5 c 128,-1,13
 181 440 181 440 146 440 c 0,14,15
 112 440 112 440 88 467.5 c 128,-1,16
 64 495 64 495 64 530 c 0,17,18
 64 588 64 588 126 650 c 0,19,20
 154 678 154 678 172 686 c 0,21,22
 181 692 181 692 190 692 c 0,23,24
 217 692 217 692 240 682 c 1,0,1
EndSplineSet
Validated: 1
PairPos2: "'kern' Horizontal Kerning lookup 0 subtable" quoteleft dx=0 dy=0 dh=0 dv=0 dx=0 dy=0 dh=0 dv=0
EndChar

StartChar: quoteright
Encoding: 8217 8217 215
Width: 300
GlyphClass: 2
Flags: W
LayerCount: 2
Fore
SplineSet
235 600 m 0,0,1
 235 542 235 542 173 480 c 0,2,3
 145 452 145 452 129 444 c 0,4,5
 120 438 120 438 109 438 c 0,6,7
 86 438 86 438 59 448 c 1,8,9
 61 449 61 449 65 452 c 128,-1,10
 69 455 69 455 71 456 c 2,11,-1
 97 478 l 2,12,13
 132 506 132 506 151 536 c 1,14,15
 133 536 133 536 115 542 c 0,16,17
 96 551 96 551 83.5 570.5 c 128,-1,18
 71 590 71 590 71 610 c 0,19,20
 71 643 71 643 95.5 666.5 c 128,-1,21
 120 690 120 690 153 690 c 0,22,23
 188 690 188 690 211.5 663 c 128,-1,24
 235 636 235 636 235 600 c 0,0,1
EndSplineSet
Validated: 1
PairPos2: "'kern' Horizontal Kerning lookup 0 subtable" quoteright dx=0 dy=0 dh=0 dv=0 dx=0 dy=0 dh=0 dv=0
EndChar

StartChar: quotesinglbase
Encoding: 8218 8218 216
Width: 419
GlyphClass: 2
Flags: W
LayerCount: 2
Fore
SplineSet
315 74 m 0,0,1
 315 38 315 38 291.5 -8 c 128,-1,2
 268 -54 268 -54 239 -88 c 0,3,4
 216 -114 216 -114 203.5 -120 c 128,-1,5
 191 -126 191 -126 157 -126 c 0,6,7
 131 -126 131 -126 117 -124 c 1,8,9
 182 -66 182 -66 217 2 c 1,10,11
 213 -2 213 -2 201 -2 c 0,12,13
 169 -2 169 -2 145 25 c 128,-1,14
 121 52 121 52 121 86 c 0,15,16
 121 124 121 124 150 152 c 128,-1,17
 179 180 179 180 217 180 c 0,18,19
 261 180 261 180 288 149 c 128,-1,20
 315 118 315 118 315 74 c 0,0,1
EndSplineSet
Validated: 1
EndChar

StartChar: quotedblleft
Encoding: 8220 8220 217
Width: 482
GlyphClass: 2
Flags: W
LayerCount: 2
Fore
SplineSet
432 682 m 1,0,1
 430 681 430 681 426 678 c 128,-1,2
 422 675 422 675 420 674 c 2,3,-1
 394 652 l 2,4,5
 359 624 359 624 340 594 c 1,6,7
 358 594 358 594 376 588 c 0,8,9
 394 579 394 579 407 559.5 c 128,-1,10
 420 540 420 540 420 520 c 0,11,12
 420 487 420 487 395.5 463.5 c 128,-1,13
 371 440 371 440 338 440 c 0,14,15
 303 440 303 440 279.5 467 c 128,-1,16
 256 494 256 494 256 530 c 0,17,18
 256 588 256 588 318 650 c 0,19,20
 346 678 346 678 362 686 c 0,21,22
 371 692 371 692 382 692 c 0,23,24
 405 692 405 692 432 682 c 1,0,1
216 682 m 1,25,26
 214 681 214 681 211 678 c 128,-1,27
 208 675 208 675 206 674 c 2,28,-1
 180 652 l 2,29,30
 151 631 151 631 124 594 c 1,31,32
 144 594 144 594 162 588 c 0,33,34
 180 579 180 579 193 559.5 c 128,-1,35
 206 540 206 540 206 520 c 0,36,37
 206 487 206 487 181.5 463.5 c 128,-1,38
 157 440 157 440 122 440 c 0,39,40
 88 440 88 440 64 467.5 c 128,-1,41
 40 495 40 495 40 530 c 0,42,43
 40 588 40 588 102 650 c 0,44,45
 130 678 130 678 148 686 c 0,46,47
 157 692 157 692 166 692 c 0,48,49
 193 692 193 692 216 682 c 1,25,26
EndSplineSet
Validated: 1
EndChar

StartChar: quotedblright
Encoding: 8221 8221 218
Width: 482
GlyphClass: 2
Flags: W
LayerCount: 2
Fore
SplineSet
433 600 m 0,0,1
 433 542 433 542 371 480 c 0,2,3
 343 452 343 452 325 444 c 0,4,5
 316 438 316 438 307 438 c 0,6,7
 280 438 280 438 257 448 c 1,8,9
 259 449 259 449 262 452 c 128,-1,10
 265 455 265 455 267 456 c 2,11,-1
 293 478 l 2,12,13
 322 499 322 499 349 536 c 1,14,15
 329 536 329 536 311 542 c 0,16,17
 292 551 292 551 279.5 570.5 c 128,-1,18
 267 590 267 590 267 610 c 0,19,20
 267 643 267 643 291.5 666.5 c 128,-1,21
 316 690 316 690 351 690 c 0,22,23
 385 690 385 690 409 662.5 c 128,-1,24
 433 635 433 635 433 600 c 0,0,1
217 600 m 0,25,26
 217 542 217 542 155 480 c 0,27,28
 127 452 127 452 111 444 c 0,29,30
 102 438 102 438 91 438 c 0,31,32
 68 438 68 438 41 448 c 1,33,34
 43 449 43 449 47 452 c 128,-1,35
 51 455 51 455 53 456 c 2,36,-1
 79 478 l 2,37,38
 114 506 114 506 133 536 c 1,39,40
 115 536 115 536 97 542 c 0,41,42
 78 551 78 551 65.5 570.5 c 128,-1,43
 53 590 53 590 53 610 c 0,44,45
 53 643 53 643 77.5 666.5 c 128,-1,46
 102 690 102 690 135 690 c 0,47,48
 170 690 170 690 193.5 663 c 128,-1,49
 217 636 217 636 217 600 c 0,25,26
EndSplineSet
Validated: 1
EndChar

StartChar: quotedblbase
Encoding: 8222 8222 219
Width: 479
GlyphClass: 2
Flags: W
LayerCount: 2
Fore
SplineSet
432 61 m 0,0,1
 432 4 432 4 370 -60 c 0,2,3
 339 -88 339 -88 325 -96 c 0,4,5
 315 -101 315 -101 306 -101 c 0,6,7
 277 -101 277 -101 256 -91 c 1,8,9
 266 -84 266 -84 267 -83 c 2,10,-1
 293 -62 l 2,11,12
 328 -34 328 -34 348 -3 c 1,13,14
 325 -3 325 -3 311 3 c 0,15,16
 293 11 293 11 280 30.5 c 128,-1,17
 267 50 267 50 267 70 c 0,18,19
 267 104 267 104 291.5 127.5 c 128,-1,20
 316 151 316 151 350 151 c 0,21,22
 385 151 385 151 408.5 123.5 c 128,-1,23
 432 96 432 96 432 61 c 0,0,1
217 61 m 0,24,25
 217 4 217 4 155 -60 c 0,26,27
 129 -86 129 -86 110 -96 c 0,28,29
 100 -101 100 -101 91 -101 c 0,30,31
 64 -101 64 -101 41 -91 c 1,32,33
 51 -84 51 -84 52 -83 c 2,34,-1
 78 -62 l 2,35,36
 113 -34 113 -34 133 -3 c 1,37,38
 110 -3 110 -3 97 3 c 0,39,40
 78 11 78 11 65 30.5 c 128,-1,41
 52 50 52 50 52 70 c 0,42,43
 52 104 52 104 76.5 127.5 c 128,-1,44
 101 151 101 151 135 151 c 0,45,46
 170 151 170 151 193.5 123.5 c 128,-1,47
 217 96 217 96 217 61 c 0,24,25
EndSplineSet
Validated: 1
EndChar

StartChar: dagger
Encoding: 8224 8224 220
Width: 600
GlyphClass: 2
Flags: W
LayerCount: 2
Fore
SplineSet
550 336 m 1,0,1
 497 362 497 362 441 362 c 2,2,-1
 357 362 l 1,3,-1
 357 -34 l 2,4,5
 357 -65 357 -65 357.5 -79 c 128,-1,6
 358 -93 358 -93 364 -116 c 128,-1,7
 370 -139 370 -139 382 -157 c 1,8,-1
 217 -157 l 1,9,10
 230 -138 230 -138 236 -116 c 128,-1,11
 242 -94 242 -94 242.5 -80 c 128,-1,12
 243 -66 243 -66 243 -34 c 2,13,-1
 243 362 l 1,14,-1
 160 362 l 2,15,16
 94 362 94 362 49 336 c 1,17,-1
 49 493 l 1,18,19
 97 470 97 470 160 470 c 2,20,-1
 243 470 l 1,21,-1
 243 561 l 2,22,23
 243 629 243 629 217 666 c 1,24,-1
 382 666 l 1,25,26
 357 623 357 623 357 561 c 2,27,-1
 357 470 l 1,28,-1
 441 470 l 2,29,30
 492 470 492 470 550 493 c 1,31,-1
 550 336 l 1,0,1
EndSplineSet
Validated: 1
EndChar

StartChar: daggerdbl
Encoding: 8225 8225 221
Width: 600
GlyphClass: 2
Flags: W
LayerCount: 2
Fore
SplineSet
550 81 m 1,0,1
 510 105 510 105 437 105 c 2,2,-1
 357 105 l 1,3,-1
 357 -34 l 2,4,5
 357 -65 357 -65 357.5 -79 c 128,-1,6
 358 -93 358 -93 364 -116 c 128,-1,7
 370 -139 370 -139 382 -157 c 1,8,-1
 217 -157 l 1,9,10
 230 -138 230 -138 236 -116 c 128,-1,11
 242 -94 242 -94 242.5 -80 c 128,-1,12
 243 -66 243 -66 243 -34 c 2,13,-1
 243 105 l 1,14,-1
 161 105 l 2,15,16
 98 105 98 105 49 81 c 1,17,-1
 49 237 l 1,18,19
 90 212 90 212 167 212 c 2,20,-1
 243 212 l 1,21,-1
 243 362 l 1,22,-1
 160 362 l 2,23,24
 94 362 94 362 49 336 c 1,25,-1
 49 493 l 1,26,27
 97 470 97 470 160 470 c 2,28,-1
 243 470 l 1,29,-1
 243 561 l 2,30,31
 243 629 243 629 217 666 c 1,32,-1
 382 666 l 1,33,34
 357 623 357 623 357 561 c 2,35,-1
 357 470 l 1,36,-1
 441 470 l 2,37,38
 492 470 492 470 550 493 c 1,39,-1
 550 336 l 1,40,41
 497 362 497 362 441 362 c 2,42,-1
 357 362 l 1,43,-1
 357 212 l 1,44,-1
 440 212 l 2,45,46
 501 212 501 212 550 237 c 1,47,-1
 550 81 l 1,0,1
EndSplineSet
Validated: 1
EndChar

StartChar: bullet
Encoding: 8226 8226 222
Width: 667
GlyphClass: 2
Flags: W
LayerCount: 2
Fore
SplineSet
471 340 m 0,0,1
 471 283 471 283 431 241.5 c 128,-1,2
 391 200 391 200 334 200 c 128,-1,3
 277 200 277 200 236.5 241.5 c 128,-1,4
 196 283 196 283 196 340 c 128,-1,5
 196 397 196 397 236.5 438 c 128,-1,6
 277 479 277 479 334 479 c 0,7,8
 390 479 390 479 430.5 437.5 c 128,-1,9
 471 396 471 396 471 340 c 0,0,1
EndSplineSet
Validated: 1
EndChar

StartChar: ellipsis
Encoding: 8230 8230 223
Width: 858
GlyphClass: 2
Flags: W
LayerCount: 2
Fore
SplineSet
817 83 m 0,0,1
 817 44 817 44 788.5 15.5 c 128,-1,2
 760 -13 760 -13 720 -13 c 0,3,4
 681 -13 681 -13 652.5 15.5 c 128,-1,5
 624 44 624 44 624 83 c 0,6,7
 624 123 624 123 652.5 151 c 128,-1,8
 681 179 681 179 720 179 c 0,9,10
 760 179 760 179 788.5 151 c 128,-1,11
 817 123 817 123 817 83 c 0,0,1
531 83 m 0,12,13
 531 44 531 44 502.5 15.5 c 128,-1,14
 474 -13 474 -13 434 -13 c 0,15,16
 395 -13 395 -13 366.5 15.5 c 128,-1,17
 338 44 338 44 338 83 c 0,18,19
 338 123 338 123 366.5 151 c 128,-1,20
 395 179 395 179 434 179 c 0,21,22
 474 179 474 179 502.5 151 c 128,-1,23
 531 123 531 123 531 83 c 0,12,13
245 83 m 0,24,25
 245 44 245 44 216.5 15.5 c 128,-1,26
 188 -13 188 -13 148 -13 c 0,27,28
 109 -13 109 -13 80.5 15.5 c 128,-1,29
 52 44 52 44 52 83 c 0,30,31
 52 123 52 123 80.5 151 c 128,-1,32
 109 179 109 179 148 179 c 0,33,34
 188 179 188 179 216.5 151 c 128,-1,35
 245 123 245 123 245 83 c 0,24,25
EndSplineSet
Validated: 1
EndChar

StartChar: perthousand
Encoding: 8240 8240 224
Width: 1118
GlyphClass: 2
Flags: W
LayerCount: 2
Fore
SplineSet
1085 150 m 0,0,1
 1085 75 1085 75 1036.5 31 c 128,-1,2
 988 -13 988 -13 919 -13 c 0,3,4
 848 -13 848 -13 804 33 c 128,-1,5
 760 79 760 79 760 151 c 0,6,7
 760 218 760 218 806 263.5 c 128,-1,8
 852 309 852 309 920 309 c 0,9,10
 995 309 995 309 1040 266.5 c 128,-1,11
 1085 224 1085 224 1085 150 c 0,0,1
735 150 m 0,12,13
 735 75 735 75 686.5 31 c 128,-1,14
 638 -13 638 -13 569 -13 c 0,15,16
 498 -13 498 -13 454 33 c 128,-1,17
 410 79 410 79 410 151 c 0,18,19
 410 218 410 218 456 263.5 c 128,-1,20
 502 309 502 309 570 309 c 0,21,22
 645 309 645 309 690 266.5 c 128,-1,23
 735 224 735 224 735 150 c 0,12,13
617 667 m 1,24,-1
 237 0 l 1,25,-1
 141 0 l 1,26,-1
 522 667 l 1,27,-1
 617 667 l 1,24,-1
352 521 m 0,28,29
 352 446 352 446 303.5 402 c 128,-1,30
 255 358 255 358 186 358 c 0,31,32
 115 358 115 358 71 404 c 128,-1,33
 27 450 27 450 27 522 c 0,34,35
 27 589 27 589 73 634.5 c 128,-1,36
 119 680 119 680 187 680 c 0,37,38
 262 680 262 680 307 637.5 c 128,-1,39
 352 595 352 595 352 521 c 0,28,29
970 146 m 0,40,41
 970 232 970 232 922 232 c 0,42,43
 876 232 876 232 876 159 c 0,44,45
 876 69 876 69 927 69 c 0,46,47
 970 69 970 69 970 146 c 0,40,41
620 146 m 0,48,49
 620 232 620 232 572 232 c 0,50,51
 526 232 526 232 526 159 c 0,52,53
 526 69 526 69 577 69 c 0,54,55
 620 69 620 69 620 146 c 0,48,49
237 517 m 0,56,57
 237 603 237 603 189 603 c 0,58,59
 143 603 143 603 143 530 c 0,60,61
 143 440 143 440 194 440 c 0,62,63
 237 440 237 440 237 517 c 0,56,57
EndSplineSet
Validated: 1
EndChar

StartChar: guilsinglleft
Encoding: 8249 8249 225
Width: 300
GlyphClass: 2
Flags: W
LayerCount: 2
Fore
SplineSet
246 102 m 1,0,-1
 154 102 l 1,1,-1
 34 244 l 1,2,-1
 154 388 l 1,3,-1
 246 388 l 1,4,-1
 156 244 l 1,5,-1
 246 102 l 1,0,-1
EndSplineSet
Validated: 1
EndChar

StartChar: guilsinglright
Encoding: 8250 8250 226
Width: 300
GlyphClass: 2
Flags: W
LayerCount: 2
Fore
SplineSet
254 246 m 1,0,-1
 134 102 l 1,1,-1
 40 102 l 1,2,-1
 130 246 l 1,3,-1
 40 388 l 1,4,-1
 134 388 l 1,5,-1
 254 246 l 1,0,-1
EndSplineSet
Validated: 1
EndChar

StartChar: fraction
Encoding: 8260 8260 227
Width: 408
GlyphClass: 2
Flags: W
LayerCount: 2
Fore
SplineSet
418 666 m 1,0,-1
 92 -158 l 1,1,-1
 -30 -158 l 1,2,-1
 300 666 l 1,3,-1
 418 666 l 1,0,-1
EndSplineSet
Validated: 1
EndChar

